<svg id="ALBRAS" xmlns="http://www.w3.org/2000/svg" xmlns:xlink="http://www.w3.org/1999/xlink" width="240" height="128.699" viewBox="0 0 240 128.699">
  <defs>
    <clipPath id="clip-path">
      <rect id="Retângulo_135" data-name="Retângulo 135" width="240" height="128.699" fill="#828c8f"/>
    </clipPath>
  </defs>
  <g id="Grupo_374" data-name="Grupo 374" clip-path="url(#clip-path)">
    <path id="Caminho_42" data-name="Caminho 42" d="M281.259,52.342H270.82v2.3h8.993a1.059,1.059,0,0,1,.122-.025.846.846,0,0,1,0,1.691H270.82v7.474h10.439a2.438,2.438,0,0,0,2.4-2.475V54.793a2.432,2.432,0,0,0-2.4-2.45M270.82,36.733V34.5h24.431A2.831,2.831,0,0,1,298.07,36.1l4.411,12.988c.368,1.3.809,2.99.221,4.264a3.476,3.476,0,0,1-2.867,1.274c-.294.025-.564.025-.833.025H296.55c-.049,0-.1-.025-.147-.025a.843.843,0,0,0-.809.858.833.833,0,0,0,.784.833h2.647c3.161,0,7.327-.907,4.778-8.405L291.968,13.282c-1.029-3.039-2.548-5.881-5.661-5.881H270.82V0h17.1c4.558.147,7.449,3.063,9.606,7.253l14.948,43.324a16.141,16.141,0,0,1,.588,3.235V55.65c-.368,4.68-3.431,7.891-7.842,8.062l-.024-.049v.123h-9.973a2.438,2.438,0,0,1-2.4-2.475V54.793a2.432,2.432,0,0,1,2.4-2.45h4.656c.882-.025,1.3-.441,1.029-1.4l-4.656-13.674c-.073-.319-.294-.515-.76-.539Zm0-4.019h23.819c1.446-.074,2.058-.76,1.446-2.377l-5.612-16.516a9.371,9.371,0,0,0-2.426-4.19,3.024,3.024,0,0,0-1.764-.564H270.82v2.377h15.757a1.059,1.059,0,0,1,1.1.637l3.455,10.12a2.013,2.013,0,0,1-2.083,2.647H270.82Zm0,19.628h-28.7c-.956,0-1.4-.466-.98-1.666L245.7,37.247a.842.842,0,0,1,.637-.515h24.48V34.5H246.536a2.626,2.626,0,0,0-2.99,1.568l-4.558,13.576a4.1,4.1,0,0,0,.221,3.7,4.215,4.215,0,0,0,3.161,1.3h28.45ZM270.82,0V7.4H255.186c-3.112,0-4.631,2.818-5.661,5.881L237.469,49.108c-1.274,3.774.319,7.2,5.293,7.2H270.82v7.474H239.111a2.684,2.684,0,0,1-.662-.1l-.024.1a9.347,9.347,0,0,1-9.753-8.528v-2.4a12.516,12.516,0,0,1,.564-2.72L243.546,9.018c2.034-6,5.808-8.993,11.321-9.018Zm0,9.067h-15.61a2.92,2.92,0,0,0-2.279,1.054,9.987,9.987,0,0,0-1.789,3.431l-5.587,16.541c-.515,1.74.049,2.622,1.691,2.622H270.82V24.848H252.1a1.628,1.628,0,0,1-1.47-2.279l3.553-10.39a1.015,1.015,0,0,1,.956-.735H270.82Z" transform="translate(-150.845)" fill="#828c8f" fill-rule="evenodd"/>
    <path id="Caminho_43" data-name="Caminho 43" d="M178.15,282.812v-6.028h5.538l-5.318-18.967-.221.76V246.545a9.413,9.413,0,0,1,4.019-.809,7.615,7.615,0,0,1,5.44,1.838c1.3,1.2,2.475,3.529,3.6,6.935L203.194,290.8H188l-2.45-7.989Zm29.8,7.989v-6.763h11.811c2.769,0,4.68-.368,5.759-1.127a4.408,4.408,0,0,0,1.642-3.847c0-2.3-2.23-4.117-6.69-5.465-1.323-.417-2.377-.735-3.161-.98-4.362-1.446-7.376-3.088-8.993-4.925a10.766,10.766,0,0,1-2.426-7.474c0-4.7,1.519-8.307,4.582-10.758q4.595-3.712,13.331-3.725h11.566V252.5H225.346a7.305,7.305,0,0,0-3.872.882,2.811,2.811,0,0,0-1.4,2.475c0,1.862,1.936,3.406,5.832,4.631.858.27,1.519.515,1.936.662q7.131,2.316,9.655,5.342c1.642,1.985,2.5,4.8,2.5,8.405q0,7.425-4.607,11.664T222.724,290.8Zm-112.8-5.783a8.064,8.064,0,0,0,3.921-1.495c1.372-1.152,2.058-3.063,2.058-5.759,0-2.5-.686-4.337-2.009-5.538a7.571,7.571,0,0,0-3.97-1.642v-5.93a6.738,6.738,0,0,0,3.137-1.274c1.25-1.054,1.862-2.794,1.862-5.293,0-2.328-.613-4.019-1.813-5.122a6.6,6.6,0,0,0-3.186-1.421v-5.808h2.083c4.8,0,8.6,1.1,11.37,3.308a10.8,10.8,0,0,1,4.166,8.969,9.465,9.465,0,0,1-2.352,6.665,11.948,11.948,0,0,1-6.935,3.333,16.659,16.659,0,0,1,7.989,4.239,9.617,9.617,0,0,1,2.794,6.959c0,3.774-1.323,6.641-3.945,8.626s-6.445,2.965-11.444,2.965H95.152Zm83-38.473v12.032l-5.538,18.207h5.538v6.028h-7.4l-2.377,7.989H160.8l11.591-35.581c1.152-3.553,2.45-6.028,3.9-7.4a7.6,7.6,0,0,1,1.862-1.274M116.961,290.8V245.736h19.383c5.979,0,10.537,1.127,13.649,3.333a11.2,11.2,0,0,1,4.656,9.679,11.46,11.46,0,0,1-2.083,7.131,11.113,11.113,0,0,1-6.249,3.9L159.379,290.8H144.26L132.35,268.844v-.784a10.17,10.17,0,0,0,6.077-2.647,8.24,8.24,0,0,0,1.911-5.832c0-2.548-.662-4.509-2.034-5.808-1.372-1.323-3.406-1.985-6.077-1.985-.392,0-.711,0-.956.025s-.441.049-.637.074V290.8ZM89.173,270.437v14.776h2.941a22.615,22.615,0,0,0,3.039-.2V290.8H77.068V245.736H95.152v5.808a12.832,12.832,0,0,0-2.475-.2h-3.5v13.576h2.72a18.026,18.026,0,0,0,3.259-.27v5.93a15.615,15.615,0,0,0-2.205-.147ZM17.987,282.322v-5.661h6.69l-6.69-20.339v-9.459c4.288-2.573,7.008-.221,9.312,2.132L43.57,290.8H30.361l-3.651-8.479Zm41.511-.147c0,1.715.49,2.892,1.495,3.529,1,.613,4.852.907,7.719.907h3.945v4.19H59.179c-5.023,0-8.528-.613-10.537-1.862-2.058-1.225-3.063-3.431-3.063-6.641V245.736H59.5ZM17.987,246.863v9.459l-.1-.27L11.3,276.661h6.69v5.661h-8.6L6.322,290.8H0C5.1,275.975,10.194,263.821,15.266,249a16.722,16.722,0,0,1,2.72-2.132" transform="translate(0 -162.101)" fill="#828c8f" fill-rule="evenodd"/>
  </g>
</svg>
