<svg xmlns="http://www.w3.org/2000/svg" width="240" height="47.683" viewBox="0 0 240 47.683">
  <g id="ALSTOM" transform="translate(0 -0.201)">
    <path id="Caminho_38" data-name="Caminho 38" d="M23.334,26.137a20.839,20.839,0,0,0-9.511,1.184L19.976,11.3,31.914,40.023h9.113L25.292,2.186H14.6L0,40.043H9.1c1.655-5.633,8.9-9.87,15.621-10.47Zm49.5,8.182v7.409H46.35V3.653H55.7V34.319Zm71.18-30.665v7.4H131.444V41.728H121.8V11.051H109.253v-7.4ZM240,2.232V40.023h-9.47V16.959l-8.87,12.22H220.3l-8.866-12.22V40.023h-9.467V2.232h8.3L220.96,16.616,231.786,2.232Z" transform="translate(0 1.191)" fill="#828c8f" fill-rule="evenodd"/>
    <path id="Caminho_39" data-name="Caminho 39" d="M138.078,34.641a22.181,22.181,0,0,0-.752-20.6l2.187-2.579a24.47,24.47,0,0,1-.256,23.127l-1.181.048Zm-34.631-8.182a12.97,12.97,0,1,1,13.307,12.809A13.093,13.093,0,0,1,107.5,35.8l-1.874,1.927a20.024,20.024,0,0,1-.757-28.694A20.969,20.969,0,0,1,128.72,4.654l.1.107,1-1.123a25.934,25.934,0,0,0-31.547,4.5,25.206,25.206,0,0,0,.989,36.122l1.879-1.933a19.871,19.871,0,0,0,14.526,5.548,20.229,20.229,0,0,0,19.887-20.559,19.765,19.765,0,0,0-6.345-14.009l1.32-1.392a17.228,17.228,0,0,0-23.734.573,16.4,16.4,0,0,0-4.688,14.019l1.336-.048Z" transform="translate(54.694 0)" fill="#828c8f" fill-rule="evenodd"/>
    <path id="Caminho_40" data-name="Caminho 40" d="M75.494,11.715c-10.971-3.932-18.035-1.232-18.035,1.856,0,7.06,20.986,3.048,20.957,16.8-.03,10.3-8.679,13.078-17.535,13.078a41.889,41.889,0,0,1-11.865-1.706l.915-8.268a26.409,26.409,0,0,0,10.95,2.128c3.837,0,8.391-.75,8.626-3.77C70.127,24,48.621,28.908,48.621,14.566c0-9.55,9.091-12.5,17.088-12.5A32.328,32.328,0,0,1,76.126,4.122l-.632,7.593Z" transform="translate(29.18 1.121)" fill="#828c8f" fill-rule="evenodd"/>
  </g>
</svg>
