<svg id="Avon" xmlns="http://www.w3.org/2000/svg" width="135.999" height="30.149" viewBox="0 0 135.999 30.149">
  <path id="Layer" d="M256.889,33.029,243.1,4.2h3.753a4.425,4.425,0,0,1,4,2.543L258.426,22.9l7.52-16.142a4.423,4.423,0,0,1,4-2.557h3.78L259.935,33.029Z" transform="translate(-210.042 -3.629)" fill="#828c8f"/>
  <path id="Caminho_30" data-name="Caminho 30" d="M31.44,33.129H24.8a19.27,19.27,0,0,0-14.2-8.3L7.629,30.6a4.764,4.764,0,0,1-4.2,2.529H0L14.156,4.3h3.1ZM12.96,19.993a27.258,27.258,0,0,1,6.514,2.121L15.72,14.2Z" transform="translate(0 -3.715)" fill="#828c8f" fill-rule="evenodd"/>
  <path id="Caminho_31" data-name="Caminho 31" d="M836.533,4.2A3.035,3.035,0,0,0,833.5,7.232l.014,15.2L818.46,4.2H814V33.029h2.76A3.035,3.035,0,0,0,819.793,30l-.014-15.176,12.347,15.013s2.421,3.209,5.943,3.209h1.237V4.2Z" transform="translate(-703.307 -3.629)" fill="#828c8f"/>
  <path id="Caminho_32" data-name="Caminho 32" d="M541.952,15.067a14.653,14.653,0,0,1-4.529,10.689A15.364,15.364,0,0,1,526.6,30.148,15.116,15.116,0,0,1,515.762,4.311a15.763,15.763,0,0,1,21.663,0,14.937,14.937,0,0,1,4.527,10.756Zm-5.888,0a9.471,9.471,0,1,0-9.478,9.465,9.471,9.471,0,0,0,9.478-9.465Z" transform="translate(-441.77)" fill="#828c8f" fill-rule="evenodd"/>
</svg>
