<svg xmlns="http://www.w3.org/2000/svg" width="240" height="42.06" viewBox="0 0 240 42.06">
  <g id="BB_Seguros" data-name="BB Seguros" transform="translate(-4599.287 4328.763)">
    <path id="Fill-4" d="M9.287,18.881l8.752,5.805,10.474-7.02-4.375-2.9L29.8,10.957l12.264,8.128L22,32.541l4.38,2.9L51.241,18.769,30.229,4.841ZM51.279,32.754l-8.757-5.807L32.055,33.966l4.372,2.9-5.667,3.8L18.5,32.55,38.569,19.1l-4.38-2.9L9.325,32.867,30.342,46.79Zm-.06-22.144-4.363,2.926-4.377-2.9L51.2,4.786ZM9.347,41.021l4.363-2.926L18.084,41,9.362,46.845Z" transform="translate(4590 -4333.548)" fill="#828c8f" fill-rule="evenodd"/>
    <g id="Group-23" transform="translate(4650.845 -4322.087)">
      <path id="Fill-5" d="M122.558,26.916l-8.612.024-.011-3.588,8.117-.023a2.531,2.531,0,0,0,2.077-.918,3.549,3.549,0,0,0,.727-2.289c0-1.027-.992-2.012-2.958-2.938l-5.453-2.556a5.641,5.641,0,0,1-2.967-4.806Q113.46,3.505,122,3.475l6.993-.02L129,7.321l-6.257.017q-2.953.009-2.944,2.468,0,1.725,2.959,3.051c1.458.65,2.791,1.2,4.014,1.639.489.187.971.363,1.439.522a5.6,5.6,0,0,1,2.965,4.881q.011,4.558-2.69,6.012a13.373,13.373,0,0,1-5.933,1.005" transform="translate(57.261 0.905)" fill="#828c8f" fill-rule="evenodd"/>
      <path id="Fill-7" d="M109.658,6.693A2.631,2.631,0,0,1,112.333,9a34.225,34.225,0,0,1,.378,6.465,34.375,34.375,0,0,1-.342,6.471,2.708,2.708,0,0,1-5.3.048,34.709,34.709,0,0,1-.367-6.5,34.847,34.847,0,0,1,.333-6.427c.37-1.576,1.248-2.357,2.628-2.362m.057,20.94q6.112-.016,8-3.817c.745-1.5,1.117-4.293,1.1-8.367q-.018-6.317-1.151-8.572-1.865-3.709-8.019-3.7-6.109.018-7.965,3.745-1.151,2.328-1.136,8.579.018,6.082,1.182,8.358,1.944,3.8,7.986,3.775" transform="translate(50.729 0.763)" fill="#828c8f" fill-rule="evenodd"/>
      <path id="Fill-9" d="M106.021,26.957l-5.095-11.445q4.186-.786,4.172-5.951a6.112,6.112,0,0,0-1.58-4.419,5.794,5.794,0,0,0-4.38-1.609l-11,.03L88.2,27l6.013-.017L94.162,7.131l1.964-.006a2.916,2.916,0,0,1,2.351.978,3.671,3.671,0,0,1,.856,2.488,4.385,4.385,0,0,1-.56,2.291,2.209,2.209,0,0,1-1.958,1.094l-1.662,0,5.521,12.991Z" transform="translate(44.461 0.944)" fill="#828c8f" fill-rule="evenodd"/>
      <path id="Fill-11" d="M85.851,3.574,85.9,20.129q.009,3.648-2.663,3.657-2.707.007-2.715-3.642L80.474,3.59l-5.9.015.045,16.836q.011,4.107,2.294,5.718c1.3.93,3.4,1.4,6.334,1.388q4.29-.011,6.285-1.456,2.28-1.7,2.264-5.7L91.748,3.558Z" transform="translate(37.608 0.957)" fill="#828c8f" fill-rule="evenodd"/>
      <path id="Fill-13" d="M78.628,10.77a6.449,6.449,0,0,0-2.193-5.691,9.052,9.052,0,0,0-5.981-1.773q-5.829.016-7.786,3.673-1.3,2.393-1.281,8.647.018,6.965,1.821,9.348,2.082,2.763,8.474,2.75a47.7,47.7,0,0,0,6.811-.828l-.032-11.6-8.43.023.011,3.478L73,18.791l.014,5.1a3.109,3.109,0,0,1-1.829.459c-1.826,0-2.992-1.02-3.486-3.083a30.333,30.333,0,0,1-.3-5.34,31.485,31.485,0,0,1,.409-6.5q.625-2.463,2.658-2.468a2.133,2.133,0,0,1,2.008,1.332,5.705,5.705,0,0,1,.5,2.494Z" transform="translate(30.947 0.829)" fill="#828c8f" fill-rule="evenodd"/>
      <path id="Fill-15" d="M65.319,27.069l-.011-3.587-8.393.023L56.9,16.894l7.484-.02-.011-3.508-7.484.02-.015-5.872,8.08-.023-.011-3.864-13.98.038.063,23.443Z" transform="translate(25.682 0.992)" fill="#828c8f" fill-rule="evenodd"/>
      <path id="Fill-17" d="M46.386,28.693l-10.435.029L35.941,24.5l9.771-.027q3.511-.009,3.5-3.206,0-2-3.63-3.716l-6.717-3.177q-3.624-2.382-3.632-6.033-.013-4.434,3.143-6.3Q40.862.59,45.715.581L54.431.558l.012,4.669-7.875.021a4.783,4.783,0,0,0-2.685.607,2.346,2.346,0,0,0-.852,2.07,3.425,3.425,0,0,0,.882,2.173,7.341,7.341,0,0,0,2.714,1.967L53.315,15.1c2.41,1.52,3.621,3.42,3.627,5.72q.013,4.886-3.314,6.653-2.249,1.2-7.241,1.216" transform="translate(17.736 -0.558)" fill="#828c8f" fill-rule="evenodd"/>
      <path id="Fill-19" d="M27.092,4.946a2.616,2.616,0,0,1,2.184,1.115,3.978,3.978,0,0,1,.7,2.425,4.235,4.235,0,0,1-.692,2.354,2.38,2.38,0,0,1-2.038,1.24l-.137,0-3.585.009-.02-7.136Zm.1,23.793.775,0q9.907-.027,9.892-7.481a7.848,7.848,0,0,0-1.388-5,6.83,6.83,0,0,0-4.642-2.115v-.069q5.509-.926,5.5-6.2-.011-4.172-2.759-5.893Q32.389.611,27.961.623l-.844,0L16.01.654l.077,28.115Zm-.066-12.3a3.542,3.542,0,0,1,2.6,1.189,4.23,4.23,0,0,1,.921,2.81q.009,3.687-3.5,3.977l-3.585.009-.02-7.974Z" transform="translate(8.026 -0.526)" fill="#828c8f" fill-rule="evenodd"/>
      <path id="Fill-21" d="M11.146.669.041.7.116,28.812l11.106-.03.774,0q9.907-.027,9.889-7.481a7.844,7.844,0,0,0-1.385-5,6.845,6.845,0,0,0-4.639-2.115v-.071q5.509-.926,5.5-6.2Q21.345,3.735,18.6,2.017,16.423.654,11.989.665Zm0,11.456-3.582.009L7.541,5l3.582-.011A2.608,2.608,0,0,1,13.307,6.1a3.989,3.989,0,0,1,.706,2.425,4.236,4.236,0,0,1-.694,2.354,2.376,2.376,0,0,1-2.035,1.24Zm-3.57,4.363,3.582-.009a3.532,3.532,0,0,1,2.6,1.188,4.2,4.2,0,0,1,.924,2.812c.007,2.456-1.165,3.781-3.5,3.975l-3.582.011Z" transform="translate(-0.041 -0.505)" fill="#828c8f" fill-rule="evenodd"/>
    </g>
  </g>
</svg>
