<svg xmlns="http://www.w3.org/2000/svg" width="240" height="89.845" viewBox="0 0 240 89.845">
  <g id="BIC" transform="translate(-5143 4821)">
    <path id="Exclusão_3" data-name="Exclusão 3" d="M192.306,89.845H16.981A15.693,15.693,0,0,1,5.274,84.663a18.952,18.952,0,0,1-3.683-6.079A25.336,25.336,0,0,1,.02,70.534C-.259,63.4,2.405,53.027,7.328,42.081a119.013,119.013,0,0,1,8.553-15.747A91.6,91.6,0,0,1,26.613,12.578,50.417,50.417,0,0,1,37.991,3.459,24.406,24.406,0,0,1,49.9,0H218a30.022,30.022,0,0,1,9.893,1.5,17.949,17.949,0,0,1,6.893,4.233,16.929,16.929,0,0,1,3.957,6.441A24.794,24.794,0,0,1,240,20.489c-.04,6.036-1.6,13.433-4.5,21.393A114.444,114.444,0,0,1,224.151,64.55,80.718,80.718,0,0,1,208.8,82.527a37.448,37.448,0,0,1-8.283,5.364A19.9,19.9,0,0,1,192.306,89.845ZM96.738,3.327c-27.677,0-43.041.01-45.666.03a20.409,20.409,0,0,0-8.268,2,38.177,38.177,0,0,0-8.319,5.361,81.374,81.374,0,0,0-15.37,17.752A112.842,112.842,0,0,0,7.8,50.5C4.917,58.152,3.388,65.137,3.38,70.7a18.871,18.871,0,0,0,1.208,6.981,13.661,13.661,0,0,0,3.034,4.669,14.451,14.451,0,0,0,9.7,4.134H190.628A23.176,23.176,0,0,0,202.5,82.9a47.022,47.022,0,0,0,10.84-9.329A89.12,89.12,0,0,0,223.3,59.578a122.706,122.706,0,0,0,7.61-15.447c4.138-10.147,6.333-19.529,5.729-24.484,0,0,0,0,0-.011v-.008a19.171,19.171,0,0,0-2.411-8.376,14.773,14.773,0,0,0-5.292-5.445,19.4,19.4,0,0,0-10.061-2.453c-.178,0-.361,0-.542.005h-6.384C211.085,3.356,143.288,3.327,96.738,3.327Z" transform="translate(5143 -4821)" fill="#828c8f"/>
    <path id="path8" d="M113.331,54.552c-8.341,12.5-18.724,10.832-23.68,10.917-4.87.083-51.556,0-51.556,0L65.8,10.553h47.862c4.031,0,14.1,3.8,13.435,11.084,0,0-.167,13.1-19.984,16.456C107.789,38.6,120.364,44.015,113.331,54.552Zm-35.1,1.889c7.053,0,12.427-6.17,12.511-10.79s-2.938-5.136-5.541-5.136H71.947L60.512,56.458ZM94.607,31.294c5.374,0,9.32-4.115,9.991-7.307S100.4,19.5,98.553,19.5H87.023L78.548,31.314Z" transform="translate(5123.565 -4814.928)" fill="#828c8f"/>
    <path id="polygon10" d="M109.873,16.455,95.6,56.928H70.072L94.591,16.455Z" transform="translate(5169.846 -4806.387)" fill="#828c8f"/>
    <path id="path12" d="M92.948,10.2c-3.725-.609-8.426,1.315-10.291,4.5s.318,7.188,4.045,7.8,8.678-1.063,10.541-4.253-.568-7.438-4.3-8.045Z" transform="translate(5187.079 -4815.599)" fill="#828c8f"/>
    <path id="path14" d="M85.219,12.632" transform="translate(5191.768 -4811.92)" fill="#828c8f"/>
    <path id="path16" d="M145.531,47.12c-3.861,5.543-13.266,10.917-21.327,10.917s-11.251-2.351-12.09-10.078,10.58-27.878,23.847-27.878,5.876,15.449,5.876,15.449h10.747l22.841-23.846H152.585l-2.855,4.87S145.027,10,132.6,10,91.26,15.831,88.769,45.1c-.671,7.892,4.7,22.67,27.876,22.67s33.756-12.09,35.77-14.778Z" transform="translate(5196.826 -4815.725)" fill="#828c8f"/>
  </g>
</svg>
