<svg xmlns="http://www.w3.org/2000/svg" width="240" height="71.503" viewBox="0 0 240 71.503">
  <path id="Boehringer_Inglheim" data-name="Boehringer Inglheim" d="M40.146,6.622A34.211,34.211,0,0,0,21.352,69.416V49.4H17.9V63.076a57.237,57.237,0,0,1-4.823-6.983A29.934,29.934,0,0,1,9.112,40.83a31.037,31.037,0,1,1,62.072,0,30.426,30.426,0,0,1-4.038,15.337,54.116,54.116,0,0,1-4.82,6.909V49.4H58.94V69.42a34.214,34.214,0,0,0-18.793-62.8Zm104.913,1.8-4.535.933v1.222l2.015.434V32.976l-2.089.43v1.445h7.272V33.339L146,32.976v-11.6a5.151,5.151,0,0,1,3.386-1.582c2.016,0,2.015,2.089,2.015,3.531v9.721l-1.726.359v1.445h7.2V33.344L155,32.98V21.674c0-2.594-1.44-4.464-4.323-4.464A7.608,7.608,0,0,0,146,19.3V8.426h-.937Zm31.037,0a2.3,2.3,0,1,0,2.375,2.3,2.319,2.319,0,0,0-2.375-2.3ZM96.314,9.86c-1.586,0-3.1.215-4.683.215h-4.39V11.59l2.449.43V32.976l-2.449.43v1.441h4.171c.866,0,4.752.07,5.546.07,2.02,0,5.4.076,7.346-3.234a6.426,6.426,0,0,0,.793-3.456,6.556,6.556,0,0,0-1.8-4.613,6.724,6.724,0,0,0-3.886-1.945c1.8-.792,4.32-2.448,4.32-5.905a6.287,6.287,0,0,0-1.511-3.956c-1.8-1.95-4.54-1.949-5.905-1.949Zm-.648,1.586c1.294,0,3.886.58,3.886,4.753,0,4.683-2.806,4.827-4.464,4.827h-1.8V11.879a6.376,6.376,0,0,1,2.375-.434Zm-55.52,2.593L29.7,22.174l1.875,2.453L40.146,18l8.573,6.628,1.867-2.453-10.44-8.136ZM115.4,16.847c-5.041,0-7.128,5.185-7.128,9.44,0,5.613,3.024,8.924,6.913,8.924,3.817,0,7.272-3.241,7.272-9.362,0-7.851-4.97-9-7.057-9Zm16.634.07c-5.187,0-6.553,5.547-6.553,9.577,0,5.187,2.232,8.717,6.48,8.717,3.311,0,4.755-1.37,6.194-4.175l-1.582-.652c-.72,1.152-1.73,2.3-3.245,2.3-3.527,0-4.1-4.029-4.245-6.913h9.143c-.07-4.245-.865-8.854-6.19-8.854Zm76.679,0a5.882,5.882,0,0,0-6.19,5.979,5.392,5.392,0,0,0,2.949,4.968c-1.876,1.152-3.308,2.374-3.308,3.742a2.444,2.444,0,0,0,2.015,2.3c-1.224.866-2.734,1.942-2.734,3.745,0,2.664,3.309,3.671,6.335,3.671,5.541,0,8.643-2.736,8.643-6.046,0-3.169-1.878-4.248-4.972-4.32l-4.608-.148c-.288,0-1.226-.213-1.226-.793,0-.432.649-1.006,1.3-1.511A10.387,10.387,0,0,0,209,28.8a5.845,5.845,0,0,0,5.976-5.835,5.78,5.78,0,0,0-1.293-3.531l2.878.078v-2.16l-4.1.141c-1.222,0-2.45-.574-3.745-.574Zm16.779,0c-5.185,0-6.55,5.545-6.55,9.577,0,5.187,2.23,8.713,6.48,8.713,3.309,0,4.751-1.372,6.19-4.175l-1.582-.652c-.718,1.154-1.728,2.3-3.242,2.3-3.531,0-4.1-4.034-4.249-6.909h9.147c-.072-4.245-.865-8.858-6.194-8.858Zm-38.022.141L183,18.218v1.441l2.089.215V32.981l-2.089.43v1.441h7.417V33.34l-1.8-.359V21.241a5.069,5.069,0,0,1,3.312-1.652c2.018,0,2.019,2.087,2.019,2.949V33.051l-1.875.359v1.441h7.272V33.34l-1.875-.359V21.674c0-2.81-1.436-4.538-4.386-4.538a7.232,7.232,0,0,0-4.613,2.093V17.062Zm51.917,0-4.39,1.148V19.37l2.089.363V32.981l-2.089.43v1.441h7.991V33.336l-2.519-.359V23.545a4.3,4.3,0,0,1,2.23-3.027l1.871,1.012a2.9,2.9,0,0,0,1.375-2.164,1.929,1.929,0,0,0-2.093-2.086c-1.51,0-2.3,1.155-3.456,3.1V17.066h-1.008Zm-75.386,0-4.39,1.148V19.37l2.086.363V32.981l-2.086.43v1.445H167.6V33.34l-2.519-.363V23.549a4.448,4.448,0,0,1,2.3-3.031l1.875,1.008c.5-.506,1.365-1.078,1.293-2.16a1.906,1.906,0,0,0-2.015-2.086c-1.51,0-2.375,1.157-3.527,3.1V17.07H164Zm13.322.141-4.535,1.148v1.222l1.871.437V32.981l-1.871.43v1.441h7.421V33.34l-2.019-.359V17.21h-.867Zm31.319,1.3c2.3,0,2.523,2.591,2.523,4.538,0,1.8-.293,4.031-2.382,4.031-2.23,0-2.519-2.374-2.519-4.32,0-1.8.145-4.249,2.378-4.249Zm-93.173.07c2.59,0,3.1,4.247,3.1,7.2,0,2.306-.285,7.636-3.382,7.636-2.016,0-3.1-2.81-3.1-7.061,0-2.012.141-7.772,3.382-7.772Zm16.634.07c2.162,0,2.383,3.238,2.453,5.4h-5.476c.216-2.164.719-5.4,3.023-5.4Zm93.458,0c2.162,0,2.377,3.246,2.449,5.4h-5.476c.22-2.156.719-5.4,3.027-5.4Zm-132.27,4.1H94.87c2.45,0,6.124.366,6.124,5.257a4.919,4.919,0,0,1-2.234,4.538,6.382,6.382,0,0,1-3.171.863,3.928,3.928,0,0,1-2.3-.57V22.752Zm-54.873,4.39V74.961c.578,0,1.15.074,1.73.074s1.154-.074,1.656-.074V27.142H38.415Zm-6.839,0v46.8a19.933,19.933,0,0,0,3.386.719V27.142H31.577Zm13.678,0v47.6c1.152-.216,2.378-.5,3.386-.793v-46.8H45.254Zm160.933,7.061a51.8,51.8,0,0,1,6.405.644c.72.142,1.226.5,1.226,1.726,0,1.584-2.305,2.808-5.257,2.808-2.16,0-3.745-.865-3.745-2.449a3.6,3.6,0,0,1,1.371-2.73ZM154.06,45.15l-4.535,1.008V47.38l2.015.219V69.776l-2.089.434V71.65h7.421V70.135L155,69.705V45.151h-.937Zm10.155,0-4.538,1.008V47.38l2.015.363V69.78l-2.086.43v1.441h7.342V70.144l-1.8-.434V58.184a5.254,5.254,0,0,1,3.386-1.656c2.088,0,2.015,2.089,2.015,3.531V69.85l-1.726.359v1.441h7.2V70.143l-1.875-.434V58.4c0-2.6-1.438-4.394-4.249-4.394a7.416,7.416,0,0,0-4.753,2.086V45.151h-.933Zm33.909,0a2.445,2.445,0,0,0-2.375,2.375,2.383,2.383,0,0,0,2.375,2.3,2.328,2.328,0,0,0,2.234-2.379,2.259,2.259,0,0,0-2.234-2.3ZM87.378,46.806v1.582l2.308.359V69.775l-2.3.434V71.65h8.206V70.135l-2.086-.43V48.748l2.16-.434V46.807H87.378ZM24.732,49.4V71.356a27.7,27.7,0,0,0,3.382,1.515V49.4H24.732Zm27.364,0v23.55c1.15-.5,2.309-1.01,3.46-1.59V49.4H52.1Zm71.867,4.32a5.965,5.965,0,0,0-5.815,3.8h0a6.33,6.33,0,0,0-.375,2.187,5.268,5.268,0,0,0,2.949,4.89c-1.868,1.154-3.238,2.448-3.238,3.816,0,1.154.791,1.878,2.015,2.3-1.3.794-2.8,1.944-2.8,3.745,0,2.668,3.311,3.671,6.335,3.671,5.547,0,8.643-2.735,8.643-6.12,0-3.094-1.872-4.107-4.968-4.249l-4.613-.215c-.29,0-1.222-.141-1.222-.723,0-.5.649-1.076,1.371-1.586a6.466,6.466,0,0,0,2.015.293,5.8,5.8,0,0,0,5.976-5.831,4.7,4.7,0,0,0-.519-2.183,10.124,10.124,0,0,0-.777-1.277l2.953.074V54.144l-4.175.145c-1.228,0-2.45-.574-3.745-.574Zm16.775,0c-5.185,0-6.55,5.549-6.55,9.581,0,5.187,2.228,8.71,6.476,8.71,3.313,0,4.756-1.366,6.2-4.171l-1.586-.652c-.72,1.15-1.73,2.3-3.242,2.3-3.529,0-4.107-4.033-4.249-6.913h9.143c-.068-4.247-.865-8.858-6.19-8.858Zm44.573,0c-5.183,0-6.553,5.549-6.553,9.581,0,5.187,2.234,8.71,6.483,8.71,3.309,0,4.752-1.366,6.194-4.171l-1.586-.652c-.72,1.15-1.732,2.3-3.242,2.3-3.527,0-4.107-4.033-4.249-6.913H191.5c-.068-4.247-.863-8.858-6.19-8.858Zm24.188.074-4.538,1.148V56.16l2.086.363V69.772l-2.086.434v1.441h7.269V70.135l-1.648-.43v-11.6a4.765,4.765,0,0,1,3.378-1.652c1.8,0,2.234,1.655,2.234,3.023v10.3l-2.015.434v1.441h7.2V70.134l-1.73-.43V58.179a4.873,4.873,0,0,1,3.39-1.726c1.944,0,2.086,2.015,2.086,2.953V69.771l-1.871.437V71.65h7.487V70.134l-2.019-.43V58.324h0c0-2.878-1.8-4.32-4.538-4.32a6.805,6.805,0,0,0-4.894,2.379,4.3,4.3,0,0,0-4.031-2.308,7.319,7.319,0,0,0-4.827,2.086V53.789H209.5Zm-106.711,0-4.464,1.148v1.445l2.089.285V69.783l-2.089.43v1.441h7.417V70.138l-1.875-.43V57.972c.186-.16.369-.313.559-.457a4.667,4.667,0,0,1,2.828-1.129,1.724,1.724,0,0,1,1.765,1.133,4.937,4.937,0,0,1,.254,1.816V69.849l-1.879.363v1.441h7.28V70.138l-1.875-.43V58.4a6.935,6.935,0,0,0-.055-.883c-.284-2.234-1.712-3.652-4.339-3.652-1.868,0-3.313,1.082-4.608,2.089v-2.16h-1.008Zm96.49.211-4.542,1.152v1.156l1.875.426V69.771l-1.875.437V71.65h7.346V70.134l-1.945-.43V54h-.859Zm-75.39,1.227c1.438,0,2.089,1.031,2.375,2.285h0a10.546,10.546,0,0,1,.215,2.324c0,1.726-.289,4.031-2.453,4.031-2.232,0-2.445-2.448-2.445-4.32a12.266,12.266,0,0,1,.133-2.039h0c.214-1.23.772-2.281,2.168-2.281Zm16.923.215c2.16,0,2.379,3.24,2.449,5.4h-5.476c.216-2.162.719-5.4,3.027-5.4Zm44.573,0c2.164,0,2.377,3.24,2.453,5.4h-5.476c.216-2.162.721-5.4,3.023-5.4ZM121.441,71a40.562,40.562,0,0,1,6.413.644c.72.142,1.293.5,1.293,1.726,0,1.586-2.3,2.808-5.257,2.808-2.158,0-3.745-.933-3.745-2.449a3.445,3.445,0,0,1,1.3-2.73Z" transform="translate(-5.941 -6.622)" fill="#828c8f"/>
</svg>
