<svg xmlns="http://www.w3.org/2000/svg" width="199.984" height="44.844" viewBox="0 0 199.984 44.844">
  <g id="Bradesco" transform="translate(-27.084 -0.272)">
    <path id="Caminho_19" data-name="Caminho 19" d="M54.512,29l-3.3,1.941a.19.19,0,0,0-.194.194v13.2a.19.19,0,0,0,.194.194H54.9a.835.835,0,0,0,.776-.776V29.387A.933.933,0,0,0,54.512,29Zm59.395-4.464a6.293,6.293,0,0,0-5.435,2.717c-.194-.971-.388-1.553-.582-2.523a7.278,7.278,0,0,0-2.135-.194,6.639,6.639,0,0,0-2.135.194v19.6a11.1,11.1,0,0,0,2.717.194,11.106,11.106,0,0,0,2.717-.194V34.822C109.054,30.94,111,29,113.713,29h1.747a7.974,7.974,0,0,0,0-4.27c-.389,0-1.165-.2-1.553-.2ZM49.077,9.783a43.678,43.678,0,0,0-8.54.776,15.823,15.823,0,0,1,12.81-6.211A16.569,16.569,0,0,1,63.635,8.036a.728.728,0,0,0,1.165,0,.728.728,0,0,0,0-1.165A19.023,19.023,0,0,0,50.436.272a18.165,18.165,0,0,0-16.693,11.84,37.523,37.523,0,0,0-6.211,2.523.739.739,0,1,0,.582,1.359c1.553-.388,3.3-.776,4.853-1.165v2.717A17.635,17.635,0,0,0,41.313,32.88q.873.582,1.165,0a.914.914,0,0,0-.194-1.165A15.415,15.415,0,0,1,37.237,20.07,13.8,13.8,0,0,1,38.6,13.859a50.9,50.9,0,0,1,5.629-.194c13.2,0,24.263,4.27,24.263,10.093,0,2.912-3.688,5.823-7.958,7.764-.971.388-1.165.776-.971,1.165a.864.864,0,0,0,1.165.388c7.57-2.523,13.393-6.6,13.393-11.452C73.728,14.829,62.858,9.783,49.077,9.783ZM91.585,24.34a11.7,11.7,0,0,0-4.076.776v-9.51a19.557,19.557,0,0,0-4.464,2.329,2.15,2.15,0,0,0-.971,1.941v23.68a20.76,20.76,0,0,0,6.988,1.165c6.988,0,11.064-4.27,11.064-10.481C100.32,28.222,97.408,24.34,91.585,24.34ZM89.644,40.45a6.6,6.6,0,0,1-1.941-.194V29.581A6.806,6.806,0,0,1,90.809,29c2.717,0,4.076,1.941,4.076,5.435-.194,3.492-1.747,6.016-5.241,6.016ZM49.465,31.91l-2.717,1.553a1.008,1.008,0,0,0-.388.776v9.9a.417.417,0,0,0,.388.388h2.717a.19.19,0,0,0,.194-.194Zm153.146,8.54c-2.717,0-4.464-2.135-4.464-5.823,0-3.494,1.359-5.823,4.464-5.823a7.613,7.613,0,0,1,3.494.776,11.3,11.3,0,0,1,1.941-3.688,13.131,13.131,0,0,0-6.017-1.359c-5.823,0-9.317,4.27-9.317,10.287,0,6.211,3.494,10.287,9.511,10.287a11.243,11.243,0,0,0,5.823-1.359,11.13,11.13,0,0,1-1.941-3.688,24,24,0,0,1-3.494.391Zm15.14-16.11c-6.017,0-9.317,4.076-9.317,10.287s3.494,10.093,9.317,10.093c6.017,0,9.317-4.076,9.317-10.093,0-6.211-3.3-10.287-9.317-10.287Zm0,16.11c-2.911,0-3.882-2.329-3.882-5.823,0-3.3.971-6.017,3.882-6.017,3.106,0,3.882,2.523,3.882,6.017,0,3.689-.971,5.824-3.882,5.824ZM123.806,24.34a28.211,28.211,0,0,0-5.823.582,7.966,7.966,0,0,0,0,4.27,16.873,16.873,0,0,1,4.853-.582q4.076,0,4.076,3.494v.2c-.776,0-1.747-.194-2.523-.194-4.658,0-8.54,1.553-8.54,6.017,0,5.047,3.494,6.6,8.735,6.6a24.376,24.376,0,0,0,7.376-1.165V32.3C132.152,27.058,129.241,24.534,123.806,24.34Zm3.3,16.11c-.388,0-1.553.194-2.329.194-2.523,0-3.882-.776-3.882-2.523s1.359-2.329,3.882-2.329a8.7,8.7,0,0,1,2.329.194Zm59.007-7.764-2.135-.971c-1.165-.582-1.941-.971-1.941-1.747,0-1.165,1.165-1.553,2.523-1.553a17.768,17.768,0,0,1,5.047.776,14.339,14.339,0,0,0,0-4.076c-1.359-.776-3.688-.971-5.823-.971-4.076,0-7.376,2.329-7.376,5.629,0,3.106,1.359,4.464,4.853,6.017l1.747.776c1.553.582,2.135.971,2.135,2.135,0,1.553-1.553,1.747-2.912,1.747a14.854,14.854,0,0,1-5.823-1.165,7.966,7.966,0,0,0,0,4.27c1.747.971,4.27,1.165,6.794,1.165,4.076,0,7.376-2.135,7.376-6.017,0-3.1-1.554-4.656-4.466-6.014ZM165.538,24.34c-5.823,0-9.317,3.882-9.317,10.287s3.688,10.093,10.093,10.093a13.857,13.857,0,0,0,6.017-1.165,7.279,7.279,0,0,0,0-4.076,18.917,18.917,0,0,1-5.435.971c-2.912,0-5.047-1.165-5.435-4.27H173.69a11.937,11.937,0,0,0,.194-2.717C173.884,27.64,170.584,24.34,165.538,24.34Zm-4.077,7.96c.388-2.329,1.747-3.882,3.882-3.882,2.329,0,3.3,1.553,3.494,3.882ZM147.68,20.07v4.658a15.226,15.226,0,0,0-2.717-.388c-5.823,0-9.9,3.882-9.9,10.287s3.882,10.093,10.093,10.093a26.293,26.293,0,0,0,7.958-1.165V15.606a19.557,19.557,0,0,0-4.464,2.329,3.539,3.539,0,0,0-.97,2.135Zm0,19.992a11.621,11.621,0,0,1-2.329.388c-3.494,0-4.853-2.329-4.853-5.629,0-3.688,1.359-6.017,4.853-6.017a7.239,7.239,0,0,1,2.329.388Z" fill="#828c8f"/>
  </g>
</svg>
