<svg xmlns="http://www.w3.org/2000/svg" width="240" height="107.25" viewBox="0 0 240 107.25">
  <g id="Cargil" transform="translate(-30.67 -144.108)">
    <g id="g4" transform="translate(72.183 187.696)">
      <path id="path6" d="M28.04,0C35.106,0,39.4,1.243,41.567,3.9a8.95,8.95,0,0,1,1.787,5.8,22.121,22.121,0,0,1-.51,4.537L38,37.626a39.26,39.26,0,0,0-1.064,7.764,11.569,11.569,0,0,0,.158,1.823H23.842c0-.144-.025-.283-.025-.431-.005-.97.069-1.994.154-3.055l.139-1.919h-.734l-.29.457c-2.378,3.823-7.778,6.188-12.405,6.188-3.835,0-6.583-.981-8.166-2.927-1.747-2.142-2.164-5.5-1.241-9.969,1.807-8.734,5.779-12.43,15.738-14.665.005,0,6.613-1.507,6.613-1.507,3.924-.867,5.814-2.6,6.515-5.979.382-1.856.176-3.291-.618-4.269a4.293,4.293,0,0,0-3.508-1.355c-3.541,0-5.426,1.829-6.593,6.382H7.6C10.775,1.882,21.692,0,28.04,0Zm-.147,24.085a2.711,2.711,0,0,1-.78.446c-.837.322-2.695.626-3.843.914a19.621,19.621,0,0,0-2.979.934c-2.888,1.224-4.377,3.226-5.143,6.908-.446,2.155-.185,3.916.765,5.083A3.742,3.742,0,0,0,18.937,39.7c5.165,0,6.784-4.94,7.553-8.663l1.44-6.954h-.037l-1.4,6.954Z" transform="translate(-0.797 0)" fill="#828c8f" fill-rule="evenodd"/>
    </g>
    <g id="g8" transform="translate(142.721 187.696)">
      <path id="path10" d="M4.2,43.083C1.4,39.651.855,34.252,2.785,24.634,7,3.7,14.954,0,21.879,0c3.292,0,8.25,1.219,8.833,7l.092.9h.962s1.125-5.434,1.371-6.647H46.01c-.468,2.255-9.56,45.964-9.56,45.964-2.27,10.98-9.321,16.45-22.255,16.45C2.212,63.663.434,56.6.165,54.409a23.708,23.708,0,0,1,.177-3.282H12.868v.01c.007,1.116.091,2.764.468,3.226a3,3,0,0,0,2.936,1.391c2.638,0,5.163-.761,6.4-6.716L24.8,38.724H23.772l-.284.485A13.938,13.938,0,0,1,11.107,45.9C8,45.9,5.742,44.981,4.2,43.083ZM16.982,23.617c-1.409,6.815-1.348,9.435.031,11.127a3.75,3.75,0,0,0,3.123,1.249c3.913,0,5.825-2.376,7.813-11.967,1.42-6.869,1.568-11.232.209-12.906A3.619,3.619,0,0,0,25.165,9.9C21.123,9.9,18.964,14.026,16.982,23.617Z" transform="translate(-0.143 0)" fill="#828c8f" fill-rule="evenodd"/>
    </g>
    <g id="g12" transform="translate(185.787 188.944)">
      <path id="path14" d="M23.445,0c-.458,2.218-9.2,44.5-9.509,45.964H0C.461,43.744,9.213,1.468,9.518,0Z" fill="#828c8f" fill-rule="evenodd"/>
    </g>
    <g id="g16" transform="translate(208.205 173.61)">
      <path id="path18" d="M26.621,0C26.155,2.255,14.25,59.8,13.938,61.3H0C.465,59.036,12.375,1.487,12.688,0Z" fill="#828c8f" fill-rule="evenodd"/>
    </g>
    <g id="g20" transform="translate(230.546 173.61)">
      <path id="path22" d="M26.625,0c-.472,2.255-12.38,59.8-12.694,61.3H0C.471,59.036,12.38,1.487,12.688,0Z" fill="#828c8f" fill-rule="evenodd"/>
    </g>
    <g id="g24" transform="translate(113.468 187.696)">
      <path id="path26" d="M35.3,0c-4.567,0-10,3.2-12.655,8.333l-.275.531H21.344s1.227-5.926,1.573-7.616H21.724V1.243H8.468a11.659,11.659,0,0,1,.158,1.831A29.383,29.383,0,0,1,8.056,8.3C5.472,20.778.346,45.526,0,47.212H13.943c.89-4.317,5.24-25.364,5.24-25.364,1.312-6.331,5.025-9.279,11.673-9.279a21.293,21.293,0,0,1,3.147.21c.31-1.493,2.258-10.9,2.644-12.779Z" fill="#828c8f" fill-rule="evenodd"/>
    </g>
    <g id="g28" transform="translate(30.67 173.333)">
      <path id="path30" d="M4.341,59.183C.859,54.91.705,47.054,3.811,32.06,8.769,8.09,15.94,0,32.223,0,38.728,0,43.3,1.552,45.79,4.612a12.522,12.522,0,0,1,2.45,8.064,29.69,29.69,0,0,1-.679,6.139s-.425,2.047-.665,3.205H33.174s1.017-6.542,1.008-7.985c-.009-1.624-.072-2.5-.693-3.322a3.687,3.687,0,0,0-3.1-1.527c-6.064,0-8.057,5.776-11.511,22.467C16.2,44.61,15.238,50.557,17.309,53.1a4.375,4.375,0,0,0,3.627,1.426c4.776,0,6.658-4.094,9.057-15.484H43.815c-.272,1.318-.725,3.5-.725,3.5C40.184,56.583,31.95,63.711,18.616,63.711,11.394,63.711,6.858,62.267,4.341,59.183Z" transform="translate(-1.599)" fill="#828c8f" fill-rule="evenodd"/>
    </g>
    <g id="g32" transform="translate(259.995 173.578)">
      <path id="path34" d="M.135,0H4.317L4.178.666H2.456L1.218,6.658H.479L1.718.666H0Z" fill="#828c8f" fill-rule="evenodd"/>
    </g>
    <g id="g36" transform="translate(263.734 173.578)">
      <path id="path38" d="M5.639,0h1.3L5.556,6.658H4.821L5.956,1.172c.057-.284.131-.559.173-.842H6.112c-.16.391-.273.638-.39.9L3.2,6.658H2.326L2.071,1.145C2.057.913,2.051.691,2.047.329H2.029c-.059.283-.1.576-.162.862L.736,6.658H0L1.377,0H2.683l.229,5.195a5.325,5.325,0,0,1-.063.985h.02c.116-.338.227-.667.373-.995Z" transform="translate(0 0)" fill="#828c8f" fill-rule="evenodd"/>
    </g>
    <g id="g40" transform="translate(106.888 144.108)">
      <path id="path42" d="M103.537,48.03C104.632,22.768,74.171,3.8,45.74,9.7,17.325,15.594,3.59,40.335,0,47.978H4.648C10.869,37.515,17.167,29.393,27.9,26.368c6.82-1.923,12.178-1.482,25.367,5.877,6.075,3.39,19.823,13.582,34.592,15.618C94.278,48.749,103.537,48.03,103.537,48.03Z" transform="translate(0 -8.617)" fill="#828c8f" fill-rule="evenodd"/>
    </g>
  </g>
</svg>
