<svg xmlns="http://www.w3.org/2000/svg" width="240" height="150.589" viewBox="0 0 240 150.589">
  <g id="Ciba" transform="translate(0 0)">
    <path id="Caminho_78" data-name="Caminho 78" d="M29.743,27.652c-1.06,1.79-1.953,3.285-2.846,5.089a13.1,13.1,0,0,0-6.579-1.8C14.2,30.937,8.51,35.876,8.51,43.783c0,6.892,4.944,13.159,11.958,13.159a11.9,11.9,0,0,0,7.617-2.383s2.1,3.281,3.158,4.916A24.025,24.025,0,0,1,19.43,62.466C6.271,62.316,0,51.858,0,43.779,0,36.9,4.921,25.7,19.425,25.559a28.4,28.4,0,0,1,10.318,2.093M47.968,61.713v-35.7h7.019V36.9a17.646,17.646,0,0,1-.145,2.846c1.953-2.7,5.687-4.028,8.528-4.028,6.271,0,11.5,5.229,11.5,12.991,0,5.691-4.191,13.453-11.808,13.6-1.183,0-5.229-.145-7.617-3.426-.29.888-1.038,1.785-1.35,2.823H47.968Zm13.3-21.668c-4.794,0-6.289,5.392-6.289,8.673,0,2.533,1.056,9.117,6.14,9.257,2.533.168,5.809-2.383,5.977-8.967.3-2.071-1.051-8.8-5.827-8.963M94.15,61.713c-.458-1.187-.893-1.5-1.5-3.131a9.085,9.085,0,0,1-7.617,3.734,7.658,7.658,0,0,1-7.644-7.622c0-7.177,7.182-8.365,10.775-9.42,1.636-.29,3.281-.585,4.921-.893,0-1.183-.893-4.336-5.066-4.336a10.933,10.933,0,0,0-6.289,2.547c-.893-1.2-1.785-2.383-2.678-3.589A18.593,18.593,0,0,1,89.2,35.872c9.864-.145,10.775,6.579,10.612,9.565V61.713ZM86.678,49.928a4.685,4.685,0,0,0-2.238,3.566,3.57,3.57,0,0,0,3.589,3.9c2.991,0,4.776-2.7,5.066-5.832a13.2,13.2,0,0,0,0-3.593,31.62,31.62,0,0,0-6.416,1.957M38.108,33.484a4.265,4.265,0,0,0,0-8.528,4.265,4.265,0,0,0,0,8.528m-3.444,3.426H41.7V61.718H34.664Z" transform="translate(0 88.124)" fill="#828c8f"/>
    <path id="Caminho_79" data-name="Caminho 79" d="M35.343,39.894a2.336,2.336,0,1,0,0-3.3,2.372,2.372,0,0,0,0,3.3M30.427,34.95a2.32,2.32,0,1,0,0-3.281,2.343,2.343,0,0,0,0,3.281m-4.49,4.486a1.556,1.556,0,0,0,2.388,0,1.689,1.689,0,0,0-2.388-2.388,1.55,1.55,0,0,0,0,2.388m-.453-19.285a2.714,2.714,0,0,0,3.3,0,2.343,2.343,0,0,0,0-3.281,2.328,2.328,0,0,0-3.3,3.281m4.481,5.4a3.217,3.217,0,0,0,4.2,0,3.213,3.213,0,0,0,0-4.191,3.217,3.217,0,0,0-4.2,0,3.222,3.222,0,0,0,0,4.191m-4.028,4.024a1.687,1.687,0,0,0,2.388-2.383,1.8,1.8,0,0,0-2.388,0,1.545,1.545,0,0,0,0,2.383m29.29,30.038a2.157,2.157,0,1,1,1.566.673,2.166,2.166,0,0,1-1.566-.673m4.939,4.939A2.216,2.216,0,1,1,63.3,61.417a2.216,2.216,0,1,1-3.136,3.131m-4.645,4.631a2.048,2.048,0,0,1,0-2.533,1.825,1.825,0,0,1,2.406,0,1.722,1.722,0,0,1,0,2.533,1.835,1.835,0,0,1-2.406,0m19.425.29a2.246,2.246,0,1,1,3.154,0,2.152,2.152,0,0,1-3.154,0m-5.379-4.481a2.728,2.728,0,1,1,2.025.9,2.732,2.732,0,0,1-2.025-.9m-4.173,4.191a2,2,0,0,1,0-2.533,1.8,1.8,0,0,1,2.388,0,1.713,1.713,0,0,1,0,2.533,1.811,1.811,0,0,1-2.388,0" transform="translate(87.639 57.205)" fill="#828c8f"/>
    <path id="Caminho_80" data-name="Caminho 80" d="M31.936,15.663a2.372,2.372,0,0,0,3.3,0,2.161,2.161,0,0,0,0-3.131,2.329,2.329,0,0,0-3.3,0,2.157,2.157,0,0,0,0,3.131M27.02,20.58a2.3,2.3,0,0,0,3.281,0,2.175,2.175,0,0,0,0-3.131,2.356,2.356,0,0,0-3.281,0,2.157,2.157,0,0,0,0,3.131m9.855,19.888a2.343,2.343,0,0,0,3.281,0,2.32,2.32,0,1,0-3.281-3.281,2.343,2.343,0,0,0,0,3.281m-4.939,4.944a2.336,2.336,0,1,0,0-3.3,2.379,2.379,0,0,0,0,3.3m4.939,4.916a2.343,2.343,0,0,0,3.281,0,2.311,2.311,0,0,0,0-3.281,2.32,2.32,0,1,0-3.281,3.281m5.374,4.486a1.689,1.689,0,0,0,2.388-2.388,1.689,1.689,0,1,0-2.388,2.388M31.5,25.981a2.891,2.891,0,0,0,4.173,0,2.985,2.985,0,0,0,0-4.051,3.185,3.185,0,0,0-4.173,0,2.976,2.976,0,0,0,0,4.051M26.558,30.9a2.886,2.886,0,0,0,4.2,0,2.994,2.994,0,0,0,0-4.028,3.172,3.172,0,0,0-4.2,0,3,3,0,0,0,0,4.028m64.72,44.084a2.166,2.166,0,0,1,0-3.131,2.343,2.343,0,0,1,3.281,0,2.465,2.465,0,0,1,0,3.131,2.334,2.334,0,0,1-3.281,0m-4.939,4.939a2.157,2.157,0,0,1,0-3.131,2.215,2.215,0,1,1,3.131,3.131,2.164,2.164,0,0,1-3.131,0m-19.715-9.86a2.184,2.184,0,0,1,0-3.154,2.161,2.161,0,0,1,3.127,0,2.184,2.184,0,0,1,0,3.154,2.152,2.152,0,0,1-3.127,0m-4.944,4.921a2.214,2.214,0,1,1,3.131-3.131,2.134,2.134,0,0,1,0,3.131,2.157,2.157,0,0,1-3.131,0m-4.921-4.921a2.224,2.224,0,1,1,3.136-3.154,2.2,2.2,0,0,1,0,3.154,2.161,2.161,0,0,1-3.136,0m-4.644-5.392a1.695,1.695,0,0,1,2.406-2.388,1.555,1.555,0,0,1,0,2.388,1.576,1.576,0,0,1-2.406,0m28.85,10.771a2.916,2.916,0,1,1,4.028,0,2.714,2.714,0,0,1-4.028,0m-4.944,4.921a2.728,2.728,0,1,1,2.025.9,2.732,2.732,0,0,1-2.025-.9" transform="translate(91.046 41.828)" fill="#828c8f"/>
    <path id="Caminho_81" data-name="Caminho 81" d="M25.5,22.944a1.556,1.556,0,0,0,2.388,0A1.689,1.689,0,0,0,25.5,20.556a1.55,1.55,0,0,0,0,2.388M49.418,9.037a2.956,2.956,0,0,0,4.028,0,3.145,3.145,0,0,0,0-4.173,2.956,2.956,0,0,0-4.028,0,2.859,2.859,0,0,0,0,4.173m-10.028,0a3.172,3.172,0,0,0,4.2,0,3.185,3.185,0,0,0,0-4.173,3.172,3.172,0,0,0-4.2,0,3.185,3.185,0,0,0,0,4.173m5.084,4.939a3.023,3.023,0,0,0,4.051,0,3.018,3.018,0,0,0,0-4.046,2.755,2.755,0,0,0-4.051,0,2.75,2.75,0,0,0,0,4.046m9.864,9.864a3.017,3.017,0,0,0,4.046,0,2.855,2.855,0,1,0-4.046,0m9.878,29.593a2.856,2.856,0,1,0,0-4.051,2.722,2.722,0,0,0,0,4.051M29.992,18.462a2.356,2.356,0,0,0,3.281,0,2.177,2.177,0,0,0,0-3.136,2.311,2.311,0,0,0-3.281,0,2.161,2.161,0,0,0,0,3.136M60.025,47.748a1.794,1.794,0,0,0,2.383,0,1.685,1.685,0,1,0-2.383-2.383,1.794,1.794,0,0,0,0,2.383m4.191-4.191a2.85,2.85,0,1,0,4.028-4.028,2.85,2.85,0,1,0-4.028,4.028M69.133,48.5a2.737,2.737,0,1,0-.884-2.014,2.719,2.719,0,0,0,.884,2.014M34.474,13.976a3.185,3.185,0,0,0,4.173,0,2.979,2.979,0,0,0,0-4.046,2.9,2.9,0,0,0-4.173,0,2.97,2.97,0,0,0,0,4.046m40.038,39a2.193,2.193,0,0,0,3.154,0,2.166,2.166,0,0,0,0-3.131,2.222,2.222,0,1,0-3.154,3.131M39.848,18.462a2.356,2.356,0,0,0,3.281,0,2.139,2.139,0,0,0,0-3.136,2.311,2.311,0,0,0-3.281,0,2.47,2.47,0,0,0,0,3.136m19.43,10.313a2.856,2.856,0,1,0,4.028-4.051,2.856,2.856,0,0,0-4.028,4.051m55.145,83.234a2,2,0,0,1,0-2.533,1.8,1.8,0,0,1,2.388,0,1.713,1.713,0,0,1,0,2.533,1.812,1.812,0,0,1-2.388,0m14.056-23.916a2.848,2.848,0,0,1,4.028-4.028,2.848,2.848,0,1,1-4.028,4.028m0,9.864a2.848,2.848,0,0,1,4.028-4.028,2.994,2.994,0,0,1,0,4.028,2.956,2.956,0,0,1-4.028,0m-4.944-4.921a2.855,2.855,0,0,1,4.028-4.046,2.855,2.855,0,1,1-4.028,4.046m-10-9.883a2.948,2.948,0,1,1,4.169,0,3.127,3.127,0,0,1-4.169,0M83.937,73.3a3.185,3.185,0,0,1,0-4.173,2.956,2.956,0,0,1,4.028,0,2.868,2.868,0,0,1,0,4.173,2.956,2.956,0,0,1-4.028,0m34.972,34.079a2.465,2.465,0,0,1,0-3.131,2.311,2.311,0,0,1,3.281,0,2.166,2.166,0,0,1,0,3.131,2.343,2.343,0,0,1-3.281,0M89.768,77.346a1.572,1.572,0,0,1,0-2.406,1.693,1.693,0,0,1,2.383,2.406,1.545,1.545,0,0,1-2.383,0M93.792,73.3a3.185,3.185,0,0,1,0-4.173,2.991,2.991,0,0,1,4.055,0,2.9,2.9,0,0,1,0,4.173,2.991,2.991,0,0,1-4.055,0m-4.916-4.921a3.172,3.172,0,0,1,0-4.191,2.994,2.994,0,0,1,4.028,0,2.882,2.882,0,0,1,0,4.191,2.994,2.994,0,0,1-4.028,0M123.535,102.9a2.856,2.856,0,0,1,4.028-4.051,2.976,2.976,0,0,1,0,4.051,2.722,2.722,0,0,1-4.028,0M84.394,62.982a2.3,2.3,0,0,1,0-3.281,2.164,2.164,0,0,1,3.131,0,2.356,2.356,0,0,1,0,3.281,2.464,2.464,0,0,1-3.131,0m34.514,34.537a2.5,2.5,0,0,1,0-3.154,2.343,2.343,0,0,1,3.281,0,2.19,2.19,0,0,1,0,3.154,2.334,2.334,0,0,1-3.281,0m-10.318-19.28a2.967,2.967,0,1,1,4.2,0,3.217,3.217,0,0,1-4.2,0" transform="translate(88.073 14.375)" fill="#828c8f"/>
    <path id="Caminho_82" data-name="Caminho 82" d="M43.357,29.717a1.794,1.794,0,0,0,2.383,0,1.685,1.685,0,0,0-2.383-2.383,1.794,1.794,0,0,0,0,2.383M37.978,44.974a2.328,2.328,0,1,0,0-3.3,2.356,2.356,0,0,0,0,3.3m.435-10.318a1.79,1.79,0,0,0,2.388,0,1.687,1.687,0,0,0-2.388-2.383,1.8,1.8,0,0,0,0,2.383m4.944,4.921a1.794,1.794,0,0,0,2.383,0,1.685,1.685,0,1,0-2.383-2.383,1.794,1.794,0,0,0,0,2.383m4.921,4.935a1.825,1.825,0,0,0,2.406,0,1.554,1.554,0,0,0,0-2.383,1.693,1.693,0,0,0-2.406,2.383m-4.921,4.944a1.545,1.545,0,0,0,2.383,0,1.572,1.572,0,0,0,0-2.406,1.693,1.693,0,0,0-2.383,2.406M33.039,20.142a2.3,2.3,0,0,0,3.281,0,2.134,2.134,0,0,0,0-3.131,2.356,2.356,0,0,0-3.281,0,2.166,2.166,0,0,0,0,3.131m5.374-5.225a1.8,1.8,0,0,0,2.388,0,1.55,1.55,0,0,0,0-2.388,1.549,1.549,0,0,0-2.388,0,1.811,1.811,0,0,0,0,2.388M27.665,35.549a2.957,2.957,0,1,0,4.173-4.191,2.957,2.957,0,0,0-4.173,4.191M37.978,25.086a2.343,2.343,0,0,0,3.281,0,2.164,2.164,0,0,0,0-3.131,2.344,2.344,0,0,0-3.281,0,2.464,2.464,0,0,0,0,3.131M33.039,30.17a2.678,2.678,0,0,0,3.281,0,2.328,2.328,0,1,0-3.281-3.3,2.37,2.37,0,0,0,0,3.3M73.1,59.315a1.55,1.55,0,0,1,0-2.388,1.687,1.687,0,1,1,2.383,2.388,1.545,1.545,0,0,1-2.383,0M57.843,64.689a2.216,2.216,0,1,1,3.131-3.136,2.139,2.139,0,0,1,0,3.136,2.166,2.166,0,0,1-3.131,0m10.313-.453a1.549,1.549,0,0,1,0-2.388,1.687,1.687,0,0,1,2.383,2.388,1.551,1.551,0,0,1-2.383,0m-4.935-4.921a1.55,1.55,0,0,1,0-2.388,1.695,1.695,0,1,1,2.406,2.388,1.569,1.569,0,0,1-2.406,0m-5.07-4.939a1.689,1.689,0,0,1,2.388-2.388,1.689,1.689,0,1,1-2.388,2.388m-4.935,4.939A1.687,1.687,0,1,1,55.6,56.927a1.687,1.687,0,0,1-2.383,2.388M82.5,69.628a2.222,2.222,0,0,1,3.131-3.154A2.222,2.222,0,1,1,82.5,69.628m5.374-5.392a1.549,1.549,0,0,1,0-2.388,1.831,1.831,0,0,1,2.411,0,1.853,1.853,0,0,1,0,2.388,1.58,1.58,0,0,1-2.411,0M67.263,75.007a2.723,2.723,0,1,1,2.014.89,2.728,2.728,0,0,1-2.014-.89M77.585,64.689a2.132,2.132,0,0,1,0-3.136,2.237,2.237,0,1,1,0,3.136m-4.944,4.939a2.2,2.2,0,0,1,0-3.154,2.17,2.17,0,0,1,3.136,0,2.2,2.2,0,0,1,0,3.154,2.161,2.161,0,0,1-3.136,0" transform="translate(94.882 42.265)" fill="#828c8f"/>
    <path id="Caminho_83" data-name="Caminho 83" d="M49.849,13.094a2.152,2.152,0,0,0,3.154,0,2.343,2.343,0,0,0,0-3.281,2.5,2.5,0,0,0-3.154,0,2.356,2.356,0,0,0,0,3.281M40.306,2.944a1.794,1.794,0,0,0,2.383,0,1.544,1.544,0,0,0,0-2.383,1.545,1.545,0,0,0-2.383,0,1.794,1.794,0,0,0,0,2.383m4.916,4.921a1.8,1.8,0,0,0,2.388,0,1.55,1.55,0,0,0,0-2.388,1.549,1.549,0,0,0-2.388,0,1.811,1.811,0,0,0,0,2.388m9.864,9.715a1.825,1.825,0,0,0,2.406,0,1.559,1.559,0,0,0,0-2.388,1.835,1.835,0,0,0-2.406,0,1.845,1.845,0,0,0,0,2.388m4.939,4.939a1.685,1.685,0,0,0,2.383-2.383,1.685,1.685,0,0,0-2.383,2.383M44.475,18.491a3.023,3.023,0,0,0,4.051,0,3.213,3.213,0,0,0,0-4.191,3.024,3.024,0,0,0-4.051,0,2.918,2.918,0,0,0,0,4.191m9.864,9.86a3.017,3.017,0,0,0,4.046,0,2.861,2.861,0,1,0-4.046,0M34.91,8.323a2.372,2.372,0,0,0,3.3,0,2.29,2.29,0,1,0-3.3,0m4.939,4.771a2.32,2.32,0,1,0,3.281-3.281,2.678,2.678,0,0,0-3.281,0,2.678,2.678,0,0,0,0,3.281M59.732,32.837A2.217,2.217,0,1,0,62.867,29.7a2.217,2.217,0,1,0-3.136,3.136M30.424,2.944a1.826,1.826,0,0,0,2.406,0,1.846,1.846,0,0,0,0-2.383,1.572,1.572,0,0,0-2.406,0,1.846,1.846,0,0,0,0,2.383M89.769,52.262a1.8,1.8,0,0,0,2.383,0,2.025,2.025,0,0,0,0-2.551,1.847,1.847,0,0,0-2.383,0,1.731,1.731,0,0,0,0,2.551m2.383-7.472a1.794,1.794,0,0,0,2.383,0,1.545,1.545,0,0,0,0-2.383,1.685,1.685,0,1,0-2.383,2.383m2.533-7.472a1.586,1.586,0,0,0,2.411,0,1.7,1.7,0,1,0-2.411-2.388,1.55,1.55,0,0,0,0,2.388M34.475,18.491a3.185,3.185,0,0,0,4.173,0,3.172,3.172,0,0,0,0-4.191,3.185,3.185,0,0,0-4.173,0,3.158,3.158,0,0,0,0,4.191m-4.481-5.4a2.3,2.3,0,0,0,3.281,0,2.356,2.356,0,0,0,0-3.281,2.678,2.678,0,0,0-3.281,0,2.334,2.334,0,0,0,0,3.281M69.6,52.557a2.161,2.161,0,1,0-.674-1.568,2.166,2.166,0,0,0,.674,1.568M25.5,7.865a1.8,1.8,0,0,0,2.388,0,1.8,1.8,0,0,0,0-2.388,1.55,1.55,0,0,0-2.388,0,1.55,1.55,0,0,0,0,2.388M74.821,57.183a1.791,1.791,0,1,0,0-2.533,2,2,0,0,0,0,2.533M84.4,67.351a2.214,2.214,0,1,0,0-3.131,2.121,2.121,0,0,0,0,3.131M25.5,27.463a1.556,1.556,0,0,0,2.388,0A1.695,1.695,0,1,0,25.5,25.057a1.57,1.57,0,0,0,0,2.406m4.49-4.49a2.343,2.343,0,0,0,3.281,0,2.374,2.374,0,0,0,0-3.3,2.326,2.326,0,1,0-3.281,3.3M64.653,37.753a2.215,2.215,0,1,0,3.131-3.131,2.214,2.214,0,1,0-3.131,3.131m5.229,4.486a1.74,1.74,0,0,0,2.551,0,1.853,1.853,0,0,0,0-2.388,2.025,2.025,0,0,0-2.551,0,1.81,1.81,0,0,0,0,2.388m-5.664,5.827a2.7,2.7,0,1,0-.9-2.014,2.687,2.687,0,0,0,.9,2.014M25.5,17.58a1.689,1.689,0,0,0,2.388-2.388,1.812,1.812,0,0,0-2.388,0,1.55,1.55,0,0,0,0,2.388M138.77,102.02a2.352,2.352,0,0,1,0-3.285,2.51,2.51,0,0,1,3.154,0,2.352,2.352,0,0,1,0,3.285,2.161,2.161,0,0,1-3.154,0m10.322,9.42a1.545,1.545,0,0,1,0-2.383,1.685,1.685,0,0,1,2.383,2.383,1.545,1.545,0,0,1-2.383,0M144,106.5a1.853,1.853,0,0,1,0-2.388,2.025,2.025,0,0,1,2.551,0,1.8,1.8,0,0,1,0,2.388,1.74,1.74,0,0,1-2.551,0m-9.86-9.86a1.689,1.689,0,0,1,2.388-2.388,1.689,1.689,0,1,1-2.388,2.388m-4.916-4.921a1.693,1.693,0,0,1,2.383-2.406,1.572,1.572,0,0,1,0,2.406,1.847,1.847,0,0,1-2.383,0m4.173,15.692a2.861,2.861,0,1,1,4.046,0,3.008,3.008,0,0,1-4.046,0m-9.864-9.883a2.855,2.855,0,0,1,0-4.169,2.947,2.947,0,0,1,4.028,0,3.127,3.127,0,0,1,0,4.169,2.938,2.938,0,0,1-4.028,0m20.178,19.285a2.214,2.214,0,1,1,3.131,0,2.166,2.166,0,0,1-3.131,0m-4.944-4.921a2.184,2.184,0,1,1,1.577.673,2.19,2.19,0,0,1-1.577-.673M118.91,92.155a2.678,2.678,0,0,1,0-3.281,2.32,2.32,0,1,1,0,3.281M149.092,121.3a1.55,1.55,0,0,1,0-2.388,1.687,1.687,0,1,1,2.383,2.388,1.545,1.545,0,0,1-2.383,0M99.629,62.122a1.688,1.688,0,1,1,2.383-2.383,1.685,1.685,0,1,1-2.383,2.383m7.322-2.533a1.695,1.695,0,1,1,2.388-2.406,1.572,1.572,0,0,1,0,2.406,1.853,1.853,0,0,1-2.388,0m7.472-2.406a2,2,0,0,1,0-2.533,1.794,1.794,0,0,1,2.388,0,2.012,2.012,0,0,1,0,2.533,1.8,1.8,0,0,1-2.388,0M133.4,117.272a2.863,2.863,0,1,1,4.046,0,2.748,2.748,0,0,1-4.046,0m5.37,4.481a2.246,2.246,0,1,1,3.154,0,2.193,2.193,0,0,1-3.154,0M99.167,82.3a2.328,2.328,0,1,1,3.3,0,2.356,2.356,0,0,1-3.3,0M144,126.384a2.062,2.062,0,0,1,0-2.533,2.025,2.025,0,0,1,2.551,0,2,2,0,0,1,0,2.533,2.039,2.039,0,0,1-2.551,0M94.686,76.921a1.545,1.545,0,0,1,0-2.383,1.577,1.577,0,0,1,2.411,0,1.695,1.695,0,0,1-2.411,2.383m29.6,49.463a2,2,0,0,1,0-2.533,1.8,1.8,0,0,1,2.388,0,1.722,1.722,0,0,1,0,2.533,1.811,1.811,0,0,1-2.388,0m4.631-4.631a2.175,2.175,0,0,1,0-3.131,2.216,2.216,0,1,1,3.136,3.131,2.17,2.17,0,0,1-3.136,0M113.971,87.239a2.336,2.336,0,1,1,3.3,0,2.372,2.372,0,0,1-3.3,0m-4.481-5.4a1.794,1.794,0,0,1,0-2.383,1.685,1.685,0,0,1,2.383,2.383,1.807,1.807,0,0,1-2.383,0m-5.836,5.832a2.957,2.957,0,1,1,4.191,0,3.185,3.185,0,0,1-4.191,0m30.491,38.71a2,2,0,0,1,0-2.533,1.8,1.8,0,0,1,2.388,0,1.713,1.713,0,0,1,0,2.533,1.81,1.81,0,0,1-2.388,0" transform="translate(88.072 0)" fill="#828c8f"/>
    <path id="Caminho_84" data-name="Caminho 84" d="M60.805,55.729a3,3,0,0,0,4.028,0,2.891,2.891,0,0,0,0-4.191,3,3,0,0,0-4.028,0,2.882,2.882,0,0,0,0,4.191M26.581,20.607a2.343,2.343,0,0,0,3.281,0,2.175,2.175,0,0,0,0-3.131,2.343,2.343,0,0,0-3.281,0,2.157,2.157,0,0,0,0,3.131M31.5,25.551a2.37,2.37,0,0,0,3.3,0,2.193,2.193,0,0,0,0-3.154,2.37,2.37,0,0,0-3.3,0,2.184,2.184,0,0,0,0,3.154m4.939,4.921a2.356,2.356,0,0,0,3.281,0,2.139,2.139,0,0,0,0-3.136,2.356,2.356,0,0,0-3.281,0,2.17,2.17,0,0,0,0,3.136M56.319,60.21a2.17,2.17,0,0,0,3.136,0,2.356,2.356,0,0,0,0-3.281,2.139,2.139,0,0,0-3.136,0,2.311,2.311,0,0,0,0,3.281M46.006,11.187a2.956,2.956,0,0,0,4.028,0,2.956,2.956,0,0,0,0-4.028,2.7,2.7,0,0,0-4.028,0,2.7,2.7,0,0,0,0,4.028M56.319,70.07a2.17,2.17,0,0,0,3.136,0,2.356,2.356,0,0,0,0-3.281,2.175,2.175,0,0,0-3.136,0,2.311,2.311,0,0,0,0,3.281m-4.645,4.486a1.576,1.576,0,0,0,2.406,0,1.556,1.556,0,0,0,0-2.388,1.695,1.695,0,0,0-2.406,2.388M46.754,79.5a1.687,1.687,0,1,0,2.383-2.388A1.687,1.687,0,0,0,46.754,79.5M41.81,84.416A1.689,1.689,0,0,0,44.2,82.028a1.689,1.689,0,1,0-2.388,2.388M65.721,60.668a3.025,3.025,0,0,0,4.051,0,2.918,2.918,0,0,0,0-4.191,3.027,3.027,0,0,0-4.051,0,2.927,2.927,0,0,0,0,4.191m-4.916,4.921a2.959,2.959,0,0,0,4.028,0,2.868,2.868,0,0,0,0-4.173,2.959,2.959,0,0,0-4.028,0,2.859,2.859,0,0,0,0,4.173m4.916-14.944a2.856,2.856,0,1,0,4.051-4.028,2.991,2.991,0,0,0-4.051,0,2.736,2.736,0,0,0,0,4.028M31.5,15.668a2.338,2.338,0,0,0,3.3,0,2.165,2.165,0,0,0,0-3.131,2.372,2.372,0,0,0-3.3,0,2.157,2.157,0,0,0,0,3.131m5.4,4.486a1.554,1.554,0,0,0,2.383,0,1.549,1.549,0,0,0,0-2.388,1.687,1.687,0,0,0-2.383,2.388m4.916,5.08a1.79,1.79,0,0,0,2.388,0,1.713,1.713,0,0,0,0-2.533,1.8,1.8,0,0,0-2.388,0,2.012,2.012,0,0,0,0,2.533m28.85,30.5a3,3,0,0,0,4.028,0,2.873,2.873,0,0,0,0-4.191,3,3,0,0,0-4.028,0,2.9,2.9,0,0,0,0,4.191M41.375,15.668a2.311,2.311,0,0,0,3.281,0,2.165,2.165,0,0,0,0-3.131,2.344,2.344,0,0,0-3.281,0,2.465,2.465,0,0,0,0,3.131m5.061,4.939a2.19,2.19,0,0,0,3.154,0,2.166,2.166,0,0,0,0-3.131,2.222,2.222,0,1,0-3.154,3.131m4.944,4.944a2.166,2.166,0,0,0,3.131,0,2.193,2.193,0,0,0,0-3.154,2.166,2.166,0,0,0-3.131,0,2.193,2.193,0,0,0,0,3.154m4.939,4.921a2.235,2.235,0,1,0,0-3.136,2.139,2.139,0,0,0,0,3.136M70.66,65.589a2.868,2.868,0,0,1,0-4.173,2.959,2.959,0,0,1,4.028,0,2.855,2.855,0,0,1,0,4.173,2.959,2.959,0,0,1-4.028,0m34.977,34.079a2.134,2.134,0,0,1,0-3.131,2.311,2.311,0,0,1,3.281,0,2.166,2.166,0,0,1,0,3.131,2.343,2.343,0,0,1-3.281,0M100.7,94.729a2.166,2.166,0,0,1,0-3.131,2.343,2.343,0,0,1,3.281,0,2.134,2.134,0,0,1,0,3.131,2.334,2.334,0,0,1-3.281,0m-4.944-4.921a2.2,2.2,0,0,1,0-3.154,2.37,2.37,0,0,1,3.3,0,2.5,2.5,0,0,1,0,3.154,2.365,2.365,0,0,1-3.3,0M66.184,70.07a2.334,2.334,0,0,1,0-3.281,2.166,2.166,0,0,1,3.127,0,2.334,2.334,0,0,1,0,3.281,2.161,2.161,0,0,1-3.127,0m49,10.313a2.856,2.856,0,0,1,4.051-4.028,2.856,2.856,0,1,1-4.051,4.028m-39.6-19.715a2.918,2.918,0,0,1,0-4.191,3.027,3.027,0,0,1,4.051,0,2.918,2.918,0,0,1,0,4.191,3.027,3.027,0,0,1-4.051,0m34.977,34.061a2.166,2.166,0,0,1,0-3.131,2.37,2.37,0,0,1,3.3,0,2.175,2.175,0,0,1,0,3.131,2.365,2.365,0,0,1-3.3,0m-4.481-5.374a1.685,1.685,0,1,1,2.383,0,1.545,1.545,0,0,1-2.383,0m-4.921-4.939a1.549,1.549,0,0,1,0-2.388,1.687,1.687,0,0,1,2.383,2.388,1.554,1.554,0,0,1-2.383,0m9.4.453a2.169,2.169,0,0,1,0-3.136,2.379,2.379,0,0,1,3.3,0,2.177,2.177,0,0,1,0,3.136,2.37,2.37,0,0,1-3.3,0m-4.921-4.935a2.315,2.315,0,0,1,0-3.285,2.692,2.692,0,0,1,3.281,0,2.352,2.352,0,0,1,0,3.285,2.311,2.311,0,0,1-3.281,0M100.7,75.014a2.37,2.37,0,0,1,0-3.3,2.328,2.328,0,1,1,0,3.3M95.754,70.07a2.328,2.328,0,1,1,3.3,0,2.356,2.356,0,0,1-3.3,0M75.581,50.645a2.856,2.856,0,1,0,4.051-4.028,2.985,2.985,0,0,0-4.051,0,2.729,2.729,0,0,0,0,4.028" transform="translate(91.485 22.085)" fill="#828c8f"/>
  </g>
</svg>
