<svg xmlns="http://www.w3.org/2000/svg" width="240" height="97.766" viewBox="0 0 240 97.766">
  <path id="CNI" d="M250.1,17.6V14.987h20.6V.6H30.7V14.987H51.3V17.6H30.7V31.336H51.3v2.616H30.7V48.338H51.3v2.616H30.7V65.341H51.3v2.616H30.7V81.69H51.3v2.616H30.7v14.06h240V84.306H250.1V81.69h20.6V67.957H250.1V65.341h20.6V50.954H250.1V48.338h20.6V33.951H250.1V31.336h20.6V17.6ZM97.73,27.085c-11.117,0-15.695,13.079-17.984,23.215-1.962,10.136-2.616,21.907,8.5,21.907,8.174,0,13.406-3.6,15.368-10.136h20.272c-3.27,17.33-21.58,23.542-38.256,23.542-21.58,0-30.409-13.079-25.5-36.294S79.419,13.679,101,13.352c13.733,0,26.812,3.924,28.774,15.041a17.748,17.748,0,0,1,0,5.886c0,.654-.327,1.308-.327,2.289H109.174c.327-5.886-3.6-9.482-11.444-9.482m72.262,57.221-12.1-52.97h-.327l-11.117,52.97H129.12l.327-.981,14.387-68.338h26.812l12.1,51.662.327-.327,10.79-51.335h17.33l-.981,5.232L196.477,84.306H169.992Zm58.2,0H209.229l.981-5.232,13.733-64.087h19.292L228.193,84.306Z" transform="translate(-30.7 -0.6)" fill="#828c8f"/>
</svg>
