<svg xmlns="http://www.w3.org/2000/svg" width="240" height="58.467" viewBox="0 0 240 58.467">
  <g id="CVRD" transform="translate(0 137.855)">
    <g id="g12" transform="translate(0 -137.855)">
      <path id="path14" d="M0-137.641v58.377H58.376v-29.2L29.365-79.311.22-108.458,29.365-137.6l29.011,29.133v-29.174H0" transform="translate(0 137.732)" fill="#828c8f"/>
      <path id="path16" d="M142.074-79.43h13.969v-58.425H142.074Z" transform="translate(-81.817 137.855)" fill="#828c8f"/>
      <path id="path18" d="M183.229-79.43h7.389v-58.425h-7.389Z" transform="translate(-105.517 137.855)" fill="#828c8f"/>
      <path id="path20" d="M216.818-79.43h3.752v-58.425h-3.752Z" transform="translate(-124.86 137.855)" fill="#828c8f"/>
      <path id="path22" d="M252.783-79.43h1.845v-58.425h-1.845V-79.43Z" transform="translate(-145.572 137.855)" fill="#828c8f"/>
      <path id="path24" d="M326.991-93.093a6.154,6.154,0,0,0-6.218-4.983c-5.621,0-7.737,4.789-7.737,9.771,0,4.742,2.116,9.531,7.737,9.531,3.83,0,5.985-2.634,6.463-6.382h6.057c-.634,7.1-5.542,11.643-12.52,11.643-8.813,0-14-6.577-14-14.792,0-8.45,5.185-15.031,14-15.031,6.26,0,11.525,3.665,12.285,10.242h-6.067" transform="translate(-176.665 117.976)" fill="#828c8f"/>
      <path id="path26" d="M388.427-73.276h-7.055l-9.255-28.472h6.463l6.335,20.021H385l6.416-20.021h6.456l-9.445,28.472" transform="translate(-214.294 117.061)" fill="#828c8f"/>
      <path id="path28" d="M444.843-88.865H451.7c2.8,0,4.311-1.2,4.311-4.071,0-2.748-1.512-3.946-4.311-3.946h-6.855Zm-6.261-12.882h15.349c5.106,0,8.338,3.553,8.338,7.859,0,3.346-1.36,5.862-4.5,7.134v.079c3.069.8,3.935,3.79,4.14,6.661.12,1.8.081,5.146,1.2,6.739h-6.26c-.755-1.791-.672-4.543-1-6.823-.44-2.985-1.6-4.3-4.746-4.3h-6.263v11.128h-6.261v-28.472" transform="translate(-252.569 117.061)" fill="#828c8f"/>
      <path id="path30" d="M512.717-78.543h5.589c3.621,0,7.095-2.23,7.095-8.532,0-5.739-1.99-9.409-8.212-9.409h-4.472v17.941Zm-6.26-23.2h12.285c7.378,0,12.914,4.629,12.914,14.078,0,8.257-4.227,14.393-12.914,14.393H506.457v-28.472" transform="translate(-291.657 117.061)" fill="#828c8f"/>
    </g>
  </g>
</svg>
