<svg xmlns="http://www.w3.org/2000/svg" width="240" height="39.156" viewBox="0 0 240 39.156">
  <g id="ELEKTRO" transform="translate(-4064.411 4566.8)">
    <path id="Caminho_50" data-name="Caminho 50" d="M291.875,71.04c2.886-.877,7.924-3.361,7.924-10.045,0-5.211-4.145-10.479-12.072-10.479h-16.92V88.607h7.84V55.693h6.179c5.948,0,6.832,3.545,6.832,5.654,0,3.516-2.527,5.717-6.6,5.717-2.639.006-4.147,1.036-4.147,2.778,0,.977.614,2.245,3.521,2.691,3.588.56,5.038,4.067,6.877,8.5,0,0,1.588,3.751,2.137,4.96s1.036,2.615,3.752,2.615h6.109l-2.7-5.813c-2.7-5.979-4.855-9.5-8.738-11.754" transform="translate(3960.057 -4616.787)" fill="#828c8f"/>
    <path id="Caminho_51" data-name="Caminho 51" d="M196.6,71.536h18.37V66.355H196.6V55.7h19.26V50.521h-27.1V88.609h27.509V83.427H196.6Z" transform="translate(3940.164 -4616.786)" fill="#828c8f"/>
    <path id="Caminho_52" data-name="Caminho 52" d="M317.618,50.091c-14.086,0-20.382,9.83-20.382,19.577s6.3,19.579,20.382,19.579c13.964,0,20.328-10.147,20.328-19.579,0-9.747-6.287-19.577-20.328-19.577m0,32.97c-7.785,0-12.252-4.883-12.252-13.392s4.467-13.392,12.252-13.392c7.752,0,12.191,4.884,12.191,13.392s-4.439,13.392-12.191,13.392" transform="translate(3966.464 -4616.891)" fill="#828c8f"/>
    <path id="Caminho_53" data-name="Caminho 53" d="M171.862,83.432V50.5H164V88.608h24l.009-5.176Z" transform="translate(3934.162 -4616.792)" fill="#828c8f"/>
    <path id="Caminho_54" data-name="Caminho 54" d="M144.649,71.549h18.322V66.383H144.649V55.749h19.2V50.585H136.835v38h27.428V83.416H144.649Z" transform="translate(3927.575 -4616.771)" fill="#828c8f"/>
    <path id="Caminho_55" data-name="Caminho 55" d="M237.341,87.311a3.517,3.517,0,0,0,3.087,1.341h7.726c-2.095-2.609-16.239-20.211-16.239-20.211s10.319-15.385,11.97-17.855h-8.409c-.446.663-9.327,13.878-11.622,17.285V50.585h-7.83V88.651h7.83V70.787c3.415,4.186,13.487,16.523,13.487,16.523" transform="translate(3946.775 -4616.771)" fill="#828c8f"/>
    <path id="Caminho_56" data-name="Caminho 56" d="M272.817,50.576v5.182h-11.56v32.89h-7.834V55.759H241.858V50.576Z" transform="translate(3953.038 -4616.773)" fill="#828c8f"/>
  </g>
</svg>
