<svg xmlns="http://www.w3.org/2000/svg" width="199.994" height="50.8" viewBox="0 0 199.994 50.8">
  <g id="Embratel" transform="translate(-0.005 0)">
    <path id="Caminho_20" data-name="Caminho 20" d="M82.819,29.668c-1.375-1.712-3.739-2.618-6.836-2.618a16,16,0,0,0-9.273,2.57c-1.523-1.723-4.084-2.57-7.839-2.57A28.058,28.058,0,0,0,47.65,29.031l-.13.052L41.9,54.5h8.2l4.8-21.677a8.631,8.631,0,0,1,2.971-.434,3.387,3.387,0,0,1,2.738.972,2.521,2.521,0,0,1,.348,2.182L56.754,54.5h8.2l4.634-20.944a5.208,5.208,0,0,1,3.377-1.168,2.954,2.954,0,0,1,2.421.879,2.764,2.764,0,0,1,.347,2.373L71.557,54.5h8.2L83.9,35.759a7.006,7.006,0,0,0-1.082-6.092Zm45.47-1.893a30.581,30.581,0,0,0-14.935,1.78L107.733,54.5h8.193l4.74-21.412a7.915,7.915,0,0,1,4.726.179l.239.111ZM107.494,30.02a8.007,8.007,0,0,0-6.517-2.823,12.4,12.4,0,0,0-4.752.825c.2-.9,2.959-13.291,2.959-13.291l-8.436,1.1-5.98,26.921L82.532,52.874l.139.1c1.743,1.3,5.04,2.016,9.284,2.016,8.736,0,14.93-5.348,16.991-14.672.95-4.291.434-7.949-1.452-10.3Zm-6.729,10.674c-1.342,6.075-3.815,9.153-7.349,9.153a5.878,5.878,0,0,1-1.956-.3c.137-.62,3.65-16.47,3.75-16.942a6.012,6.012,0,0,1,2.645-.514,3.19,3.19,0,0,1,2.666,1.058c1.01,1.257,1.089,3.724.244,7.541Zm61.427-12.961,1.7-7.681-.358.027a24.391,24.391,0,0,0-8.139,1.845l-.125.054L153.8,28.529c-.9.136-1.617.247-2.417.4l-.151.037-1.487,5.025s1.87-.174,2.925-.264c-.476,2.152-2.919,13.193-2.923,13.217,0,0-.025.107-.025.124h0a9.647,9.647,0,0,0-.21,1.952,5.782,5.782,0,0,0,1.209,3.742c1.151,1.412,3.015,2.128,5.543,2.128a11.1,11.1,0,0,0,4.037-.755l.129-.054,1.064-4.8.068-.338-2.193.079a1.563,1.563,0,0,1-1.267-.4,1.368,1.368,0,0,1-.226-.867,6.207,6.207,0,0,1,.176-1.308l2.935-13.3c.162-.006,1.226-.063,2.228-.1.967-.031,1.878-.036,1.878-.036l1.14-5.155.076-.341s-3.527.183-4.113.21ZM194.177,22.7l-7.038,31.8h8.2s7.59-34.3,7.737-34.974a77.667,77.667,0,0,1-8.894,3.174Zm-47.463,7.012c-1.419-1.766-3.958-2.662-7.547-2.662a28.1,28.1,0,0,0-7.441,1.022l-.145.039-1.653,5.695.5-.185a19.031,19.031,0,0,1,6.268-1.28c1.729,0,2.822.314,3.341.963a1.964,1.964,0,0,1,.394,1.277,4.417,4.417,0,0,1-.118.963s-.172.767-.231,1.037c-7.06.658-15.285,2.386-16.914,9.75a9.864,9.864,0,0,0-.252,2.131,5.626,5.626,0,0,0,1.177,3.633c1.544,1.922,4.591,2.9,9.062,2.9a26.327,26.327,0,0,0,10.893-2l.117-.056,3.521-15.912c.7-3.182.375-5.645-.972-7.323Zm-15.8,16.44c.864-3.906,3.8-5.029,8.267-5.487-.147.66-1.956,8.837-2.014,9.1a7.176,7.176,0,0,1-2.685.472,3.963,3.963,0,0,1-3.208-1.071,2.665,2.665,0,0,1-.517-1.715,6.085,6.085,0,0,1,.154-1.3ZM187.1,30.027c-1.529-1.975-4.026-2.977-7.422-2.977-7.6,0-13.274,5.174-15.189,13.84a19.593,19.593,0,0,0-.5,4.226,10.149,10.149,0,0,0,2,6.5c1.772,2.209,4.7,3.374,8.454,3.374a25.3,25.3,0,0,0,8.193-1.23l.142-.049,1.345-6.14-.574.24a17.056,17.056,0,0,1-7.062,1.4,4.977,4.977,0,0,1-3.846-1.271,4.685,4.685,0,0,1-1.02-3.3c0-.226.014-.47.03-.716,2.606-.24,5.6-.586,8.484-1.1a40.051,40.051,0,0,0,8.1-2.2l.046-.173a14.526,14.526,0,0,0,.524-4.6,9.3,9.3,0,0,0-1.707-5.833ZM178.387,32.1a2.743,2.743,0,0,1,2.294.909,4.045,4.045,0,0,1,.687,2.561,13.555,13.555,0,0,1-.338,2.765,67.646,67.646,0,0,1-8.954,1.316C173.012,34.853,175.292,32.1,178.387,32.1Z" transform="translate(-11.971 -4.208)" fill="#828c8f"/>
    <path id="Caminho_21" data-name="Caminho 21" d="M169.056,1.108C131.577,3.99,112.7,7.432,86.225,12.664c.246-.049.491-.08.739-.12A784.393,784.393,0,0,1,166.519,4.1C221.03,1.295,230.6,8.614,201.247,18.653a.023.023,0,0,1,.008.007c1.908-.569,7.506-2.235,9.238-2.807,27.051-9.468,16.384-19.186-41.438-14.745Z" transform="translate(-24.636)" fill="#828c8f"/>
    <path id="Caminho_22" data-name="Caminho 22" d="M22.9,28.548c.4-1.959.784-3.81.821-3.995H34.849a1.477,1.477,0,0,0,.977-.269h.045l.015-.07-1.053-.3L36,18.2H16.172l-2.9,14.044c2.64-1.185,5.837-2.424,9.626-3.7Zm-2.273,11h9.014l1.284-6.191H21.911l.552-2.691c-2,.772-3.491,1.353-4.95,1.974s-3.444,1.512-4.785,2.223L8.486,55.445H29.922l1.492-7.088H18.808l1.819-8.812Z" transform="translate(-2.425 -5.2)" fill="#828c8f"/>
    <path id="Caminho_23" data-name="Caminho 23" d="M21.2,22.547c-24.386,7.911-26,14.644-13.6,15.04L7.1,37.5h.007c-3.6-.339-5.017-1.15-5.179-2.56-.432-3.767,9.487-9.158,34.634-16.125,5.8-1.608,12.24-2.9,19.008-4.254a.2.2,0,0,0-.047.009l.318-.068c.106-.019.209-.041.314-.062a240.112,240.112,0,0,0-34.962,8.1ZM97.326,8c-10.6,1.382-20.781,2.94-30.294,4.6,23.114-3.532,49.943-6.4,74.851-7.7,54.488-2.807,64.067,4.5,34.768,14.538,13.27-4.027,21.021-7.956,20.613-11.08C196.316,1.089,151.573.93,97.326,8Z" transform="translate(0 -0.8)" fill="#828c8f"/>
    <path id="Caminho_24" data-name="Caminho 24" d="M23.5,28.423a253.366,253.366,0,0,1,32.706-9.152C49.44,20.625,43,21.917,37.2,23.524,12.053,30.491,1.5,36.146,2.26,39.652c.3,1.388,1.89,2.218,5.485,2.557-3.1-.538-4.22-.9-4.264-2.316-.071-2.44,6.333-6.567,20.02-11.47Z" transform="translate(-0.635 -5.506)" fill="#828c8f"/>
  </g>
</svg>
