<svg xmlns="http://www.w3.org/2000/svg" width="200" height="49.975" viewBox="0 0 200 49.975">
  <g id="Embraer" transform="translate(-143.695 -1297.182)">
    <path id="Caminho_10" data-name="Caminho 10" d="M77.315,74.729H69.749V88.716h4.269V78.131h.452l5.17,10.585h3.818l4.963-10.585h.625V88.716h3.993V74.729H85.646l-4.235,8.953-4.1-8.953Zm29.571,10.585H99.181V83.093h7.705c.37,0,.764.584.764,1.141s-.393,1.08-.764,1.08Zm4.859-7.184c-.069-2.256-1.457-3.4-4.163-3.4h-12.5V88.716h12.946c2.624-.31,4-.778,4.06-3.888a3.05,3.05,0,0,0-2.151-3.227c1.608-.971,1.808-1.445,1.808-3.47Zm-4.859-.014c.373,0,.7.59.671,1.145-.019.489-.343.95-.671.95H99.181v-2.08l7.705-.014Zm30.3,4.977,2.5-4.963h1.076l2.569,4.963Zm27.938-4.963v-3.4H150.376V88.265l-6.942-13.536h-6.319L130,88.472v-2.36c0-1.921-.887-2.488-1.771-2.776.923-.484,2.014-.985,2.014-4.443,0-2.363-.714-4.164-3.3-4.164H113.411V88.716h4.1v-3.4h7.774c.348,0,.555.348.694.971v2.431h8.365l1.214-2.431h9.372l1.353,2.431h18.846v-3.4H154.437V83.093h10.689V80.212H154.437V78.131ZM124.76,81.67h-7.252V78.13h7.114a1.758,1.758,0,0,1,1.637,1.977,1.488,1.488,0,0,1-1.5,1.564Zm59.121,7.045v-2.6c0-1.921-.887-2.488-1.769-2.776.921-.484,2.013-.985,2.013-4.443,0-2.363-.711-4.164-3.3-4.164H167.294V88.716h4.1v-3.4h7.774c.348,0,.555.348.694.971v2.431h4.025ZM178.64,81.67h-7.252V78.13H178.5a1.756,1.756,0,0,1,1.637,1.977,1.488,1.488,0,0,1-1.5,1.563Z" transform="translate(159.57 1240.049)" fill="#828c8f" fill-rule="evenodd"/>
    <path id="Caminho_11" data-name="Caminho 11" d="M8.695,89.357h9.822l29.675,22.8H57.91l-19.783-22.8H57.91v-4.1H38.127L57.98,62.182H48.33L18.516,85.261H12.755Z" transform="translate(135 1235)" fill="#828c8f" fill-rule="evenodd"/>
    <path id="Caminho_12" data-name="Caminho 12" d="M61.812,78.131h10.76v-3.4H57.82V88.716H72.571v-3.4H61.812V83.093h10.76V80.212H61.812Z" transform="translate(154.769 1240.049)" fill="#828c8f" fill-rule="evenodd"/>
  </g>
</svg>
