<svg xmlns="http://www.w3.org/2000/svg" width="240" height="49.683" viewBox="0 0 240 49.683">
  <g id="ERICSSON" transform="translate(-2.823 -2.587)">
    <path id="Caminho_66" data-name="Caminho 66" d="M46.174,18.061H53.42V43.02H46.131Z" transform="translate(5.297 1.892)" fill="#828c8f"/>
    <path id="Caminho_67" data-name="Caminho 67" d="M36.172,23.942c.211,0,1.568.255,1.568,2.2s-1.313,1.907-1.313,1.907H31.849V23.9S35.96,23.942,36.172,23.942Zm-12.2-5.763V43.435H31.68V34.112h2.627s1.356.084,2.457,3.729,1.525,5.085,1.992,5.424H46s-1.907-6.1-2.8-8.56-1.229-3.093-1.907-3.644a6.941,6.941,0,0,0,3.729-6.145c0-4.407-4.28-6.781-6.992-6.781S23.968,18.179,23.968,18.179Z" transform="translate(2.586 1.902)" fill="#828c8f"/>
    <path id="Caminho_68" data-name="Caminho 68" d="M2.823,18.174H22.655v5.678H10.535v3.815H21.977v5.847H10.621v3.815H22.655v6.1H2.823Z" transform="translate(0 1.906)" fill="#828c8f"/>
    <path id="Caminho_69" data-name="Caminho 69" d="M76.2,24.707l.593-5.847a18.526,18.526,0,0,0-7.459-1.441c-4.491,0-14.408,2.035-14.408,12.628S62.64,43.861,69.167,43.861a25.058,25.058,0,0,0,7.882-1.27l-.424-5.847A19.12,19.12,0,0,1,70.183,38.1a7.332,7.332,0,0,1-7.543-7.459c0-5.256,3.814-7.627,7.2-7.627A14.445,14.445,0,0,1,76.2,24.707Z" transform="translate(6.372 1.814)" fill="#828c8f"/>
    <path id="Caminho_70" data-name="Caminho 70" d="M87.647,17.42S76.376,16.911,76.376,25.3c0,4.322,2.288,6.018,5.17,7.035s6.864,1.695,6.864,3.728-3.39,2.119-4.068,2.119-7.119-1.525-7.119-1.525l-.169,5.848a29.282,29.282,0,0,0,7.882,1.187c4.153,0,10.679-.933,10.679-8.9,0-4.491-3.56-5.679-5-6.357s-6.695-1.779-6.695-3.305,2.457-2.288,3.475-2.288S93.92,24.03,93.92,24.03V18.691A15.254,15.254,0,0,0,87.647,17.42Z" transform="translate(8.995 1.813)" fill="#828c8f"/>
    <path id="Caminho_71" data-name="Caminho 71" d="M106.262,17.344s-11.271-.508-11.271,7.882c0,4.323,2.288,6.018,5.169,7.035s6.865,1.7,6.865,3.729-3.39,2.119-4.068,2.119-7.12-1.525-7.12-1.525l-.169,5.848a29.307,29.307,0,0,0,7.882,1.186c4.153,0,10.679-.933,10.679-8.9,0-4.491-3.559-5.679-5-6.357s-6.7-1.78-6.7-3.305,2.458-2.288,3.476-2.288,6.525,1.186,6.525,1.186V18.616A15.2,15.2,0,0,0,106.262,17.344Z" transform="translate(11.272 1.804)" fill="#828c8f"/>
    <path id="Caminho_72" data-name="Caminho 72" d="M138.36,30.3c0,12.967-12.543,13.221-12.967,13.221s-12.544-.678-12.544-13.051,12.713-13.051,12.713-13.051S138.36,17.334,138.36,30.3Zm-12.882-7.543s-5.085.933-5.085,7.459,3.983,7.966,5.169,7.966,5.169-1.186,5.169-7.8S125.478,22.758,125.478,22.758Z" transform="translate(13.456 1.814)" fill="#828c8f"/>
    <path id="Caminho_73" data-name="Caminho 73" d="M137.846,17.588V42.759h7.374V29.2l7.627,13.475h8.984V17.419h-7.375V31.742l-7.8-14.153Z" transform="translate(16.513 1.814)" fill="#828c8f"/>
    <path id="Caminho_74" data-name="Caminho 74" d="M188.332,23.85a5.123,5.123,0,1,1-3.7-9.556l29.38-11.36a5.123,5.123,0,1,1,3.7,9.556Z" transform="translate(21.835 0)" fill="#828c8f"/>
    <path id="Caminho_75" data-name="Caminho 75" d="M188.332,36.672a5.123,5.123,0,1,1-3.7-9.556l29.38-11.361a5.124,5.124,0,0,1,3.7,9.557Z" transform="translate(21.835 1.568)" fill="#828c8f"/>
    <path id="Caminho_76" data-name="Caminho 76" d="M188.332,48.865a5.123,5.123,0,1,1-3.7-9.556l29.38-11.36a5.123,5.123,0,1,1,3.7,9.556Z" transform="translate(21.835 3.059)" fill="#828c8f"/>
  </g>
</svg>
