<svg id="espro" xmlns="http://www.w3.org/2000/svg" xmlns:xlink="http://www.w3.org/1999/xlink" width="240" height="81.639" viewBox="0 0 240 81.639">
  <defs>
    <clipPath id="clip-path">
      <rect id="Retângulo_144" data-name="Retângulo 144" width="240" height="81.639" fill="#828c8f"/>
    </clipPath>
  </defs>
  <g id="Grupo_399" data-name="Grupo 399" clip-path="url(#clip-path)">
    <path id="Caminho_92" data-name="Caminho 92" d="M12.464,35.963A4.086,4.086,0,1,1,8.381,40.05a4.095,4.095,0,0,1,4.083-4.087m65.143,0a4.086,4.086,0,1,1-4.086,4.087,4.1,4.1,0,0,1,4.086-4.087M45.39,88.741A4.086,4.086,0,1,1,41.3,92.826a4.086,4.086,0,0,1,4.089-4.084" transform="translate(-3.56 -15.274)" fill="#828c8f" fill-rule="evenodd"/>
    <path id="Caminho_93" data-name="Caminho 93" d="M91.923,62.484a.987.987,0,0,1,1.248-.6.983.983,0,1,1-.654,1.855.988.988,0,0,1-.594-1.254m1.9,1.027a.637.637,0,1,0,1.2.42.637.637,0,0,0-1.2-.42m-1.691,1.08A.983.983,0,1,0,93.386,64a.984.984,0,0,0-1.252.595m2.2.424a.637.637,0,0,1,1.2.422.637.637,0,1,1-1.2-.422m.276,1.791a1.418,1.418,0,1,0,1.805-.865,1.429,1.429,0,0,0-1.805.865m-2.8-6.231a.638.638,0,1,1,.389.808.641.641,0,0,1-.389-.808m8.607-8.591a.98.98,0,1,1,.6,1.258.98.98,0,0,1-.6-1.258m1.905,1.03a.635.635,0,1,0,.808-.388.641.641,0,0,0-.808.388M100.628,54.1a.982.982,0,1,0,1.852.652.993.993,0,0,0-.6-1.253.98.98,0,0,0-1.251.6m2.192.421a.638.638,0,1,1,.394.819.653.653,0,0,1-.394-.819M97.786,53.28a1.414,1.414,0,1,0,1.8-.859,1.4,1.4,0,0,0-1.8.859m1.59,2.489a.987.987,0,0,1,1.252-.607,1.01,1.01,0,0,1,.6,1.263.984.984,0,0,1-1.262.589.971.971,0,0,1-.595-1.244m2.3.1a.639.639,0,0,1,.813-.384.634.634,0,1,1-.813.384m-.624,1.358a.651.651,0,0,0,.389.819.641.641,0,0,0,.422-1.211.647.647,0,0,0-.811.392m-1.462.522a.638.638,0,1,1,.386.809.637.637,0,0,1-.386-.809m-1.355-.835a.637.637,0,1,0,.809-.383.638.638,0,0,0-.809.383m-.415-1.248a.635.635,0,0,1,.809-.392.636.636,0,1,1-.42,1.2.635.635,0,0,1-.389-.808m-1.254-1.046a.646.646,0,0,1,.816-.388.635.635,0,1,1-.816.388m-.308-1.564a.634.634,0,1,1,.384.811.637.637,0,0,1-.384-.811m.512-1.783a.983.983,0,1,1,.6,1.255.979.979,0,0,1-.6-1.255m-1.046,5.008a.986.986,0,0,0,1.859.658.986.986,0,1,0-1.859-.658m7.381.022a1.417,1.417,0,1,0,1.8-.859,1.406,1.406,0,0,0-1.8.859m-5.123,2.577a.982.982,0,1,0,1.252-.6.987.987,0,0,0-1.252.6m-3.024-6.525a.627.627,0,0,0,.379.814.651.651,0,0,0,.816-.393.636.636,0,0,0-.4-.809.621.621,0,0,0-.8.388m9.93,6.686a.633.633,0,1,1,.384.806.622.622,0,0,1-.384-.806M102.634,59a.985.985,0,0,1,1.251-.593.981.981,0,0,1-.651,1.851.988.988,0,0,1-.6-1.258m-2.005-.138a.634.634,0,1,0,.811-.389.627.627,0,0,0-.811.389m-.952,1.3a.639.639,0,1,1,.385.805.641.641,0,0,1-.385-.805M89.7,55.719a1.418,1.418,0,1,1,.864,1.817,1.421,1.421,0,0,1-.864-1.817m1.756,2.509a.639.639,0,0,0,1.206.422.639.639,0,1,0-1.206-.422m1.5.831a.984.984,0,1,0,1.259-.6.987.987,0,0,0-1.259.6m-.283-3.077a1.419,1.419,0,0,1,1.807-.866,1.416,1.416,0,1,1-1.807.866m2.372-1.434a.654.654,0,0,0,.4.814.635.635,0,0,0,.42-1.2.656.656,0,0,0-.816.385m-2.106-1a.967.967,0,0,1,1.245-.6.982.982,0,1,1-1.245.6m-1.605.368a.639.639,0,0,0,.391.808.635.635,0,0,0,.425-1.2.638.638,0,0,0-.816.388m5.022,11.156a.642.642,0,0,1,.815-.389.631.631,0,0,1,.388.806.636.636,0,0,1-1.2-.417m1.71,3.211a.635.635,0,1,1,.387.817.637.637,0,0,1-.387-.817m-3.025-8.3a1.415,1.415,0,1,1,.862,1.8,1.414,1.414,0,0,1-.862-1.8M96.6,58.2a.64.64,0,0,1,.816-.391.634.634,0,1,1-.816.391m-1.77-.078a.644.644,0,0,1,.811-.388.637.637,0,0,1-.422,1.2.643.643,0,0,1-.388-.814M93.4,61.1a.623.623,0,0,0,.384.8.639.639,0,1,0-.384-.8m1.46,1.415a.647.647,0,0,1,.82-.389.634.634,0,0,1,.374.814.626.626,0,0,1-.806.385.636.636,0,0,1-.388-.81m1.75.254a.98.98,0,1,0,1.249-.6.986.986,0,0,0-1.249.6M95.428,63.94a.638.638,0,0,0,1.2.427.637.637,0,1,0-1.2-.427m3.726-1.824a1.416,1.416,0,1,0,1.808-.863,1.419,1.419,0,0,0-1.808.863m-1.267-1.094a.634.634,0,1,0,.814-.388.638.638,0,0,0-.814.388m3.451-.821a.637.637,0,1,0,1.2.422.638.638,0,0,0-.387-.806.644.644,0,0,0-.815.384m-3.412,4.128a.635.635,0,1,1,1.2.417.63.63,0,0,1-.809.388.636.636,0,0,1-.391-.8m-.3,1.949a.983.983,0,0,1,1.855.651,1,1,0,0,1-1.26.605.986.986,0,0,1-.6-1.256m-8.377-15.7a.986.986,0,1,1,.606,1.252,1,1,0,0,1-.606-1.252m.326-1.742a.634.634,0,0,1,1.2.423.634.634,0,1,1-1.2-.423M91.4,51.1a1.414,1.414,0,1,0,2.664.949A1.414,1.414,0,0,0,91.4,51.1m3.2-.376a.633.633,0,0,1,1.2.414.633.633,0,1,1-1.2-.414m-3.63-1.353a.635.635,0,1,0,.813-.389.636.636,0,0,0-.813.389m1.426-.567a.638.638,0,0,1,.813-.385.635.635,0,1,1-.813.385" transform="translate(-37.882 -20.55)" fill="#828c8f" fill-rule="evenodd"/>
    <path id="Caminho_94" data-name="Caminho 94" d="M45.379,39.9a.979.979,0,0,1,1.249-.595.981.981,0,1,1-1.249.595m1.9,1.146a.633.633,0,0,0,.389.817.633.633,0,1,0-.389-.817m-1.694.97a.982.982,0,1,0,1.257-.605.993.993,0,0,0-1.257.605m2.2.427a.636.636,0,1,1,1.2.415.64.64,0,0,1-.814.388.633.633,0,0,1-.388-.8M43.983,39.23a.634.634,0,1,0,1.193.432.639.639,0,0,0-.383-.813.627.627,0,0,0-.809.381M42.747,41.2a1.413,1.413,0,1,0,1.8-.865,1.414,1.414,0,0,0-1.8.865m1.588,2.481a.985.985,0,0,1,1.258-.6.98.98,0,1,1-1.258.6m2.3.1a.646.646,0,0,1,.813-.381.636.636,0,0,1-.42,1.2.645.645,0,0,1-.393-.819m-.622,1.363a.637.637,0,1,0,1.2.419.636.636,0,0,0-.388-.808.643.643,0,0,0-.814.388m-1.461.515a.643.643,0,0,1,.814-.381.633.633,0,0,1,.386.813.641.641,0,0,1-.811.387.655.655,0,0,1-.389-.819m-1.353-.74a.632.632,0,1,0,.811-.4.638.638,0,0,0-.811.4m-.422-1.343a.639.639,0,1,1,.393.815.639.639,0,0,1-.393-.815m-1.247-1.037a.631.631,0,0,1,.809-.391.636.636,0,1,1-.423,1.2.629.629,0,0,1-.386-.808m-.319-1.572a.66.66,0,0,1,.82-.388.637.637,0,0,1,.381.815.628.628,0,0,1-.808.384.638.638,0,0,1-.393-.811m.521-1.785a.983.983,0,1,1,.6,1.265.988.988,0,0,1-.6-1.265m-2.292,2.928a.977.977,0,0,0,.595,1.258,1,1,0,0,0,1.258-.6.984.984,0,0,0-.61-1.254.972.972,0,0,0-1.243.6M40.684,44.2a.984.984,0,1,0,1.256-.6,1,1,0,0,0-1.256.6m-1.456-4.484a.982.982,0,0,0,1.85.659,1,1,0,0,0-.6-1.262.982.982,0,0,0-1.255.6m-1.49,4.71a1.418,1.418,0,1,1,.866,1.81,1.42,1.42,0,0,1-.866-1.81m2.085,2.194a1.418,1.418,0,1,1,.861,1.812,1.423,1.423,0,0,1-.861-1.812m8.243-2.4a1.416,1.416,0,1,0,1.809-.874,1.425,1.425,0,0,0-1.809.874M37.888,42.371a.634.634,0,1,1,.384.813.64.64,0,0,1-.384-.813m.32-1.4a.639.639,0,0,1,1.2.426.639.639,0,0,1-1.2-.426M36.6,43.448a.633.633,0,1,0,1.2.418.633.633,0,1,0-1.2-.418m4.823,5.58a.647.647,0,0,0,.4.812.636.636,0,0,0,.425-1.2.654.654,0,0,0-.821.388m1.519-2.239a.983.983,0,1,0,1.851.661.976.976,0,0,0-.6-1.254.986.986,0,0,0-1.251.593m-7.762-6a1.417,1.417,0,1,0,1.8-.87,1.413,1.413,0,0,0-1.8.87m2.39-1.417a.63.63,0,1,1,.384.8.62.62,0,0,1-.384-.8m4.77-4.233a.638.638,0,0,1,.816-.388.626.626,0,0,1,.388.8.637.637,0,0,1-1.2-.414M36.749,47.5a1.416,1.416,0,1,0,1.806-.865,1.416,1.416,0,0,0-1.806.865M39.4,48.992a.636.636,0,0,0,.393.8.633.633,0,0,0,.417-1.2.635.635,0,0,0-.811.391m-3.961-3.8a.98.98,0,0,1,1.85.651.98.98,0,1,1-1.85-.651m18.426-7.6a.977.977,0,0,1,1.25-.6.982.982,0,1,1-.659,1.85.977.977,0,0,1-.591-1.251m1.905,1.03a.634.634,0,0,0,1.2.423.634.634,0,1,0-1.2-.423M54.084,39.7a.982.982,0,1,0,1.248-.6.972.972,0,0,0-1.248.6m2.2.429a.636.636,0,1,1,1.2.417.651.651,0,0,1-.816.392.638.638,0,0,1-.387-.809m-3.811-3.2a.634.634,0,1,0,.815-.388.633.633,0,0,0-.815.388m-1.236,1.961a1.418,1.418,0,1,0,1.807-.862,1.415,1.415,0,0,0-1.807.862m1.594,2.483a.983.983,0,1,1,.6,1.254.985.985,0,0,1-.6-1.254m2.3.109a.635.635,0,0,1,.809-.387.635.635,0,0,1-.42,1.2.645.645,0,0,1-.389-.812m-.624,1.355a.64.64,0,1,0,.809-.389.638.638,0,0,0-.809.389m-1.457.521a.633.633,0,1,1,1.194.424.633.633,0,0,1-1.194-.424m-1.36-.758a.638.638,0,1,0,.811-.385.647.647,0,0,0-.811.385m-.419-1.328a.635.635,0,0,1,.813-.385.624.624,0,0,1,.385.807.636.636,0,1,1-1.2-.422m-1.248-1.037a.636.636,0,1,1,1.2.425.635.635,0,1,1-1.2-.425m-.315-1.569a.637.637,0,1,1,.389.815.646.646,0,0,1-.389-.815m.521-1.776a.976.976,0,1,1,.587,1.252.978.978,0,0,1-.587-1.252m-1.049,5a.983.983,0,1,0,1.258-.595.987.987,0,0,0-1.258.595m7.374.026a1.416,1.416,0,1,0,1.812-.868,1.418,1.418,0,0,0-1.812.868m-6.635,4.8a.641.641,0,0,1,.818-.383.629.629,0,0,1,.387.8.638.638,0,1,1-1.205-.422m1.512-2.227a.987.987,0,1,0,1.256-.6.988.988,0,0,0-1.256.6M33.639,42.628a.63.63,0,0,1,.806-.379.636.636,0,1,1-.806.379M32.4,44.594a1.417,1.417,0,1,0,1.81-.861,1.406,1.406,0,0,0-1.81.861M34,47.078a.98.98,0,1,0,1.246-.6.963.963,0,0,0-1.246.6m.212,1.991a.635.635,0,1,1,1.2.421.635.635,0,0,1-.816.385.628.628,0,0,1-.381-.806m-1.354-.677a.635.635,0,1,1,.384.815.64.64,0,0,1-.384-.815m-.418-1.412a.636.636,0,1,1,.384.807.628.628,0,0,1-.384-.807m-1.253-1.046a.639.639,0,0,1,.809-.394.648.648,0,0,1,.393.816.637.637,0,1,1-1.2-.422m-.312-1.564a.634.634,0,0,1,.811-.384.633.633,0,1,1-.811.384m.514-1.776a.98.98,0,0,1,1.848.651.98.98,0,1,1-1.848-.651m-2.3,2.922a.984.984,0,1,0,1.258-.6.983.983,0,0,0-1.258.6M30.347,47.6A.983.983,0,1,0,31.6,47a.991.991,0,0,0-1.252.6m-1.462-4.487a.988.988,0,0,0,.6,1.259.969.969,0,0,0,1.25-.605.98.98,0,1,0-1.847-.654m-1.492,4.72a1.418,1.418,0,1,1,.865,1.806,1.424,1.424,0,0,1-.865-1.806m2.089,2.189a1.417,1.417,0,1,1,.865,1.807,1.426,1.426,0,0,1-.865-1.807m-1.934-4.256a.637.637,0,0,1,.807-.388.639.639,0,1,1-.425,1.206.63.63,0,0,1-.382-.817m.312-1.393a.646.646,0,0,1,.818-.384.635.635,0,1,1-.818.384m-1.6,2.472a.634.634,0,1,0,1.2.421.634.634,0,1,0-1.2-.421M32.6,50.19a.983.983,0,0,0,.607,1.254.962.962,0,0,0,1.24-.6.978.978,0,0,0-.59-1.252.99.99,0,0,0-1.257.6m-5.376-7.428a.632.632,0,0,1,.807-.391.635.635,0,1,1-.417,1.2.636.636,0,0,1-.39-.809M25.1,48.586a.984.984,0,1,1,.6,1.254.983.983,0,0,1-.6-1.254m9.93-5.178a.632.632,0,1,0,1.195.415.621.621,0,0,0-.387-.807.637.637,0,0,0-.808.391m10.5-7.993a.986.986,0,1,1,.6,1.259.987.987,0,0,1-.6-1.259m1.908,1.036a.634.634,0,0,0,.385.811.636.636,0,1,0,.421-1.2.628.628,0,0,0-.807.388m-1.689,1.084a.98.98,0,1,0,1.248-.6.974.974,0,0,0-1.248.6m2.659.1a.635.635,0,1,0,.813-.394.644.644,0,0,0-.813.394m-4.269-2.878a.635.635,0,1,0,.809-.381.629.629,0,0,0-.809.381M42.9,36.724a1.419,1.419,0,0,1,1.8-.873,1.435,1.435,0,0,1,.867,1.814,1.416,1.416,0,0,1-2.671-.941m4.847,2.62a1,1,0,0,1,1.258-.6.985.985,0,1,1-1.258.6M36.79,34.138a.985.985,0,0,1,1.857.658.985.985,0,1,1-1.857-.658m2.195.422a.645.645,0,0,1,.814-.389.637.637,0,1,1-.814.389m-5.039-1.235a1.416,1.416,0,1,0,1.8-.87,1.411,1.411,0,0,0-1.8.87m1.594,2.481a.982.982,0,1,0,1.25-.6.985.985,0,0,0-1.25.6m2.3.11a.639.639,0,1,0,.808-.387.636.636,0,0,0-.808.387m-.624,1.36a.636.636,0,0,1,.811-.393.635.635,0,1,1-.811.393m-1.459.519a.631.631,0,0,1,.807-.389.637.637,0,1,1-.807.389M34.4,37.081a.634.634,0,0,1,.808-.388.636.636,0,1,1-.422,1.2.633.633,0,0,1-.386-.812m-.421-1.371a.637.637,0,1,1,1.2.427.637.637,0,0,1-1.2-.427m-1.251-1.049a.637.637,0,0,1,1.2.42.637.637,0,1,1-1.2-.42M32.416,33.1a.644.644,0,0,1,.81-.388.652.652,0,0,1,.394.818.639.639,0,0,1-1.2-.43M30.64,34.238a.982.982,0,1,0,1.247-.591.981.981,0,0,0-1.247.591m1.247,2.1a.983.983,0,0,0,1.854.654.983.983,0,1,0-1.854-.654m-1.458-4.488a.98.98,0,1,0,1.848.652.98.98,0,0,0-1.848-.652m.6,6.9a1.413,1.413,0,1,1,2.665.939,1.413,1.413,0,1,1-2.665-.939m8.24-2.4a1.417,1.417,0,1,0,1.805-.858,1.419,1.419,0,0,0-1.805.858m-6.636,4.808a.633.633,0,1,0,1.195.419.633.633,0,0,0-1.195-.419m1.511-2.23a.981.981,0,1,1,.6,1.248.97.97,0,0,1-.6-1.248m-3.537,2.188a.635.635,0,1,0,.807-.384.637.637,0,0,0-.807.384M41.217,32.35a.639.639,0,1,1,.393.813.647.647,0,0,1-.393-.813m-.308-1.561a.638.638,0,0,1,1.2.419.651.651,0,0,1-.82.392.634.634,0,0,1-.384-.811m-.528,3.223a.973.973,0,0,0,.593,1.249.981.981,0,1,0-.593-1.249m-1.669,4.255a.635.635,0,0,1,1.2.426.641.641,0,0,1-.816.389.631.631,0,0,1-.381-.815m.89-8.434a.638.638,0,0,0,1.2.426.628.628,0,0,0-.388-.808.64.64,0,0,0-.813.382m-.647,1.648a.979.979,0,1,0,1.244-.608.98.98,0,0,0-1.244.608M58.8,45a.985.985,0,0,1,1.857.656A.985.985,0,0,1,58.8,45m1.909,1.03a.636.636,0,1,0,.809-.391.641.641,0,0,0-.809.391m-1.7,1.08a.986.986,0,0,0,1.858.661.986.986,0,0,0-1.858-.661m2.2.427a.64.64,0,1,1,.389.811.648.648,0,0,1-.389-.811m-3.8-3.2a.628.628,0,0,1,.808-.383.634.634,0,1,1-.421,1.2.631.631,0,0,1-.388-.815m-1.244,1.961a1.42,1.42,0,1,0,1.809-.862,1.423,1.423,0,0,0-1.809.862m1.6,2.487a.982.982,0,1,1,.6,1.252.983.983,0,0,1-.6-1.252m2.3.11a.624.624,0,0,1,.8-.386.633.633,0,1,1-.8.386m-.629,1.355a.637.637,0,0,0,1.2.424.641.641,0,0,0-.393-.811.634.634,0,0,0-.809.387m-1.454.523a.632.632,0,1,1,.384.809.623.623,0,0,1-.384-.809m-1.363-.751a.635.635,0,0,0,1.2.419.642.642,0,0,0-.384-.816.653.653,0,0,0-.816.4m-.414-1.335a.623.623,0,0,1,.807-.389.637.637,0,1,1-.422,1.2.628.628,0,0,1-.385-.812m-1.256-1.046a.655.655,0,0,1,.816-.387.643.643,0,0,1,.386.812.62.62,0,0,1-.808.384.636.636,0,0,1-.393-.809m-.308-1.558a.633.633,0,1,1,1.2.419.633.633,0,1,1-1.2-.419m.514-1.779a.983.983,0,1,1,.595,1.246.971.971,0,0,1-.595-1.246M61.5,49.317a1.417,1.417,0,0,0,.861,1.808,1.416,1.416,0,1,0,.946-2.67,1.409,1.409,0,0,0-1.807.862M53.34,45.371a.64.64,0,1,1,.388.808.64.64,0,0,1-.388-.808m-7.66,1.278a.632.632,0,0,0,.384.811.636.636,0,1,0,.423-1.2.626.626,0,0,0-.807.388m17.6,5.405a.633.633,0,1,1,1.194.419.642.642,0,0,1-.806.392.626.626,0,0,1-.388-.811m-1.236,1.964a1.415,1.415,0,1,0,1.8-.87,1.415,1.415,0,0,0-1.8.87m-1.018-2.008a.986.986,0,1,1,.6,1.252.984.984,0,0,1-.6-1.252m1.793-8.966a.649.649,0,0,1,.818-.392.637.637,0,1,1-.818.392M51.539,47.216a1.435,1.435,0,0,0,.865,1.812,1.418,1.418,0,1,0-.865-1.812m7.679,4.513a.636.636,0,0,0,1.2.426.636.636,0,1,0-1.2-.426m-16.984-1.24a.98.98,0,1,1,.595,1.252.987.987,0,0,1-.595-1.252m-2.932.4a1.418,1.418,0,1,1,.863,1.808A1.423,1.423,0,0,1,39.3,50.89m-1.252-.966a.628.628,0,0,1,.816-.381.619.619,0,0,1,.379.8.628.628,0,0,1-.808.389.636.636,0,0,1-.387-.809m4.65,2.711a.981.981,0,1,0,1.258-.609.986.986,0,0,0-1.258.609m-1.488.422a.636.636,0,1,0,.807-.393.637.637,0,0,0-.807.393m-5.538-3.811a.641.641,0,0,1,.815-.392.637.637,0,1,1-.427,1.2.635.635,0,0,1-.388-.807m12.564-14.9a1.416,1.416,0,1,0,1.8-.859,1.417,1.417,0,0,0-1.8.859m-5.587-1.329a.982.982,0,0,1,1.852.657.982.982,0,0,1-1.852-.657m2.088-.746a.643.643,0,0,0,.4.816.627.627,0,0,0,.8-.388.637.637,0,0,0-1.2-.429m.286,1.425a.636.636,0,1,1,.385.811.637.637,0,0,1-.385-.811m6.284,1.333a.982.982,0,1,1,1.851.655.982.982,0,0,1-1.851-.655m2.4.668a.635.635,0,1,1,.381.821.639.639,0,0,1-.381-.821m-2.985-2.414a.638.638,0,1,1,.389.817.639.639,0,0,1-.389-.817m4.559,2.577a.983.983,0,1,0,1.253-.6.99.99,0,0,0-1.253.6m-1.932-1.722a.638.638,0,0,0,.391.811.633.633,0,1,0,.422-1.194.634.634,0,0,0-.813.383m1.56,0a.645.645,0,0,1,.819-.383.627.627,0,0,1,.381.805.617.617,0,0,1-.8.389.638.638,0,0,1-.4-.811m1.779.5a.636.636,0,1,1,1.2.416.636.636,0,0,1-1.2-.416m-.706-1.426a.634.634,0,0,0,1.2.423.64.64,0,0,0-.389-.814.633.633,0,0,0-.807.391m-.072-1.493a.629.629,0,0,1,.807-.388.636.636,0,1,1-.807.388m-1.393,1.054a.637.637,0,1,1,.387.815.643.643,0,0,1-.387-.815m-2.379.439a.642.642,0,1,0,.819-.391.648.648,0,0,0-.819.391M60.725,44a.983.983,0,1,0,1.258-.6.979.979,0,0,0-1.258.6m-1.363-.743a.636.636,0,1,1,.388.808.636.636,0,0,1-.388-.808M57.8,39.983a.636.636,0,1,1,.387.815.643.643,0,0,1-.387-.815m1.5,1.169a.986.986,0,1,1,.6,1.264.99.99,0,0,1-.6-1.264m1.817,1.2a.631.631,0,1,1,1.187.428.631.631,0,1,1-1.187-.428m-1.85-3a.633.633,0,0,1,.807-.384.64.64,0,0,1,.393.813.637.637,0,1,1-1.2-.43m.633-1.484a.642.642,0,0,1,.816-.387.634.634,0,1,1-.816.387m1.6-.608a.984.984,0,1,1,.6,1.256.981.981,0,0,1-.6-1.256m-.67,2.309a.635.635,0,0,0,.4.815.627.627,0,0,0,.8-.393.634.634,0,1,0-1.2-.422M45.579,30.166a1.417,1.417,0,1,1,.864,1.8,1.417,1.417,0,0,1-.864-1.8m-.662-1.46a.633.633,0,1,0,1.195.417.633.633,0,1,0-1.195-.417m4.126,1.425a.985.985,0,1,1,.6,1.252.987.987,0,0,1-.6-1.252m-.95-1.249a.638.638,0,0,0,1.2.423.65.65,0,0,0-.4-.815.639.639,0,0,0-.807.392m1.564-.661a.654.654,0,0,1,.816-.385.638.638,0,0,1,.394.811.629.629,0,0,1-.813.386.643.643,0,0,1-.4-.812m-1.2-.889a.637.637,0,1,0,1.2.429.637.637,0,0,0-1.2-.429m-1.49-.626a.633.633,0,0,1,1.194.419.633.633,0,1,1-1.194-.419m1.249-.9a.634.634,0,0,0,.387.807.627.627,0,0,0,.808-.384.636.636,0,0,0-.381-.815.646.646,0,0,0-.814.392m-5.759,4.362a1.418,1.418,0,1,0,1.807-.868,1.429,1.429,0,0,0-1.807.868" transform="translate(-10.635 -10.781)" fill="#828c8f" fill-rule="evenodd"/>
    <path id="Caminho_95" data-name="Caminho 95" d="M67.229,65a.985.985,0,1,1,.6,1.257.988.988,0,0,1-.6-1.257m.747,4.827a.635.635,0,0,1,1.2.425.635.635,0,1,1-1.2-.425M69.486,67.6a.983.983,0,0,1,1.858.645.983.983,0,1,1-1.858-.645m-9.3-4.582a1,1,0,0,1,1.262-.6.99.99,0,0,1,.593,1.256.983.983,0,0,1-1.854-.652m1.91,1.027a.632.632,0,0,0,.387.808.635.635,0,1,0,.427-1.2.632.632,0,0,0-.814.388M60.4,65.13A.977.977,0,0,0,61,66.383a.983.983,0,1,0,.657-1.852.975.975,0,0,0-1.251.6m2.2.417a.639.639,0,0,1,1.2.423.638.638,0,1,1-1.2-.423m-5.041-1.232a1.414,1.414,0,1,0,1.808-.866,1.415,1.415,0,0,0-1.808.866m3.895,2.592a.636.636,0,1,1,.385.811.629.629,0,0,1-.385-.811m-.63,1.352a.637.637,0,0,0,.391.813.634.634,0,0,0,.425-1.195.644.644,0,0,0-.816.382m-1.457.528a.634.634,0,0,1,1.2.424.641.641,0,0,1-.813.386.631.631,0,0,1-.383-.81m-1.36-.835a.647.647,0,0,0,.394.812.637.637,0,1,0-.394-.812M57.591,66.7a.637.637,0,1,1,.391.813.633.633,0,0,1-.391-.813m5.282.637a1.417,1.417,0,1,0,1.809-.862,1.416,1.416,0,0,0-1.809.862M57.757,69.91a.982.982,0,1,0,1.852.656.982.982,0,0,0-1.852-.656m7.366.526a.984.984,0,1,1,1.857.651.984.984,0,0,1-1.857-.651m1.908,1.021a.636.636,0,0,0,.391.809.634.634,0,1,0,.42-1.2.637.637,0,0,0-.811.387M65.34,72.54a.984.984,0,0,0,1.857.651.984.984,0,1,0-1.857-.651m2.2.418a.635.635,0,1,1,.38.813.634.634,0,0,1-.38-.813m-3.813-3.195a.647.647,0,0,1,.811-.389.64.64,0,0,1,.393.813.638.638,0,0,1-1.2-.425m-1.239,1.965A1.422,1.422,0,1,0,64.3,70.86a1.426,1.426,0,0,0-1.814.869m1.6,2.479a.983.983,0,1,1,.6,1.254.976.976,0,0,1-.6-1.254m2.308.111a.633.633,0,1,1,1.194.419.633.633,0,1,1-1.194-.419m-.629,1.355a.636.636,0,0,0,.386.811.627.627,0,0,0,.813-.384.637.637,0,1,0-1.2-.427M64.3,76.2a.642.642,0,0,1,.816-.384.629.629,0,0,1,.385.8.636.636,0,1,1-1.2-.419m-1.355-.708a.64.64,0,0,0,.393.807.629.629,0,0,0,.809-.39.642.642,0,0,0-.389-.811.649.649,0,0,0-.813.394m-.415-1.375a.634.634,0,1,1,1.2.42.629.629,0,0,1-.807.393.639.639,0,0,1-.388-.813m-1.255-1.046a.642.642,0,0,1,.816-.384.634.634,0,1,1-.425,1.2.639.639,0,0,1-.392-.811m-.3-1.562a.626.626,0,0,1,.813-.385.635.635,0,0,1,.382.808.642.642,0,0,1-.811.387.631.631,0,0,1-.385-.81m.5-1.78a1,1,0,0,1,1.258-.6.985.985,0,1,1-1.258.6m-1.041,5.01a.983.983,0,1,0,1.257-.6.986.986,0,0,0-1.257.6m7.526-.052a1.414,1.414,0,1,0,1.8-.87,1.412,1.412,0,0,0-1.8.87m-6.777,4.874a.661.661,0,0,1,.816-.4.642.642,0,0,1,.379.818.624.624,0,0,1-.8.39.634.634,0,0,1-.39-.813m1.5-2.231a1,1,0,0,0,.609,1.255.984.984,0,1,0-.609-1.255M59.662,70.8a.646.646,0,0,1,.816-.392.633.633,0,0,1,.384.813.622.622,0,0,1-.807.381.63.63,0,0,1-.393-.8m11.374,1.122a.638.638,0,0,1,1.2.429.638.638,0,1,1-1.2-.429m.667,1.342a.637.637,0,1,0,.808-.388.631.631,0,0,0-.808.388m2.237-2.206a.629.629,0,0,1,.811-.389.636.636,0,1,1-.811.389M73.628,69.5a.636.636,0,1,1,.385.807.63.63,0,0,1-.385-.807m-1.306-.7a.638.638,0,1,0,.816-.393.642.642,0,0,0-.816.393m-.813,1.556a.981.981,0,1,0,1.25-.6.985.985,0,0,0-1.25.6m-2.675,1.624a.979.979,0,0,0,.592,1.252,1,1,0,0,0,1.263-.6.988.988,0,0,0-.607-1.254.971.971,0,0,0-1.248.6m-2.714-4.331a1.417,1.417,0,1,0,1.8-.855,1.4,1.4,0,0,0-1.8.855m-.513-1.839a.635.635,0,1,1,.384.816.636.636,0,0,1-.384-.816m4.378,3.764a.637.637,0,1,1,.394.8.636.636,0,0,1-.394-.8m-5.955-4.548a.637.637,0,0,0,1.2.419.637.637,0,0,0-1.2-.419m-8.081-.541a.638.638,0,0,1,1.2.428.638.638,0,0,1-1.2-.428m5.7,11.978a.646.646,0,0,1,.811-.4.64.64,0,0,1-.423,1.208.647.647,0,0,1-.388-.812m-1.817-4.1a.639.639,0,1,0,.819-.389.646.646,0,0,0-.819.389M58.4,71.715a.654.654,0,0,1,.821-.391.639.639,0,0,1-.427,1.2.649.649,0,0,1-.393-.813m.288,1.487a.649.649,0,0,1,.816-.386.642.642,0,0,1,.386.814.629.629,0,0,1-.809.387.643.643,0,0,1-.393-.815m6.212,4.67a1.414,1.414,0,1,0,1.8-.861,1.423,1.423,0,0,0-1.8.861M63.1,79.459a.978.978,0,0,1,1.247-.6.985.985,0,1,1-1.247.6m-1.85-1.4a.633.633,0,0,1,.8-.391.639.639,0,1,1-.8.391m3.837,2.255a.645.645,0,0,1,.816-.387.636.636,0,1,1-.816.387M67.9,77.738a.636.636,0,1,1,1.2.423.641.641,0,0,1-.816.383.632.632,0,0,1-.384-.806m-.866-1.286a.636.636,0,1,1,1.2.426.636.636,0,0,1-1.2-.426m-3.083,4.892a.633.633,0,1,0,1.195.421.647.647,0,0,0-.391-.816.636.636,0,0,0-.8.4M59.15,66.8A.982.982,0,1,1,61,67.456.982.982,0,0,1,59.15,66.8" transform="translate(-23.748 -26.487)" fill="#828c8f" fill-rule="evenodd"/>
    <path id="Caminho_96" data-name="Caminho 96" d="M73.816,97.467a.983.983,0,1,1,.6,1.252.987.987,0,0,1-.6-1.252m2.02,1.393a.635.635,0,1,0,.81-.394.633.633,0,0,0-.81.394m-2.853.6a.984.984,0,1,0,1.258-.6.976.976,0,0,0-1.258.6m1.906,1.026a.64.64,0,0,1,.815-.388.636.636,0,0,1-.422,1.2.642.642,0,0,1-.393-.812M73.2,101.564a.984.984,0,1,1,.6,1.255.985.985,0,0,1-.6-1.255m2.2.425a.634.634,0,1,1,1.2.423.634.634,0,0,1-1.2-.423m-3.8-3.2A.627.627,0,0,1,72.4,98.4a.64.64,0,1,1-.807.391m-1.243,1.959a1.417,1.417,0,1,1,.869,1.809,1.423,1.423,0,0,1-.869-1.809m1.593,2.482a.987.987,0,1,0,1.258-.593.979.979,0,0,0-1.258.593m2.306.113a.634.634,0,0,0,.386.814.649.649,0,0,0,.816-.39.634.634,0,0,0-.393-.809.623.623,0,0,0-.808.385m-.626,1.359a.633.633,0,1,1,.386.8.627.627,0,0,1-.386-.8m-1.465.52a.644.644,0,0,1,.817-.388.636.636,0,1,1-.817.388m-1.352-.836a.636.636,0,0,1,1.2.423.636.636,0,1,1-1.2-.423m-.418-1.255a.64.64,0,1,0,.811-.385.642.642,0,0,0-.811.385m-1.252-1.046a.639.639,0,1,0,1.2.43.639.639,0,1,0-1.2-.43m.2-3.338A.987.987,0,0,0,71.2,99.4a.987.987,0,0,0-1.863-.653m-1.042,5.006a.984.984,0,1,1,.6,1.256.994.994,0,0,1-.6-1.256m1.478,4.827a.64.64,0,1,1,1.207.429.64.64,0,0,1-1.207-.429m.782-2.236a.984.984,0,0,0,1.853.664.984.984,0,1,0-1.853-.664m.725,1.97a.645.645,0,0,1,.816-.381.636.636,0,0,1,.389.808.639.639,0,1,1-1.205-.427M69.818,96.283a.633.633,0,1,1,.386.8.634.634,0,0,1-.386-.8m1.317-.987A1.413,1.413,0,0,0,72,97.106a1.416,1.416,0,1,0,.942-2.67,1.41,1.41,0,0,0-1.8.86" transform="translate(-28.983 -40.074)" fill="#828c8f" fill-rule="evenodd"/>
    <path id="Caminho_97" data-name="Caminho 97" d="M80.353,81.845a1.416,1.416,0,1,1,.862,1.806,1.413,1.413,0,0,1-.862-1.806m4.766-2.864a.982.982,0,1,1,.593,1.26.982.982,0,0,1-.593-1.26m2.3.117a.634.634,0,1,1,1.195.423.626.626,0,0,1-.807.385.634.634,0,0,1-.388-.808m-.629,1.355a.645.645,0,0,0,.387.816A.659.659,0,0,0,88,80.874a.65.65,0,0,0-.4-.812.641.641,0,0,0-.806.391m-1.454.519a.634.634,0,1,1,1.195.426.627.627,0,0,1-.811.384.638.638,0,0,1-.384-.81m-1.358-.834a.634.634,0,1,0,.809-.386.629.629,0,0,0-.809.386m-.417-1.253a.642.642,0,0,1,.811-.39.639.639,0,1,1-.427,1.2.64.64,0,0,1-.384-.815m-2.09.621a1,1,0,0,0,.592,1.259.985.985,0,0,0,.657-1.858.974.974,0,0,0-1.249.6m.736,4.829a.644.644,0,0,0,.4.808.631.631,0,0,0,.809-.387.64.64,0,0,0-.389-.811.648.648,0,0,0-.816.389M83.72,82.1a.984.984,0,1,0,1.857.649.969.969,0,0,0-.6-1.244.983.983,0,0,0-1.255.595m7.382.518a.975.975,0,0,1,1.248-.6.985.985,0,1,1-1.248.6M93,83.645a.643.643,0,0,0,.393.808.632.632,0,0,0,.42-1.193.642.642,0,0,0-.813.385m-3.291-1.7a.633.633,0,0,0,.384.816.641.641,0,0,0,.815-.389.649.649,0,0,0-.393-.817.637.637,0,0,0-.806.389m-1.24,1.963a1.417,1.417,0,1,0,1.813-.864,1.423,1.423,0,0,0-1.813.864m1.594,2.482a.983.983,0,0,1,1.855.652.983.983,0,0,1-1.855-.652m-1.144,1.239a.639.639,0,1,0,.813-.392.641.641,0,0,0-.813.392M88.5,86.295a.639.639,0,1,1,.389.811.637.637,0,0,1-.389-.811m-1.247-1.031a.631.631,0,0,1,.808-.4.652.652,0,0,1,.393.815.635.635,0,0,1-1.2-.414m-.318-1.577a.648.648,0,0,1,.816-.386.635.635,0,1,1-.816.386m.519-1.774a.981.981,0,1,1,.6,1.254.988.988,0,0,1-.6-1.254m-1.042,5.007a.969.969,0,0,0,.6,1.249.982.982,0,1,0-.6-1.249m-.779-3.929a.636.636,0,1,1,.39.814.647.647,0,0,1-.39-.814m-6.269,1.944a.98.98,0,1,1,.594,1.254.984.984,0,0,1-.594-1.254m1.9,1.027a.639.639,0,0,0,.388.811.633.633,0,0,0,.813-.391.636.636,0,0,0-1.2-.42m.5,1.5a.638.638,0,1,1,1.2.434.623.623,0,0,1-.8.378.64.64,0,0,1-.395-.812m-1.148,1.361a.639.639,0,1,0,.818-.385.64.64,0,0,0-.818.385M80,90.181a.645.645,0,0,1,.813-.394.638.638,0,0,1,.387.814.635.635,0,0,1-1.2-.42m2.054-.933a1.416,1.416,0,1,0,1.8-.858,1.42,1.42,0,0,0-1.8.858m-4.194-1.913a1.416,1.416,0,1,0,1.8-.864,1.421,1.421,0,0,0-1.8.864m5.972-2.414a1.408,1.408,0,0,1,1.8-.865,1.418,1.418,0,1,1-1.8.865M75.676,86.3a.983.983,0,1,1,.6,1.268.994.994,0,0,1-.6-1.268m7.77.992a.634.634,0,1,1,1.194.429.634.634,0,1,1-1.194-.429M78.1,83.836a.635.635,0,1,0,.807-.389.627.627,0,0,0-.807.389M77.669,85.4a.634.634,0,1,1,.388.811.64.64,0,0,1-.388-.811m7.9,3.666a.981.981,0,1,1,.6,1.249.984.984,0,0,1-.6-1.249m-.593-1.4a.635.635,0,0,1,.816-.382.634.634,0,0,1-.421,1.2.649.649,0,0,1-.4-.815" transform="translate(-32.118 -33.27)" fill="#828c8f" fill-rule="evenodd"/>
    <path id="Caminho_98" data-name="Caminho 98" d="M80.073,29.288a.638.638,0,1,1-.633.637.64.64,0,0,1,.633-.637m.44,1.567a.632.632,0,0,1,.642.631.638.638,0,0,1-1.277,0,.629.629,0,0,1,.635-.631m-1.382-.581a.635.635,0,1,0,.637.632.639.639,0,0,0-.637-.632m1.65,2.141a.635.635,0,1,1-.633.636.631.631,0,0,1,.633-.636m-1.65-.767a.983.983,0,1,0,.983.983.994.994,0,0,0-.983-.983m2.145,2.2a.637.637,0,0,1,0,1.275.637.637,0,1,1,0-1.275m-6.954.175a.636.636,0,1,1-.639.639.637.637,0,0,1,.639-.639m5.481-.361a.639.639,0,1,0,.635.64.635.635,0,0,0-.635-.64M81.857,38.7a.639.639,0,1,1-.634.644.638.638,0,0,1,.634-.644m-.043-1.426a.639.639,0,0,1,.632.635.637.637,0,1,1-1.273,0,.642.642,0,0,1,.641-.635M76.1,33.325a.986.986,0,1,1-.979.989.994.994,0,0,1,.979-.989M78.154,34a.981.981,0,0,1,0,1.963.981.981,0,1,1,0-1.963m2.09,1.01a1.419,1.419,0,1,0,1.421,1.412,1.428,1.428,0,0,0-1.421-1.412m.365,3.115a.643.643,0,0,0-.639.637.637.637,0,1,0,.639-.637M78.1,36.607a.635.635,0,1,1-.634.639.637.637,0,0,1,.634-.639M75.2,35.244a.982.982,0,1,0,.977.98.988.988,0,0,0-.977-.98m1.795.511a.637.637,0,1,0,.636.636.642.642,0,0,0-.636-.636M74.1,37.1a.633.633,0,1,1-.633.629A.633.633,0,0,1,74.1,37.1m.049,1.513a.635.635,0,1,1-.639.633.635.635,0,0,1,.639-.633m8.067,3.166a.641.641,0,0,1,.64.635.637.637,0,1,1-1.274,0,.635.635,0,0,1,.634-.635m-.667-1.741a.636.636,0,1,1-.635.64.635.635,0,0,1,.635-.64m-1.411-.476a.638.638,0,1,1-.629.64.638.638,0,0,1,.629-.64M78.76,37.869a.986.986,0,1,0,.979.989.986.986,0,0,0-.979-.989m-2.529-.806a1.416,1.416,0,1,0,1.411,1.417,1.418,1.418,0,0,0-1.411-1.417M74.4,63.232a.638.638,0,1,1-.631.636.638.638,0,0,1,.631-.636M73.2,62.3a.635.635,0,1,0,.64.633.639.639,0,0,0-.64-.633m3.127-1.549a.981.981,0,1,1-.989.983.979.979,0,0,1,.989-.983m.58-20.659a.634.634,0,1,1-.639.631.637.637,0,0,1,.639-.631M75.1,39.871a.982.982,0,1,0,.981.977.983.983,0,0,0-.981-.977m3.473.265a.984.984,0,1,0,.983.979.983.983,0,0,0-.983-.979m1.922.937a.985.985,0,1,0,.976.983.985.985,0,0,0-.976-.983m-5.733,2.309a.638.638,0,1,1-.632.641.636.636,0,0,1,.632-.641m.4-1.374a.635.635,0,1,1-.628.628.638.638,0,0,1,.628-.628m1.392-.543a.639.639,0,1,1-.636.639.644.644,0,0,1,.636-.639m1.294.629a.639.639,0,1,1-.636.636.637.637,0,0,1,.636-.636m1.384.532a.636.636,0,1,1-.637.636.63.63,0,0,1,.637-.636m-.983,1.118a.637.637,0,0,0-.639.634.644.644,0,0,0,.639.639.636.636,0,0,0,.636-.639.629.629,0,0,0-.636-.634m2.894-.7a1.417,1.417,0,1,0,1.415,1.417,1.411,1.411,0,0,0-1.415-1.417m-.577,3.023a.635.635,0,1,1-.64.632.641.641,0,0,1,.64-.632m-4.079-3.208a.981.981,0,1,0,.982.979.984.984,0,0,0-.982-.979m-1.045,1.891a.983.983,0,1,1-.984.98.984.984,0,0,1,.984-.98m1.856.077a.627.627,0,0,1,.629.628.634.634,0,1,1-.629-.628m1.747.116a.983.983,0,1,1-.984.98.985.985,0,0,1,.984-.98M73.193,46.9a.985.985,0,1,1-.979.984.983.983,0,0,1,.979-.984m7.587.628a.636.636,0,1,1-.633.633.633.633,0,0,1,.633-.633M73.16,49.047a.64.64,0,0,1,.634.641.636.636,0,0,1-1.272,0,.642.642,0,0,1,.638-.641m1.776-2.227a.636.636,0,1,1-.626.636.637.637,0,0,1,.626-.636m4.465.4a.642.642,0,1,0,.641.64.648.648,0,0,0-.641-.64m-2.236-.924a1.417,1.417,0,1,0,1.423,1.419,1.418,1.418,0,0,0-1.423-1.419m-2.315,1.993a.983.983,0,1,0,.984.982.986.986,0,0,0-.984-.982M70.531,56.1a.635.635,0,1,1-.644.635.637.637,0,0,1,.644-.635m7.351,1.826a.639.639,0,1,1-.633.639.636.636,0,0,1,.633-.639m-1.027,1.114a.637.637,0,0,0,0,1.274.637.637,0,1,0,0-1.274m0-9.7a.982.982,0,1,1-.984.984.986.986,0,0,1,.984-.984m2.722-.675a1.418,1.418,0,1,0,1.418,1.419,1.425,1.425,0,0,0-1.418-1.419m.125,3.107a.983.983,0,1,1-.984.98.986.986,0,0,1,.984-.98m-6.83-1.284a.637.637,0,1,1-.633.639.641.641,0,0,1,.633-.639m1.416-.134a.639.639,0,1,1,0,1.277.639.639,0,0,1,0-1.277m3.748,1.035a.637.637,0,1,1,0,1.274.637.637,0,0,1,0-1.274m-4.626.4a.984.984,0,1,1-.984.989.991.991,0,0,1,.984-.989m4.744,1.272a.981.981,0,1,0,0,1.962.981.981,0,0,0,0-1.962m.521,2.073a1.415,1.415,0,1,0,1.418,1.41,1.419,1.419,0,0,0-1.418-1.41m-9.153,3.11a.638.638,0,0,1,0,1.275.638.638,0,0,1,0-1.275m1.455,1.262a.985.985,0,1,0,.989.984.987.987,0,0,0-.989-.984m.854-6.057a1.415,1.415,0,1,0,1.417,1.415,1.419,1.419,0,0,0-1.417-1.415m-.614,3.9a.983.983,0,1,0,.98.984.982.982,0,0,0-.98-.984m4.751-5.968A1.413,1.413,0,1,0,77.378,52.8a1.418,1.418,0,0,0-1.411-1.411m.6,3.221a.64.64,0,0,1,.641.633.639.639,0,1,1-1.277,0,.634.634,0,0,1,.636-.633m-2.03-.484a.985.985,0,1,1-.989.987.992.992,0,0,1,.989-.987m-1.511,2.062a.984.984,0,1,1-.989.992.986.986,0,0,1,.989-.992m-.421,2.639a.635.635,0,1,1,0,1.27.635.635,0,0,1,0-1.27m1.216-.671a.637.637,0,0,0,0,1.274.637.637,0,1,0,0-1.274m1.971-2.211a1.415,1.415,0,1,0,1.413,1.415,1.423,1.423,0,0,0-1.413-1.415M73.16,60.2a.983.983,0,1,1-.988.985.991.991,0,0,1,.988-.985M75.1,58.992a.98.98,0,1,0,.981.978.98.98,0,0,0-.981-.978m-.461,2.857a.643.643,0,1,0,.639.641.641.641,0,0,0-.639-.641M44.423,8.585a.625.625,0,0,1,.805-.389.647.647,0,0,1,.389.817.638.638,0,0,1-.816.379.621.621,0,0,1-.379-.807m.47-7.643a.633.633,0,0,1,1.194.419.628.628,0,0,1-.807.394.621.621,0,0,1-.388-.813m1.558.272a.637.637,0,0,1,.81-.39.637.637,0,1,1-.81.39M43.76,6.795a.985.985,0,0,0,1.858.658,1,1,0,0,0-.605-1.262.986.986,0,0,0-1.252.6m4.2-5.568a.637.637,0,1,1,.393.811.642.642,0,0,1-.393-.811M45.807,7.85a.638.638,0,1,0,1.206.415.638.638,0,0,0-1.206-.415M45.6,4.415a.641.641,0,0,1,1.209.423.652.652,0,0,1-.824.392.645.645,0,0,1-.385-.815m1.7-1.863a.636.636,0,1,0,.813-.383.634.634,0,0,0-.813.383M52.735,2.3a.638.638,0,1,1,.388.806.625.625,0,0,1-.388-.806m-1.361-.432a.635.635,0,1,0,1.2.419.635.635,0,1,0-1.2-.419M45.757,5.928a.985.985,0,0,1,1.253-.6.985.985,0,0,1-.658,1.858.987.987,0,0,1-.595-1.259m1.31-1.707a.984.984,0,1,0,1.255-.6.99.99,0,0,0-1.255.6m1.65-1.631a1.418,1.418,0,1,0,1.809-.863,1.422,1.422,0,0,0-1.809.863m3.057.687a.632.632,0,0,0,.388.812.625.625,0,0,0,.806-.385.634.634,0,1,0-1.194-.427M49.512,5.129a.64.64,0,0,1,.813-.384.637.637,0,0,1-.422,1.2.646.646,0,0,1-.391-.817m-2.263,2.3a.991.991,0,0,1,1.258-.6.979.979,0,1,1-1.258.6M48.344,5.9a.633.633,0,1,1,.384.812.638.638,0,0,1-.384-.812m.293,3.182a.64.64,0,0,0,.393.805.632.632,0,0,0,.808-.383.637.637,0,1,0-1.2-.422m1.449.455a.634.634,0,0,1,.808-.385.644.644,0,0,1,.393.808.637.637,0,0,1-1.2-.422m5.677-6.555a.631.631,0,0,1,.807-.393.639.639,0,0,1-.427,1.2.627.627,0,0,1-.379-.811m-1.871.048a.64.64,0,0,0,1.2.431.64.64,0,0,0-1.2-.431m-.915,1.176a.645.645,0,0,1,.814-.4.652.652,0,0,1,.389.82.644.644,0,0,1-.816.383.636.636,0,0,1-.387-.806m-2.053.729a.986.986,0,0,1,1.859.658.994.994,0,0,1-1.262.6.981.981,0,0,1-.6-1.253m-1.6,2.114a1.417,1.417,0,0,0,.857,1.816A1.437,1.437,0,0,0,51.989,8a1.415,1.415,0,1,0-2.664-.952M73.387,17.486a.638.638,0,1,1,1.2.423.656.656,0,0,1-.819.388.648.648,0,0,1-.384-.812m-1.706-2.634a.982.982,0,1,1,.6,1.252.987.987,0,0,1-.6-1.252M52.39,7.425a.639.639,0,1,1,.393.814.64.64,0,0,1-.393-.814m-.8,1.63a.982.982,0,1,1,.6,1.257.983.983,0,0,1-.6-1.257M53,5.868a.984.984,0,0,0,.593,1.258,1,1,0,0,0,1.257-.606.982.982,0,0,0-.6-1.252.97.97,0,0,0-1.245.6m1.514-1.5a.985.985,0,1,0,1.256-.6.982.982,0,0,0-1.256.6m.274,6.175a.639.639,0,0,1,.814-.387.634.634,0,1,1-.43,1.192.635.635,0,0,1-.384-.8M53.616,9.7a.653.653,0,0,0,.4.814.642.642,0,0,0,.812-.388.649.649,0,0,0-.384-.817.656.656,0,0,0-.823.392m-.036-1.48a.634.634,0,0,0,1.195.422.634.634,0,1,0-1.195-.422m1.012-1.012a.637.637,0,0,1,.815-.389.634.634,0,0,1-.421,1.2.644.644,0,0,1-.395-.807m.969-1.128a.634.634,0,1,1,1.2.423.63.63,0,0,1-.807.389.637.637,0,0,1-.389-.812m.725,1.3a.645.645,0,0,0,.384.812.637.637,0,0,0,.819-.389.638.638,0,0,0-1.2-.423m.305-2.965a1.414,1.414,0,1,0,1.8-.86,1.418,1.418,0,0,0-1.8.86m2.651,1.551a.637.637,0,1,1,.388.81.643.643,0,0,1-.388-.81M54.861,8.747a.985.985,0,1,0,1.252-.6.989.989,0,0,0-1.252.6M56.3,10.365a.982.982,0,1,1,1.852.655.982.982,0,0,1-1.852-.655m.689-1.732a.649.649,0,0,1,.815-.382.631.631,0,0,1,.388.806.638.638,0,0,1-.811.391.646.646,0,0,1-.392-.815m.7-1.6a.981.981,0,1,1,.6,1.247.982.982,0,0,1-.6-1.247m-.093,6.16a.98.98,0,1,1,1.847.655.98.98,0,0,1-1.847-.655m3.123-6.942a.633.633,0,0,1,.808-.395.639.639,0,0,1-.426,1.205.631.631,0,0,1-.383-.811M59.6,13.94a.625.625,0,0,0,.388.809.632.632,0,0,0,.806-.381.638.638,0,0,0-.386-.817.628.628,0,0,0-.808.389M58.1,11.512a.632.632,0,0,0,.384.818.638.638,0,1,0,.415-1.206.632.632,0,0,0-.8.388m1.862-4.068a.635.635,0,1,0,1.2.422.637.637,0,0,0-.391-.807.623.623,0,0,0-.806.385m-1.618,1.8a1.414,1.414,0,1,0,1.8-.87,1.412,1.412,0,0,0-1.8.87m1.094,2.842a1,1,0,0,0,.605,1.258.983.983,0,1,0-.605-1.258m5.937,6.674a.632.632,0,0,1,.805-.384.634.634,0,1,1-.418,1.2.626.626,0,0,1-.388-.813m4.172-6.332a.632.632,0,0,1,.8-.383.633.633,0,1,1-.8.383m.708,1.34a.637.637,0,1,0,.811-.384.636.636,0,0,0-.811.384M61.1,10.553a.983.983,0,1,1,.6,1.247.983.983,0,0,1-.6-1.247m.27-2.791a1.414,1.414,0,1,0,1.8-.866,1.414,1.414,0,0,0-1.8.866m2.966.914a.98.98,0,0,1,1.253-.6.981.981,0,1,1-.653,1.851.978.978,0,0,1-.6-1.25m-3.48,6.008a.635.635,0,1,1,1.2.422.635.635,0,1,1-1.2-.422m.351-1.378a.636.636,0,1,1,.387.807.63.63,0,0,1-.387-.807m2.222-3.186a.648.648,0,0,1,.811-.393.642.642,0,0,1,.385.816.635.635,0,0,1-1.2-.423m-1.167,4.495a.983.983,0,1,0,1.253-.6.983.983,0,0,0-1.253.6m2.779-4.049a.981.981,0,1,0,1.247-.605.986.986,0,0,0-1.247.605m2.126.2A1.415,1.415,0,1,0,68.98,9.9a1.419,1.419,0,0,0-1.809.865m-.115,9.67a.645.645,0,0,1,.816-.388.634.634,0,0,1,.387.808.637.637,0,1,1-1.2-.42M63.3,16.657a1.418,1.418,0,1,0,1.806-.867,1.414,1.414,0,0,0-1.806.867m3.479,1.879a.982.982,0,1,0,1.249-.6.985.985,0,0,0-1.249.6m-4.05-6.463a1.412,1.412,0,0,0,.862,1.806,1.415,1.415,0,1,0,.943-2.669,1.414,1.414,0,0,0-1.8.863m3.235.5a.646.646,0,0,1,.815-.392.634.634,0,0,1,.389.808.637.637,0,0,1-1.2-.416m-1.12,1.747a.984.984,0,1,1,.6,1.258.983.983,0,0,1-.6-1.258m1.437,2.122a.983.983,0,1,1,.6,1.252.984.984,0,0,1-.6-1.252m2.342,1.269a.637.637,0,1,1,1.2.42.631.631,0,0,1-.813.389.64.64,0,0,1-.389-.809m-.225-1.38a.648.648,0,0,0,.393.82.639.639,0,0,0,.423-1.205.648.648,0,0,0-.816.385m-1.431-2.586a1.418,1.418,0,1,0,1.808-.865,1.427,1.427,0,0,0-1.808.865m2.643,1.675a.982.982,0,1,0,1.259-.6.986.986,0,0,0-1.259.6M72.167,16.8a.637.637,0,0,0,.384.811.64.64,0,1,0-.384-.811m-56.473,4.4a.633.633,0,0,1,1-.778.631.631,0,0,1-.105.894.639.639,0,0,1-.893-.116M9.5,16.71a.642.642,0,0,1,.115-.893.631.631,0,0,1,.89.116.622.622,0,0,1-.11.884A.645.645,0,0,1,9.5,16.71m1.069-1.171a.637.637,0,1,0,.106-.889.623.623,0,0,0-.106.889m2,3.933a.638.638,0,1,1,.882.1.629.629,0,0,1-.882-.1m-1.588-2.164a.981.981,0,1,0,.167-1.375.987.987,0,0,0-.167,1.375M13.832,20.8a.985.985,0,1,0,.17-1.37.977.977,0,0,0-.17,1.37m-2.439-6.527a.638.638,0,1,1,1-.787.636.636,0,0,1-.108.892.645.645,0,0,1-.9-.105m4.43,5.363a.634.634,0,1,1,.888.114.639.639,0,0,1-.888-.114m-3.011-1.671a.636.636,0,0,1,1.005-.781.63.63,0,0,1-.11.893.638.638,0,0,1-.895-.112m-.654-2.428a.639.639,0,0,1,.108-.888.631.631,0,0,1,.891.105.635.635,0,1,1-1,.783m2.7-4.722a.637.637,0,1,1,.892.108.635.635,0,0,1-.892-.108m-1.1.909a.633.633,0,1,0,1-.78.619.619,0,0,0-.886-.1.63.63,0,0,0-.113.884m.412,6.933a.989.989,0,0,1,.168-1.378.983.983,0,1,1-.168,1.378m-.734-2.026a.981.981,0,1,0,.163-1.382.991.991,0,0,0-.163,1.382m-.494-2.274a1.415,1.415,0,1,0,.244-1.988,1.413,1.413,0,0,0-.244,1.988m2.232-2.2a.633.633,0,0,0,.888.109.637.637,0,1,0-.888-.109m.341,2.9a.637.637,0,0,1,1-.785.637.637,0,1,1-1,.785m.725,3.136a.976.976,0,0,0,1.377.171A1,1,0,0,0,17.8,16.98.987.987,0,0,0,16.246,18.2M15.54,16.46a.638.638,0,1,0,1.008-.783.638.638,0,0,0-1.008.783m2.846,1.454a.623.623,0,0,1,.105-.887.636.636,0,1,1,.782,1,.629.629,0,0,1-.888-.115m1.161-.966a.645.645,0,0,0,.9.107.637.637,0,0,0-.788-1,.646.646,0,0,0-.11.9M17.067,8.633a.635.635,0,1,1,.892.114.629.629,0,0,1-.892-.114m-.955,1.6a.633.633,0,1,0,.105-.893.631.631,0,0,0-.105.893m.489,1.4a.636.636,0,1,1,1-.782.636.636,0,0,1-1,.782M16.12,13.77a.986.986,0,1,1,1.38.163.985.985,0,0,1-1.38-.163m.924,2.489a1.43,1.43,0,0,0,1.986.245,1.418,1.418,0,1,0-1.986-.245M35.63,1.587A.985.985,0,0,1,37.181.373a.993.993,0,0,1-.167,1.382,1,1,0,0,1-1.383-.169M19,13.869a.632.632,0,0,1,.116-.892.625.625,0,0,1,.889.1.638.638,0,0,1-.108.893.653.653,0,0,1-.9-.1m.947,1.554a.984.984,0,1,1,1.378.16.971.971,0,0,1-1.378-.16m-1.935-2.906a.982.982,0,1,0,.167-1.375.985.985,0,0,0-.167,1.375m-.444-2.087a.983.983,0,1,0,1.548-1.212.983.983,0,1,0-1.548,1.212m5.358,3.082a.634.634,0,0,1,1-.782.634.634,0,0,1-1,.782m-1.339.538a.635.635,0,0,0,1-.783.635.635,0,1,0-1,.783M20.311,13.3a.639.639,0,1,0,.11-.9.64.64,0,0,0-.11.9m-.3-1.4a.649.649,0,0,1,.113-.9.635.635,0,1,1-.113.9m-.429-1.426a.637.637,0,1,1,.9.1.629.629,0,0,1-.9-.1m1.482.082a.632.632,0,0,0,.893.11.647.647,0,0,0,.116-.893.657.657,0,0,0-.9-.11.641.641,0,0,0-.105.893M18.721,8.715a1.417,1.417,0,1,0,.242-2,1.421,1.421,0,0,0-.242,2M21.456,7.3a.635.635,0,1,1,.895.1.635.635,0,0,1-.895-.1m-.009,5.188a.982.982,0,1,0,.165-1.375.979.979,0,0,0-.165,1.375m2.137-.341a.98.98,0,0,0,1.375.171A.982.982,0,1,0,23.75,10.77a.981.981,0,0,0-.166,1.378M22.5,10.638a.639.639,0,0,1,.106-.893.648.648,0,0,1,.9.106.638.638,0,0,1-.113.9.63.63,0,0,1-.89-.111m-.993-1.45a1,1,0,0,1,.172-1.382.982.982,0,1,1-.172,1.382m5.144,3.391a.982.982,0,0,1,.174-1.377.968.968,0,0,1,1.371.165.982.982,0,1,1-1.545,1.212M22.475,6.213a.647.647,0,0,0,.9.109.636.636,0,1,0-.9-.109m5.9,5.073a.635.635,0,1,0,1-.782.644.644,0,0,0-.893-.11.636.636,0,0,0-.108.892m-2.858-.031a.636.636,0,1,1,.893.109.638.638,0,0,1-.893-.109M23.083,7.5a.647.647,0,0,0,.895.106.629.629,0,0,0,.106-.892.636.636,0,1,0-1,.786m.648,2.333a1.419,1.419,0,1,1,1.989.238,1.43,1.43,0,0,1-1.989-.238m2.992.6a1,1,0,0,0,1.389.167.986.986,0,1,0-1.389-.167m8.821-1.415a.637.637,0,1,1,.891.112.639.639,0,0,1-.891-.112m-3.091-6.93a.617.617,0,0,1,.1-.884.637.637,0,1,1,.786,1,.623.623,0,0,1-.888-.118m1.51.131a.635.635,0,1,1,.888.106.632.632,0,0,1-.888-.106M26.32,8.2a.977.977,0,0,0,1.378.169A.982.982,0,1,0,26.32,8.2M24.114,6.469a1.414,1.414,0,1,1,1.985.245,1.414,1.414,0,0,1-1.985-.245m2.369-2.007a.981.981,0,1,0,.167-1.381.986.986,0,0,0-.167,1.381m3.194,6.157a.635.635,0,1,1,.894.116.628.628,0,0,1-.894-.116M28.7,9.588a.637.637,0,1,1,.893.1.633.633,0,0,1-.893-.1M27.21,6a.635.635,0,1,1,.888.115A.635.635,0,0,1,27.21,6m3.165,3.41a.983.983,0,1,0,.17-1.389.984.984,0,0,0-.17,1.389M28.448,4.882a.984.984,0,1,1,1.38.171.987.987,0,0,1-1.38-.171M29.762,3.2A1.419,1.419,0,1,0,30,1.214,1.417,1.417,0,0,0,29.762,3.2m2.891,6.42a1.415,1.415,0,1,0,2.229-1.745A1.415,1.415,0,0,0,32.653,9.62M28.479,7.643a1.415,1.415,0,1,1,1.992.245,1.424,1.424,0,0,1-1.992-.245m2.165-2.461a.639.639,0,0,0,.893.105.637.637,0,0,0-.787-1,.635.635,0,0,0-.106.9m.873,1.885a.98.98,0,1,1,1.546-1.2.98.98,0,1,1-1.546,1.2M34.076,7a.985.985,0,1,1,1.38.171A.99.99,0,0,1,34.076,7M36.41,5.7a.631.631,0,0,1,.1-.893.652.652,0,0,1,.9.106.644.644,0,0,1-.116.9.626.626,0,0,1-.885-.11m-1.286-.549a.638.638,0,1,0,.109-.892.643.643,0,0,0-.109.892M32.179,4.97a1.416,1.416,0,1,0,.24-1.986,1.418,1.418,0,0,0-.24,1.986m2.827-1.334a.985.985,0,0,0,1.377.174,1,1,0,0,0,.169-1.388.984.984,0,0,0-1.381-.161.972.972,0,0,0-.165,1.374m2.536-1.41a.635.635,0,1,0,1-.782.634.634,0,0,0-.895-.106.623.623,0,0,0-.106.888M14.576,59.393a.634.634,0,1,1-.432-1.193.641.641,0,0,1,.816.388.622.622,0,0,1-.384.8M6.634,61.3a.638.638,0,0,1-.812-.38.647.647,0,0,1,.387-.818.638.638,0,0,1,.811.392.629.629,0,0,1-.387.806m6.493-2.509a.652.652,0,0,1-.818-.389.634.634,0,0,1,.386-.811.638.638,0,0,1,.432,1.2M8.082,60.968a.646.646,0,0,1-.818-.382.636.636,0,0,1,.391-.813.625.625,0,0,1,.8.38.633.633,0,0,1-.377.815M4.448,56.914a.635.635,0,1,1,.388-.811.642.642,0,0,1-.388.811m.528,1.329a.636.636,0,1,0-.814-.377.629.629,0,0,0,.814.377M9.524,60.1a.985.985,0,1,0-1.263-.592,1,1,0,0,0,1.263.592m-2.31-.242a1.441,1.441,0,0,0,.854-1.828,1.417,1.417,0,1,0-.854,1.828m-1.4-2.813a.635.635,0,1,0-.427-1.2.635.635,0,1,0,.427,1.2m2.865.586a.636.636,0,0,1-.811-.389.628.628,0,0,1,.384-.811.637.637,0,1,1,.427,1.2m3.206.3a.978.978,0,0,0,.59-1.252.98.98,0,1,0-.59,1.252m-1.871.125a.651.651,0,0,1-.815-.389.643.643,0,0,1,.387-.811.637.637,0,0,1,.427,1.2M12.3,55.812a.64.64,0,1,1-.426-1.207.64.64,0,0,1,.426,1.207M11.741,54.4a.635.635,0,1,0-.817-.382.639.639,0,0,0,.817.382m-8.668-.26a.633.633,0,1,1,.381-.807.62.62,0,0,1-.381.807M4.294,55.55a.629.629,0,0,0,.376-.814.638.638,0,0,0-.811-.385.652.652,0,0,0-.384.821.641.641,0,0,0,.819.378m1.48-.024a.637.637,0,0,0-.431-1.2.637.637,0,0,0,.431,1.2m1.863,1.13a.982.982,0,1,1,.6-1.254.989.989,0,0,1-.6,1.254m2.662-.094A1.418,1.418,0,1,0,8.488,55.7a1.426,1.426,0,0,0,1.811.859M3.173,31.313a.636.636,0,0,1-.811-.381.65.65,0,0,1,.384-.823.656.656,0,0,1,.821.389.643.643,0,0,1-.393.815m1.455.476a.638.638,0,1,1,.383-.817.639.639,0,0,1-.383.817M2.211,34.3a.981.981,0,0,1-.662-1.847A.981.981,0,1,1,2.211,34.3m6.432,19.65a.636.636,0,1,1-.426-1.2.629.629,0,0,1,.807.383.637.637,0,0,1-.38.815m1.772-.415a.978.978,0,1,1-.662-1.841.978.978,0,1,1,.662,1.841m-3.364.927A.982.982,0,0,1,5.8,53.869a.981.981,0,1,1,1.848-.661.977.977,0,0,1-.6,1.252m-2.116-.23a.987.987,0,0,0-.667-1.858,1,1,0,0,0-.595,1.262.983.983,0,0,0,1.262.6m4.61-4.108a.642.642,0,1,1,.387-.819.648.648,0,0,1-.387.819m.089,1.434a.64.64,0,1,0-.816-.387.645.645,0,0,0,.816.387m-1.123.965a.636.636,0,1,0-.816-.385.645.645,0,0,0,.816.385m-1.43-.149a.639.639,0,1,0-.427-1.2.651.651,0,0,0-.388.823.638.638,0,0,0,.816.381M5.6,52.334a.655.655,0,0,0,.384-.815.637.637,0,1,0-1.2.431.633.633,0,0,0,.815.384m.542-1.382a.635.635,0,0,1-.813-.388.637.637,0,1,1,.813.388M3.66,52.6A1.419,1.419,0,0,0,2.7,49.925,1.419,1.419,0,0,0,3.66,52.6m-.482-3.041a.637.637,0,0,1-.427-1.2.637.637,0,1,1,.427,1.2M8.107,51.19A.981.981,0,1,0,6.85,50.6a.982.982,0,0,0,1.258.589m.345-2.128A.985.985,0,0,0,9.047,47.8a.983.983,0,1,0-.595,1.258m-1.774.559a.645.645,0,0,0,.387-.819.635.635,0,0,0-.816-.376.621.621,0,0,0-.381.807.643.643,0,0,0,.811.388M5,50.1a.987.987,0,1,0-1.262-.6A1,1,0,0,0,5,50.1m4.828-3.83a.981.981,0,1,1,.6-1.256.985.985,0,0,1-.6,1.256M2.473,48.247a.644.644,0,0,0,.386-.816.637.637,0,1,0-.386.816m6.666-4.006a.637.637,0,0,0,.385-.819.647.647,0,0,0-.816-.381.637.637,0,0,0,.43,1.2m-.922,2.7a.635.635,0,1,1-.429-1.2.635.635,0,0,1,.429,1.2m-4.337,1.13a.634.634,0,0,1-.812-.382.652.652,0,0,1,.386-.821.638.638,0,0,1,.426,1.2m2.418.123a1.42,1.42,0,1,1,.854-1.819A1.417,1.417,0,0,1,6.3,48.194m1.509-2.665a.972.972,0,0,0,.6-1.252,1,1,0,0,0-1.257-.6.988.988,0,0,0-.594,1.262.971.971,0,0,0,1.252.589m1.434-8.81a.639.639,0,0,1-.816-.375.651.651,0,0,1,.387-.827.638.638,0,0,1,.811.391.631.631,0,0,1-.381.811M1.7,37.486a.639.639,0,1,1,.38-.817.642.642,0,0,1-.38.817m.583-1.4a.643.643,0,0,0,.383-.817.633.633,0,1,0-.383.817m3.277,9.129a.987.987,0,0,0,.594-1.262.984.984,0,0,0-1.851.667.99.99,0,0,0,1.258.595M3.226,46.777a1.419,1.419,0,1,1,.859-1.814,1.42,1.42,0,0,1-.859,1.814m-1.17-2.887A.979.979,0,1,0,.806,43.3a.969.969,0,0,0,1.25.593m6.867-1.1a.638.638,0,1,1,.381-.813.633.633,0,0,1-.381.813m-1.291.6a.631.631,0,0,1-.811-.388.635.635,0,1,1,.811.388m-3.873.284a.634.634,0,1,1,.382-.806.633.633,0,0,1-.382.806m4.223-1.933a.985.985,0,1,0-1.256-.591.985.985,0,0,0,1.256.591m-4.9.408a.984.984,0,0,1-.66-1.854.984.984,0,1,1,.66,1.854M1.9,40.38a1.419,1.419,0,0,0-.96-2.671,1.435,1.435,0,0,0-.855,1.821,1.418,1.418,0,0,0,1.815.85m7.559-6.021a.638.638,0,0,1-.806-.392.628.628,0,0,1,.381-.809.637.637,0,1,1,.425,1.2m-1.8-.691A.984.984,0,0,1,7,31.812a.984.984,0,1,1,.657,1.856M8.9,39.65A1.415,1.415,0,1,0,7.089,38.8,1.419,1.419,0,0,0,8.9,39.65m-.735-3.883A.98.98,0,1,0,7.5,33.924a.98.98,0,1,0,.667,1.843M5.71,43a1.42,1.42,0,1,1,.858-1.811A1.424,1.424,0,0,1,5.71,43M4.057,40.164a.629.629,0,0,0,.379-.816.635.635,0,1,0-.379.816m2.073-.235a.985.985,0,1,1,.6-1.263,1,1,0,0,1-.6,1.263m.735-2.453a.982.982,0,1,1,.59-1.258.993.993,0,0,1-.59,1.258m-.5-2.615a.638.638,0,1,0-.813-.39.638.638,0,0,0,.813.39M5.438,35.9a.635.635,0,1,0-.427-1.2.635.635,0,0,0,.427,1.2m-1.1,2.746a1.414,1.414,0,1,1,.862-1.81,1.423,1.423,0,0,1-.862,1.81m1.039-4.911a.986.986,0,1,0-1.253-.595.99.99,0,0,0,1.253.595M3.961,35.544A.985.985,0,1,0,2.7,34.952a.993.993,0,0,0,1.256.592m-.54-2.863a.617.617,0,0,0,.379-.806.623.623,0,0,0-.808-.383.641.641,0,0,0-.385.813.633.633,0,0,0,.815.376M35.16,80.938a.637.637,0,0,1-.854.287.629.629,0,0,1-.3-.849.642.642,0,0,1,.849-.293.649.649,0,0,1,.3.855m-1.6-.288a.636.636,0,1,1-1.142-.559.621.621,0,0,1,.846-.288.631.631,0,0,1,.3.847M32.03,80.21a.634.634,0,1,1-.285-.851.629.629,0,0,1,.285.851m1.421-1.149a.983.983,0,1,0-1.319.448,1,1,0,0,0,1.319-.448m-2.909.956a.637.637,0,1,1-.292-.852.654.654,0,0,1,.292.852m2.9-6.323a.637.637,0,0,1-1.142-.563.637.637,0,0,1,1.142.563m-.192,3.432a.637.637,0,1,1-1.144-.56.634.634,0,0,1,.851-.3.643.643,0,0,1,.293.856m-1.9,1.649a.638.638,0,1,0-.854.288.635.635,0,0,0,.854-.288m-5.428-.38a.638.638,0,0,1-1.149-.553.638.638,0,1,1,1.149.553m1.3.585a.638.638,0,0,0-1.147-.56.638.638,0,1,0,1.147.56m6.057-3.385a.983.983,0,1,0-1.312.454.986.986,0,0,0,1.312-.454m-1.506,1.55a.983.983,0,1,1-.446-1.307.978.978,0,0,1,.446,1.307m-1.835,1.43a1.414,1.414,0,1,0-1.9.656,1.415,1.415,0,0,0,1.9-.656m-2.951-1.042a.637.637,0,0,0-1.14-.568.634.634,0,0,0,.3.854.622.622,0,0,0,.845-.286m2.462-1.574a.634.634,0,1,1-.285-.851.632.632,0,0,1,.285.851m2.512-2.022a.982.982,0,1,0-1.312.454.992.992,0,0,0,1.312-.454m-1.26,1.4a.636.636,0,1,0-1.137-.57.634.634,0,0,0,.288.858.646.646,0,0,0,.849-.288m.072-3.195a.635.635,0,0,1-1.137-.563.642.642,0,0,1,.854-.288.633.633,0,0,1,.284.851M29.4,71.507a.637.637,0,1,0-.85.294.64.64,0,0,0,.85-.294m-6.4,5.856a.637.637,0,1,1-1.14-.567.66.66,0,0,1,.854-.292.648.648,0,0,1,.286.859m1.864.169a.639.639,0,0,0-.3-.855A.636.636,0,0,0,24,77.819a.652.652,0,0,0,.854-.286M25.9,76.474a.633.633,0,1,1-1.137-.557.633.633,0,0,1,.849-.295.642.642,0,0,1,.288.852m2.122-.492a.977.977,0,0,1-1.31.453.984.984,0,1,1,1.31-.453m1.845-1.916a1.415,1.415,0,0,0-2.542-1.247,1.415,1.415,0,1,0,2.542,1.247m-3.008-.72a.648.648,0,0,1-.861.286.638.638,0,0,1,.568-1.142.652.652,0,0,1,.293.856m.985-1.532a.98.98,0,0,1-1.31.448.991.991,0,0,1-.456-1.315,1.008,1.008,0,0,1,1.324-.453.992.992,0,0,1,.442,1.32M26.075,74.82a.984.984,0,1,0-1.31.451.984.984,0,0,0,1.31-.451M24.39,76.129a.982.982,0,1,0-1.316.448.985.985,0,0,0,1.316-.448m.45-6.162a.642.642,0,0,1-.858.293.649.649,0,0,1-.288-.855.628.628,0,0,1,.85-.288.637.637,0,0,1,.3.849m1.062.964a.634.634,0,1,0-1.142-.551.634.634,0,0,0,1.142.551m-.129,1.482a.636.636,0,1,0-.847.294.636.636,0,0,0,.847-.294m-1.136.891a.623.623,0,0,1-.845.285.637.637,0,1,1,.845-.285m-1.086,1a.631.631,0,1,1-1.138-.548.633.633,0,0,1,.85-.3.626.626,0,0,1,.288.846m-.567-1.368a.635.635,0,1,0-.85.288.629.629,0,0,0,.85-.288m-.643,2.909a1.413,1.413,0,1,0-1.895.645,1.42,1.42,0,0,0,1.895-.645m-2.456-1.85a.65.65,0,0,1-.855.3.639.639,0,0,1,.559-1.148.645.645,0,0,1,.3.853m4.678-2.253a1,1,0,0,0-.453-1.321,1.009,1.009,0,0,0-1.323.459.987.987,0,0,0,1.775.862m-1.24-1.772a.982.982,0,1,0-1.323.45.993.993,0,0,0,1.323-.45M22.438,71.6a.638.638,0,1,1-.293-.85.639.639,0,0,1,.293.85m-.878,1.522a.987.987,0,0,1-1.315.446.974.974,0,0,1-.446-1.31.981.981,0,1,1,1.761.864m.816-6.112a.983.983,0,1,1-.457-1.319,1,1,0,0,1,.457,1.319m-3.907,6.536a.64.64,0,0,0-1.149-.564.634.634,0,0,0,.285.85.655.655,0,0,0,.863-.286m1.992-7.517a.638.638,0,1,0-1.145-.562.638.638,0,0,0,1.145.562m1.217,2.579a.645.645,0,0,1-.852.3.636.636,0,1,1,.852-.3m-2.321,3.831a.645.645,0,0,1-.855.288.638.638,0,0,1-.294-.855.641.641,0,0,1,1.149.567m1.809-1.6a1.416,1.416,0,1,1-.647-1.9,1.424,1.424,0,0,1,.647,1.9M20.4,67.889a.984.984,0,1,0-1.31.446.988.988,0,0,0,1.31-.446m-1.836,1.338a.978.978,0,0,0-.449-1.316.989.989,0,0,0-1.315.453.982.982,0,0,0,1.764.863m-.588,2.734a1.412,1.412,0,1,1-.649-1.9,1.433,1.433,0,0,1,.649,1.9m-2.837-1.247a.99.99,0,0,0-.455-1.319.978.978,0,0,0-1.313.448.991.991,0,0,0,.444,1.319,1,1,0,0,0,1.324-.448m4.151-5.573a.635.635,0,1,1-.292-.85.636.636,0,0,1,.292.85m-.508,1.337a.639.639,0,1,1-.293-.859.644.644,0,0,1,.293.859m-2.578,2.9a.638.638,0,1,0-.854.291.646.646,0,0,0,.854-.291m-1.545-.628a.983.983,0,1,1-1.766-.864.983.983,0,0,1,1.766.864m2.47-1.237a1.414,1.414,0,1,1-.648-1.892,1.417,1.417,0,0,1,.648,1.892m-3.163-.87a.634.634,0,1,1-.291-.843.627.627,0,0,1,.291.843M15.3,65.028a.982.982,0,1,0-1.31.454.983.983,0,0,0,1.31-.454m59.193-.312a.632.632,0,0,0-.9-.009.636.636,0,1,0,.892.907.628.628,0,0,0,.006-.9m-3.065,3.571a.634.634,0,1,1-.9.888.637.637,0,0,1,.009-.9.629.629,0,0,1,.895.012m.991-1.034a.637.637,0,1,0-.912.89.637.637,0,1,0,.912-.89m-1.453-.265a.634.634,0,1,0,0,.9.634.634,0,0,0,0-.9M69.482,70.7a.637.637,0,1,1-.9-.009.649.649,0,0,1,.9.009M70.251,69a.643.643,0,0,0-.9-.011.634.634,0,0,0-.007.9.641.641,0,0,0,.9.009.631.631,0,0,0,0-.9m-.643-1.344a.644.644,0,0,1-.009.9.633.633,0,0,1-.893,0,.637.637,0,1,1,.9-.9M48.7,80.143a.627.627,0,0,1-.014.891.634.634,0,0,1-.9,0,.646.646,0,0,1,.014-.906.624.624,0,0,1,.9.015m3.115-.381a.984.984,0,1,1-1.4,1.38.984.984,0,0,1,1.4-1.38M66.969,65.723a.622.622,0,0,1,0,.894.637.637,0,1,1-.888-.912.629.629,0,0,1,.893.018m-1.108-1.455a.981.981,0,1,0-.01,1.4.994.994,0,0,0,.01-1.4m2.25,2.685a.981.981,0,1,0-.017,1.377.978.978,0,0,0,.017-1.377m.666,2.016a.982.982,0,0,0-1.386-.018.994.994,0,0,0-.012,1.4.982.982,0,0,0,1.4-1.378M63.116,66.5a.639.639,0,0,1-.006.9.623.623,0,0,1-.9-.012.634.634,0,0,1,.007-.9.624.624,0,0,1,.9,0m1.275-.679a.641.641,0,1,1-.9-.006.631.631,0,0,1,.9.006m1.344.613a.636.636,0,1,0-.9.9.636.636,0,0,0,.9-.9m.463,1.362a.637.637,0,1,1-.911.889.637.637,0,0,1,.911-.889m.588,1.362a.64.64,0,0,1-.009.9.634.634,0,1,1-.892-.9.638.638,0,0,1,.9.005m-1.487.078a.637.637,0,0,1-.907.894.637.637,0,1,1,.907-.894m2.524,1.576a1.415,1.415,0,1,0-.018,2,1.41,1.41,0,0,0,.018-2m-2.558,1.706a.635.635,0,1,1-.907.889.635.635,0,0,1,.907-.889M64.7,67.357a.981.981,0,1,0-1.4,1.373.981.981,0,0,0,1.4-1.373m-2.083.578a.98.98,0,1,0-1.4,1.374.98.98,0,0,0,1.4-1.374m1.248,1.374a.646.646,0,0,1,0,.9.64.64,0,0,1-.9-.912.645.645,0,0,1,.9.011M65,70.639a.983.983,0,1,0-.013,1.393A.984.984,0,0,0,65,70.639m-5.486-2.8a.984.984,0,1,1-1.389-.013.988.988,0,0,1,1.389.013m4.857,5.866a.637.637,0,1,0-.01.9.641.641,0,0,0,.01-.9m-6.421-4.386a.636.636,0,1,0-.908.891.636.636,0,1,0,.908-.891m2.84-.288a.636.636,0,1,1-.9-.009.635.635,0,0,1,.9.009M63.628,72.5a.633.633,0,0,1-.01.9.638.638,0,0,1-.887-.917.634.634,0,0,1,.9.02m-.9-2.241a1.412,1.412,0,1,1-2-.029,1.414,1.414,0,0,1,2,.029m-3.041-.272a.984.984,0,1,0-.014,1.392,1,1,0,0,0,.014-1.392m-8.609,2.388a.635.635,0,1,1-.9-.014.627.627,0,0,1,.9.014m3.853,6.532a.633.633,0,0,1-.013.9.633.633,0,1,1,.013-.9m-1.52.048a.635.635,0,0,1-.907.89.635.635,0,0,1,.907-.89m6.927-6.8a.988.988,0,0,0-1.4,1.389.987.987,0,0,0,1.4-1.389m2.387,1.471A1.416,1.416,0,1,1,60.7,75.612a1.421,1.421,0,0,1,.019-2.007,1.438,1.438,0,0,1,2.006.026M60.59,75.893a.975.975,0,0,0-1.387-.012.982.982,0,1,0,1.373,1.4.976.976,0,0,0,.014-1.392m-3.868-5.775a.636.636,0,1,1-.892-.012.639.639,0,0,1,.892.012m1.087.924a.626.626,0,0,1-.012.9.619.619,0,0,1-.888-.009.635.635,0,0,1,0-.9.645.645,0,0,1,.9.009m1.887,3.4a.638.638,0,1,1-.9-.015.645.645,0,0,1,.9.015m-3.526-3.024a.984.984,0,0,0-1.4,1.379.993.993,0,0,0,1.389.008.979.979,0,0,0,.015-1.387m2.416,4.277a.983.983,0,0,1-1.406,1.375.983.983,0,1,1,1.406-1.375m-1.111,1.821a1.416,1.416,0,1,0-.024,2,1.417,1.417,0,0,0,.024-2m-8.638-4.357a.634.634,0,0,1-.007.892.644.644,0,0,1-.9,0,.631.631,0,0,1,.007-.9.645.645,0,0,1,.9.007m5.041-1.7a1.414,1.414,0,1,0-.017,2,1.411,1.411,0,0,0,.017-2m-3.218,2.29a.983.983,0,0,0-1.406,1.373.983.983,0,1,0,1.406-1.373m7.586-.794a1.415,1.415,0,1,1-2-.018,1.41,1.41,0,0,1,2,.018m-1.875,2.69a.634.634,0,1,0-.009.9.633.633,0,0,0,.009-.9m-1.083-1.782a.979.979,0,0,1-1.4,1.373.979.979,0,1,1,1.4-1.373m-2.529.356a.983.983,0,1,1-1.4,1.38.983.983,0,0,1,1.4-1.38m-2.165,1.548a.638.638,0,1,1-.9-.008.638.638,0,0,1,.9.008m1.327.4a.644.644,0,0,0-.9-.008.636.636,0,1,0,.9.008m2.956-.139a1.418,1.418,0,0,1-2.028,1.982,1.418,1.418,0,1,1,2.028-1.982m-4.9,1.107a.983.983,0,1,0-.014,1.389.982.982,0,0,0,.014-1.389m2.232.527a.984.984,0,1,0-.014,1.39.979.979,0,0,0,.014-1.39m-2.366,1.68a.639.639,0,0,0-.895-.007.632.632,0,0,0-.016.9.624.624,0,0,0,.9.008.64.64,0,0,0,.008-.9M45.589,9.517a.982.982,0,1,0,1.253-.6.984.984,0,0,0-1.253.6m-1.535.606a.635.635,0,1,1,.38.809.635.635,0,0,1-.38-.809M42.258,8.6a.981.981,0,1,1,.6,1.247.975.975,0,0,1-.6-1.247m-6.513,5.154a.983.983,0,1,1,.595,1.252.983.983,0,0,1-.595-1.252m.269-1.7a.633.633,0,0,0,.383.812.638.638,0,1,0,.423-1.2.633.633,0,0,0-.806.391m1.564.07a1.419,1.419,0,1,0,1.807-.858,1.414,1.414,0,0,0-1.807.858m2.6,1.681a.638.638,0,1,1,.391.809.637.637,0,0,1-.391-.809m.415-1.512a.635.635,0,1,1,.386.818.645.645,0,0,1-.386-.818m1.121,1.219a.623.623,0,0,0,.389.8.635.635,0,0,0,.818-.377.639.639,0,1,0-1.207-.42m1.531-.136a1,1,0,0,1,1.258-.6.984.984,0,0,1-.649,1.858,1,1,0,0,1-.609-1.26m1.813-1.086a.635.635,0,0,0,.39.808.626.626,0,0,0,.808-.393.634.634,0,1,0-1.2-.415m-1.535-.645a.649.649,0,0,1,.816-.391.636.636,0,1,1-.427,1.2.643.643,0,0,1-.389-.808m3.139.079a1.417,1.417,0,1,1,.864,1.813,1.422,1.422,0,0,1-.864-1.813m2.615-1.059a.64.64,0,1,0,.812-.383.638.638,0,0,0-.812.383m1.69.165a.636.636,0,1,0,.814-.385.634.634,0,0,0-.814.385m-1.094,1.463a.981.981,0,1,1,1.852.651.981.981,0,1,1-1.852-.651m2.347-.394a1.416,1.416,0,1,0,1.806-.861,1.426,1.426,0,0,0-1.806.861m2.975.173a.631.631,0,0,0,.381.811.638.638,0,1,0,.43-1.2.632.632,0,0,0-.811.389M53.512,14.73a.621.621,0,0,1,.8-.387.637.637,0,1,1-.8.387m1.519.568a.635.635,0,1,1,.393.814.652.652,0,0,1-.393-.814m.732,2.257a.623.623,0,0,1,.807-.394.64.64,0,0,1-.427,1.206.632.632,0,0,1-.379-.812m-20.415,57.3a.982.982,0,0,0-1.766-.86.982.982,0,1,0,1.766.86m-.7-1.957a.622.622,0,0,0-.3-.842.632.632,0,1,0,.3.842m1.458.307a.635.635,0,0,1-.851.291.626.626,0,0,1-.291-.849.636.636,0,1,1,1.142.559m.255-1.986a1.417,1.417,0,1,1-.648-1.9,1.412,1.412,0,0,1,.648,1.9m-1.895-2.2a.64.64,0,1,0-.85.286.633.633,0,0,0,.85-.286m1.336-.426a.64.64,0,1,0-1.15-.561.637.637,0,0,0,.3.849.646.646,0,0,0,.855-.287m5.4-.85a.651.651,0,0,1-.857.288.636.636,0,1,1,.857-.288m-1.371-.658a.98.98,0,1,0-1.761-.863.988.988,0,0,0,.446,1.314.971.971,0,0,0,1.315-.451m-1.368,1.44a.628.628,0,0,1-.849.293.634.634,0,1,1,.56-1.138.62.62,0,0,1,.288.846m-1.336.735a.637.637,0,1,0-1.143-.563.652.652,0,0,0,.291.854.642.642,0,0,0,.852-.291" transform="translate(0 0)" fill="#828c8f" fill-rule="evenodd"/>
    <path id="Caminho_99" data-name="Caminho 99" d="M158.634,81.551h3.713v-.5h-3.165V78.776h2.845v-.492h-2.845V76.2h3.036v-.5h-3.584Zm4.582,0h.539V76.427h.015l3.573,5.124h.693V75.7h-.548v5.127h-.014L163.916,75.7h-.7Zm5.729-.731a2.107,2.107,0,0,0,.528.512,2.181,2.181,0,0,0,.646.278,2.567,2.567,0,0,0,.736.089,2.025,2.025,0,0,0,.682-.112,1.647,1.647,0,0,0,.578-.307,1.375,1.375,0,0,0,.4-.515,1.638,1.638,0,0,0,.158-.705,1.717,1.717,0,0,0-.135-.682,1.222,1.222,0,0,0-.341-.456,2.128,2.128,0,0,0-.484-.288c-.175-.067-.362-.134-.547-.189s-.375-.117-.563-.181a2.088,2.088,0,0,1-.474-.224.857.857,0,0,1-.341-.349.985.985,0,0,1-.141-.539,1.09,1.09,0,0,1,.112-.483,1.045,1.045,0,0,1,.284-.347,1.357,1.357,0,0,1,.428-.2,1.578,1.578,0,0,1,.493-.071,1.362,1.362,0,0,1,1.142.576l.467-.338a1.717,1.717,0,0,0-.7-.559,2.375,2.375,0,0,0-1.593-.068,1.783,1.783,0,0,0-.6.31,1.385,1.385,0,0,0-.418.5,1.514,1.514,0,0,0-.154.686,1.773,1.773,0,0,0,.125.706,1.3,1.3,0,0,0,.349.46,1.933,1.933,0,0,0,.474.3,5.326,5.326,0,0,0,.559.2c.187.067.372.13.552.19a2.364,2.364,0,0,1,.484.215,1.013,1.013,0,0,1,.346.326.978.978,0,0,1,.12.509,1.084,1.084,0,0,1-.09.472,1.052,1.052,0,0,1-.284.364,1.156,1.156,0,0,1-.418.22,1.39,1.39,0,0,1-.519.091,1.57,1.57,0,0,1-.769-.186,1.417,1.417,0,0,1-.57-.552Zm4.636.731h.541V75.7h-.541Zm1.817,0h.546V76.427h.017l3.568,5.124h.7V75.7h-.548v5.127h-.018L176.1,75.7h-.7Zm5.726-2.925a3.48,3.48,0,0,0,.218,1.239,3.016,3.016,0,0,0,.621.965,2.752,2.752,0,0,0,.96.642,3.421,3.421,0,0,0,2.452,0,2.587,2.587,0,0,0,.949-.642,2.722,2.722,0,0,0,.626-.965,3.513,3.513,0,0,0,0-2.474,2.907,2.907,0,0,0-1.575-1.614,3.478,3.478,0,0,0-2.452,0,2.9,2.9,0,0,0-.96.647,3,3,0,0,0-.621.968,3.491,3.491,0,0,0-.218,1.235m.548,0a2.79,2.79,0,0,1,.171-1.014,2.333,2.333,0,0,1,.495-.823,2.389,2.389,0,0,1,.773-.548,2.862,2.862,0,0,1,2.074,0,2.358,2.358,0,0,1,1.271,1.371,3.044,3.044,0,0,1,.172,1.014,3.094,3.094,0,0,1-.172,1.019,2.365,2.365,0,0,1-.5.818,2.065,2.065,0,0,1-.771.541,2.756,2.756,0,0,1-2.074,0,2.131,2.131,0,0,1-.773-.541,2.406,2.406,0,0,1-.495-.818,2.834,2.834,0,0,1-.171-1.019m8.186,2.194a2.041,2.041,0,0,0,.52.512,2.28,2.28,0,0,0,.64.278,2.658,2.658,0,0,0,.735.089,1.987,1.987,0,0,0,.682-.112,1.771,1.771,0,0,0,.59-.307,1.527,1.527,0,0,0,.395-.515,1.6,1.6,0,0,0,.154-.705,1.653,1.653,0,0,0-.13-.682,1.214,1.214,0,0,0-.342-.456,2.06,2.06,0,0,0-.486-.288c-.179-.067-.358-.134-.544-.189s-.383-.117-.557-.181a2.107,2.107,0,0,1-.479-.224,1.032,1.032,0,0,1-.356-.349,1.252,1.252,0,0,1-.124-.539,1.1,1.1,0,0,1,.11-.483,1.033,1.033,0,0,1,.284-.347,1.326,1.326,0,0,1,.42-.2,1.639,1.639,0,0,1,.5-.071,1.333,1.333,0,0,1,1.144.576l.47-.338a1.737,1.737,0,0,0-.709-.559,2.2,2.2,0,0,0-.893-.174,2.169,2.169,0,0,0-.7.106,1.892,1.892,0,0,0-.6.31,1.415,1.415,0,0,0-.413.5,1.537,1.537,0,0,0-.153.686,1.826,1.826,0,0,0,.124.706,1.466,1.466,0,0,0,.341.46,2.038,2.038,0,0,0,.49.3,5.665,5.665,0,0,0,.547.2c.2.067.383.13.557.19a2.27,2.27,0,0,1,.484.215,1.044,1.044,0,0,1,.347.326.978.978,0,0,1,.124.509,1.112,1.112,0,0,1-.1.472,1.023,1.023,0,0,1-.275.364,1.088,1.088,0,0,1-.419.22,1.4,1.4,0,0,1-.517.091,1.584,1.584,0,0,1-.775-.186,1.38,1.38,0,0,1-.559-.552Zm4.242-2.194a3.506,3.506,0,0,0,.222,1.239,2.917,2.917,0,0,0,.633.965,2.564,2.564,0,0,0,.949.642,3.177,3.177,0,0,0,1.22.227,3.235,3.235,0,0,0,1.236-.227,2.783,2.783,0,0,0,.954-.642,2.856,2.856,0,0,0,.616-.965,3.556,3.556,0,0,0,0-2.474,2.838,2.838,0,0,0-.616-.968,2.932,2.932,0,0,0-.954-.647,3.324,3.324,0,0,0-1.236-.223,3.265,3.265,0,0,0-1.22.223,2.69,2.69,0,0,0-.949.647,2.9,2.9,0,0,0-.633.968,3.518,3.518,0,0,0-.222,1.235m.551,0a2.866,2.866,0,0,1,.173-1.014,2.327,2.327,0,0,1,.492-.823,2.415,2.415,0,0,1,.78-.548,2.887,2.887,0,0,1,1.029-.194,2.85,2.85,0,0,1,1.037.194,2.436,2.436,0,0,1,.786.548,2.531,2.531,0,0,1,.488.823,2.868,2.868,0,0,1,.177,1.014,2.914,2.914,0,0,1-.177,1.019,2.619,2.619,0,0,1-.488.818,2.172,2.172,0,0,1-.786.541,2.53,2.53,0,0,1-1.037.2A2.557,2.557,0,0,1,196.1,81a2.154,2.154,0,0,1-.78-.541,2.4,2.4,0,0,1-.492-.818,2.911,2.911,0,0,1-.173-1.019m10.773,1.67a1.819,1.819,0,0,1-.366.411,2,2,0,0,1-.432.276,1.876,1.876,0,0,1-.47.166,1.94,1.94,0,0,1-.457.057,2.566,2.566,0,0,1-1.037-.2,2.244,2.244,0,0,1-.782-.541,2.558,2.558,0,0,1-.494-.818,3.217,3.217,0,0,1-.173-1.019,3.165,3.165,0,0,1,.173-1.014,2.474,2.474,0,0,1,.494-.823,2.529,2.529,0,0,1,.782-.548,2.894,2.894,0,0,1,1.037-.194,2.286,2.286,0,0,1,.582.082,1.94,1.94,0,0,1,.552.26,1.9,1.9,0,0,1,.431.453l.448-.376a2.165,2.165,0,0,0-.572-.52,2.279,2.279,0,0,0-.689-.3,2.953,2.953,0,0,0-.752-.091,3.3,3.3,0,0,0-1.232.223,2.8,2.8,0,0,0-.953.647,2.914,2.914,0,0,0-.626.968,3.573,3.573,0,0,0,0,2.474,2.934,2.934,0,0,0,.626.965,2.663,2.663,0,0,0,.953.642,3.212,3.212,0,0,0,1.232.227,3.33,3.33,0,0,0,.823-.1,2.7,2.7,0,0,0,.734-.343,2.834,2.834,0,0,0,.614-.614Zm1.115,1.255h.549V75.7h-.549Zm1.068,0h.56L208.834,80h3.1l.639,1.547h.61L210.721,75.7h-.569Zm4.129-2.049h-2.679l1.353-3.2Zm1.969,2.049h3.262v-.5h-2.723V75.7H213.7Zm5.745,0h1.284V79.269h.944a3.848,3.848,0,0,0,.855-.083,1.919,1.919,0,0,0,.682-.3,1.323,1.323,0,0,0,.46-.549,1.925,1.925,0,0,0,.163-.859,1.982,1.982,0,0,0-.173-.869,1.39,1.39,0,0,0-.478-.542,2.057,2.057,0,0,0-.707-.281,4,4,0,0,0-.868-.084H219.45Zm1.284-4.762h.661a2.477,2.477,0,0,1,.388.028.947.947,0,0,1,.351.1.567.567,0,0,1,.269.192.642.642,0,0,1,.1.37.65.65,0,0,1-.081.341.615.615,0,0,1-.2.213.9.9,0,0,1-.3.118,1.545,1.545,0,0,1-.331.033h-.862Zm3.544,4.762h1.287V79.209h.637l1.22,2.341h1.55l-1.488-2.47a1.547,1.547,0,0,0,.7-.3,1.479,1.479,0,0,0,.423-.558,1.762,1.762,0,0,0,.147-.746,1.854,1.854,0,0,0-.179-.855,1.318,1.318,0,0,0-.472-.545,2.224,2.224,0,0,0-.707-.292,4.605,4.605,0,0,0-.846-.084h-2.268Zm1.287-4.762h.844a1.954,1.954,0,0,1,.355.028,1.048,1.048,0,0,1,.328.1.5.5,0,0,1,.228.192.738.738,0,0,1,.09.36.583.583,0,0,1-.1.369.631.631,0,0,1-.265.2,2.018,2.018,0,0,1-.349.072c-.12.008-.246.015-.365.015h-.763Zm3.387,1.837a3.413,3.413,0,0,1,.227-1.267,2.739,2.739,0,0,1,.668-.97,2.863,2.863,0,0,1,1-.624,3.661,3.661,0,0,1,1.261-.211,3.742,3.742,0,0,1,1.259.211,2.84,2.84,0,0,1,1,.624,2.684,2.684,0,0,1,.663.97,3.343,3.343,0,0,1,.236,1.267,3.39,3.39,0,0,1-.236,1.27,2.663,2.663,0,0,1-.663.968,2.7,2.7,0,0,1-1,.623,3.578,3.578,0,0,1-1.259.212,3.5,3.5,0,0,1-1.261-.212,2.9,2.9,0,0,1-1.667-1.591,3.46,3.46,0,0,1-.227-1.27m1.336,0a2.39,2.39,0,0,0,.12.755,2.073,2.073,0,0,0,.37.6,1.808,1.808,0,0,0,.581.4,2.207,2.207,0,0,0,1.5,0,1.75,1.75,0,0,0,.942-1,2.363,2.363,0,0,0,0-1.509,1.7,1.7,0,0,0-.942-.989,2.078,2.078,0,0,0-1.5,0,1.879,1.879,0,0,0-.581.388,2.168,2.168,0,0,0-.37.6,2.382,2.382,0,0,0-.12.754m5.528,2.925H237.1V79.269h2.44V78.082H237.1V76.893h2.632V75.7h-3.921Zm4.459,0h1.287V75.7h-1.287Zm5.868-5.389a2.567,2.567,0,0,0-.541-.354,2.651,2.651,0,0,0-.611-.194,3.257,3.257,0,0,0-.643-.061,2.79,2.79,0,0,0-.676.075,2.465,2.465,0,0,0-.6.234,2.308,2.308,0,0,0-.5.38,1.826,1.826,0,0,0-.325.536,2.066,2.066,0,0,0-.129.678,1.6,1.6,0,0,0,.129.621,1.285,1.285,0,0,0,.306.438,2,2,0,0,0,.433.285,4.611,4.611,0,0,0,.51.211c.17.052.335.105.5.157a4.053,4.053,0,0,1,.442.169,1.037,1.037,0,0,1,.315.23.542.542,0,0,1,.039.607.674.674,0,0,1-.21.189,1.059,1.059,0,0,1-.29.112,1.4,1.4,0,0,1-.316.036,1.376,1.376,0,0,1-.425-.064,1.35,1.35,0,0,1-.384-.188,1.393,1.393,0,0,1-.313-.3l-.915,1a2.476,2.476,0,0,0,.912.558,2.944,2.944,0,0,0,1.049.178,3.309,3.309,0,0,0,.7-.069,2.406,2.406,0,0,0,.617-.224,1.852,1.852,0,0,0,.5-.385,1.552,1.552,0,0,0,.326-.547,2.085,2.085,0,0,0,.123-.7,1.869,1.869,0,0,0-.12-.655,1.334,1.334,0,0,0-.3-.441,2.11,2.11,0,0,0-.433-.291,2.514,2.514,0,0,0-.494-.194c-.177-.052-.331-.1-.5-.152a2.69,2.69,0,0,1-.425-.156.938.938,0,0,1-.31-.2.523.523,0,0,1-.116-.328.414.414,0,0,1,.086-.28.505.505,0,0,1,.212-.188.871.871,0,0,1,.28-.106,1.507,1.507,0,0,1,.285-.033,1.313,1.313,0,0,1,.341.045,1.247,1.247,0,0,1,.33.128.819.819,0,0,1,.269.214Zm4.367,0a2.548,2.548,0,0,0-.533-.354,2.711,2.711,0,0,0-.613-.194,3.315,3.315,0,0,0-.644-.061,2.8,2.8,0,0,0-.675.075,2.528,2.528,0,0,0-.6.234,2.133,2.133,0,0,0-.5.38,2.036,2.036,0,0,0-.345.536,2.116,2.116,0,0,0-.114.678,1.7,1.7,0,0,0,.114.621,1.456,1.456,0,0,0,.313.438,2.055,2.055,0,0,0,.44.285,5.008,5.008,0,0,0,.51.211c.173.052.343.105.5.157a4.272,4.272,0,0,1,.443.169,1.057,1.057,0,0,1,.313.23.511.511,0,0,1,.118.335.469.469,0,0,1-.082.272.617.617,0,0,1-.205.189,1.152,1.152,0,0,1-.293.112,1.38,1.38,0,0,1-.319.036,1.3,1.3,0,0,1-.415-.064,1.323,1.323,0,0,1-.389-.188,1.665,1.665,0,0,1-.318-.3l-.918,1a2.46,2.46,0,0,0,.912.558,2.993,2.993,0,0,0,1.057.178,3.409,3.409,0,0,0,.7-.069,2.53,2.53,0,0,0,.614-.224,1.839,1.839,0,0,0,.491-.385,1.744,1.744,0,0,0,.33-.547,1.943,1.943,0,0,0,.115-.7,1.752,1.752,0,0,0-.112-.655,1.355,1.355,0,0,0-.311-.441,1.99,1.99,0,0,0-.422-.291,2.8,2.8,0,0,0-.5-.194c-.173-.052-.335-.1-.495-.152a2.956,2.956,0,0,1-.435-.156.975.975,0,0,1-.3-.2.49.49,0,0,1-.11-.328.528.528,0,0,1,.067-.28.6.6,0,0,1,.221-.188.989.989,0,0,1,.286-.106,1.49,1.49,0,0,1,.29-.033,1.278,1.278,0,0,1,.332.045,1.194,1.194,0,0,1,.334.128.748.748,0,0,1,.261.214Zm.578,5.389h1.287V75.7h-1.287Zm1.78-2.925a3.532,3.532,0,0,0,.23,1.27,2.764,2.764,0,0,0,.662.968,2.854,2.854,0,0,0,.994.623,3.63,3.63,0,0,0,1.272.212,3.591,3.591,0,0,0,1.26-.212,2.772,2.772,0,0,0,1-.623,2.625,2.625,0,0,0,.664-.968,3.218,3.218,0,0,0,.232-1.27,3.175,3.175,0,0,0-.232-1.267,2.645,2.645,0,0,0-.664-.97,2.914,2.914,0,0,0-1-.624,3.756,3.756,0,0,0-1.26-.211,3.8,3.8,0,0,0-1.272.211,3.007,3.007,0,0,0-.994.624,2.786,2.786,0,0,0-.662.97,3.483,3.483,0,0,0-.23,1.267m1.339,0a2.271,2.271,0,0,1,.129-.754,1.78,1.78,0,0,1,.37-.6,1.676,1.676,0,0,1,.57-.388,2.005,2.005,0,0,1,.751-.139,1.978,1.978,0,0,1,.747.139,1.826,1.826,0,0,1,.572.388,1.938,1.938,0,0,1,.37.6,2.352,2.352,0,0,1,0,1.509,1.862,1.862,0,0,1-.37.6,1.758,1.758,0,0,1-.572.4,2.122,2.122,0,0,1-.747.131,2.152,2.152,0,0,1-.751-.131,1.619,1.619,0,0,1-.57-.4,1.715,1.715,0,0,1-.37-.6,2.279,2.279,0,0,1-.129-.755m5.48,2.925h1.292V77.384h.015l2.549,4.167h1.684V75.7h-1.287v4.065h-.02L261.428,75.7h-1.741Zm5.76,0h1.421l.484-1.235h2.272l.505,1.235h1.461L269.035,75.7h-1.064Zm3.743-2.326h-1.434l.714-1.82Zm2.654,2.326h3.681v-1.19h-2.386V75.7h-1.295Zm4.005,0h1.288V75.7h-1.288Zm1.78,0h4.628v-1.19h-3.009l2.914-3.52V75.7h-4.424v1.14H280.6l-2.968,3.52Zm4.535,0L284.7,75.7h1.067l2.547,5.849h-1.456l-.5-1.235h-2.274l-.489,1.235Zm3.746-2.326-.72-1.82-.709,1.82Zm2.612,2.326h1.285V77.384h.025l2.554,4.167h1.684V75.7H292.78v4.065h-.018l-2.49-4.065h-1.751Zm7.5,0h1.289V76.842h1.664V75.7h-4.63v1.14h1.677Zm3.291,0h4.122v-1.19H300.59V79.173h2.539V77.986H300.59V76.893h2.688V75.7h-3.969ZM181.561,54.889a10.277,10.277,0,0,1-2.653,2.9,13.068,13.068,0,0,1-3.623,1.884,12.688,12.688,0,0,1-4.034.675,12.376,12.376,0,0,1-4.8-.889,10.148,10.148,0,0,1-3.327-2.222,11.594,11.594,0,0,1-2.1-2.952,13.076,13.076,0,0,1-1.1-3.032,10.782,10.782,0,0,1-.324-2.486h25.824V45.971a15.287,15.287,0,0,0-.6-4.227,14.6,14.6,0,0,0-1.766-3.918,13.431,13.431,0,0,0-2.92-3.222,13.075,13.075,0,0,0-4.026-2.195,16.53,16.53,0,0,0-11.326.407,14.733,14.733,0,0,0-4.866,3.379,15.407,15.407,0,0,0-3.177,5.111,17.924,17.924,0,0,0-1.14,6.4,19.289,19.289,0,0,0,1.106,6.55,15.089,15.089,0,0,0,3.163,5.135,14.024,14.024,0,0,0,4.915,3.351,16.815,16.815,0,0,0,6.384,1.2,17.649,17.649,0,0,0,7.539-1.554,14.156,14.156,0,0,0,5.778-5.035ZM159.6,45.174a5.848,5.848,0,0,1,.221-1.306,13.878,13.878,0,0,1,.742-1.992,12.536,12.536,0,0,1,1.362-2.3,11.275,11.275,0,0,1,2.083-2.164,9.933,9.933,0,0,1,2.914-1.593,11.709,11.709,0,0,1,8.019.152,10.8,10.8,0,0,1,3.381,2.158,10.034,10.034,0,0,1,2.277,3.175,9.515,9.515,0,0,1,.836,3.868Zm26.1,12.508a11.073,11.073,0,0,0,3.1,3.523,13.789,13.789,0,0,0,4.258,2.061,18.005,18.005,0,0,0,5.011.676,14.758,14.758,0,0,0,4.215-.6,11.018,11.018,0,0,0,3.546-1.782,8.689,8.689,0,0,0,2.456-2.978,9.364,9.364,0,0,0,.9-4.159,8.175,8.175,0,0,0-1.008-4.275,6.973,6.973,0,0,0-2.6-2.547,14.327,14.327,0,0,0-3.571-1.417c-1.286-.339-2.582-.627-3.883-.874a28.331,28.331,0,0,1-3.557-.9,6.436,6.436,0,0,1-2.606-1.535,4.134,4.134,0,0,1-.388-4.881,5.021,5.021,0,0,1,1.568-1.541,7.55,7.55,0,0,1,2.1-.945,8.471,8.471,0,0,1,2.233-.322,8.075,8.075,0,0,1,4.4,1.109,8.317,8.317,0,0,1,2.846,3.218l3.6-2.137a9.911,9.911,0,0,0-4.3-4.363,14.107,14.107,0,0,0-6.55-1.412,13.5,13.5,0,0,0-3.77.536,11.322,11.322,0,0,0-3.388,1.624A8.343,8.343,0,0,0,187.9,36.53a7.9,7.9,0,0,0-.935,3.916,7.605,7.605,0,0,0,1.007,4.039,7.081,7.081,0,0,0,2.607,2.429,15.88,15.88,0,0,0,3.568,1.4c1.293.341,2.58.641,3.887.914a26.751,26.751,0,0,1,3.556.995,6.553,6.553,0,0,1,2.6,1.623,4.031,4.031,0,0,1,1.012,2.843,4.653,4.653,0,0,1-.61,2.377,5.686,5.686,0,0,1-1.622,1.776,7.68,7.68,0,0,1-2.261,1.119,8.759,8.759,0,0,1-2.563.387,11.135,11.135,0,0,1-3.536-.58,9.992,9.992,0,0,1-3.129-1.715,8.669,8.669,0,0,1-2.255-2.761Zm24.922,14.445h9.982V59.684h.137a9.276,9.276,0,0,0,2.752,2.5,11.924,11.924,0,0,0,3.5,1.343,18.559,18.559,0,0,0,4,.415,13.519,13.519,0,0,0,9.176-3.481,15.667,15.667,0,0,0,3.05-3.809,18.446,18.446,0,0,0,1.9-4.7,21.221,21.221,0,0,0,.654-5.252,19.554,19.554,0,0,0-1.148-6.734,15.39,15.39,0,0,0-3.215-5.283,14.3,14.3,0,0,0-5.01-3.451A16.815,16.815,0,0,0,229.861,30a11.419,11.419,0,0,0-3.241.465,13.139,13.139,0,0,0-2.842,1.187,12.913,12.913,0,0,0-2.269,1.63,9.42,9.42,0,0,0-1.566,1.776h-.128V30.8h-9.191Zm9.191-25.161a9.043,9.043,0,0,1,.96-4.278,6.86,6.86,0,0,1,2.728-2.86,9.312,9.312,0,0,1,8.589,0,6.878,6.878,0,0,1,2.728,2.86,10.009,10.009,0,0,1,0,8.562,6.942,6.942,0,0,1-2.728,2.866,9.386,9.386,0,0,1-8.589,0,6.978,6.978,0,0,1-2.728-2.866,9.06,9.06,0,0,1-.96-4.284M247.3,63.144h9.99V49.627a32.266,32.266,0,0,1,.261-4.411,9.115,9.115,0,0,1,1.145-3.426,5.6,5.6,0,0,1,2.572-2.222,10.99,10.99,0,0,1,4.546-.789,13.1,13.1,0,0,1,2.148.181,20.769,20.769,0,0,1,2.109.486v-9.11a7.936,7.936,0,0,0-1.587-.273c-.59-.041-1.172-.063-1.748-.063a10.67,10.67,0,0,0-3.894.671,9.037,9.037,0,0,0-3.04,2.024,13.765,13.765,0,0,0-2.382,3.292h-.13V30.8H247.3Zm22.86-16.179a17.39,17.39,0,0,0,1.4,7,15.587,15.587,0,0,0,3.841,5.356,17.09,17.09,0,0,0,5.7,3.417,21.11,21.11,0,0,0,14.042,0,17.246,17.246,0,0,0,5.718-3.417,15.454,15.454,0,0,0,3.824-5.356,18.124,18.124,0,0,0,0-14,15.472,15.472,0,0,0-3.824-5.35,17.394,17.394,0,0,0-5.718-3.422,21.225,21.225,0,0,0-14.042,0,17.237,17.237,0,0,0-5.7,3.422,15.606,15.606,0,0,0-3.841,5.35,17.437,17.437,0,0,0-1.4,7m9.976,0a9.445,9.445,0,0,1,.968-4.278,6.858,6.858,0,0,1,2.733-2.86,9.3,9.3,0,0,1,8.583,0,6.86,6.86,0,0,1,2.726,2.86,9.976,9.976,0,0,1,0,8.562,6.923,6.923,0,0,1-2.726,2.866,9.373,9.373,0,0,1-8.583,0A6.921,6.921,0,0,1,281.1,51.25a9.463,9.463,0,0,1-.968-4.284" transform="translate(-66.091 -12.741)" fill="#828c8f"/>
  </g>
</svg>
