<svg xmlns="http://www.w3.org/2000/svg" width="79.994" height="80.241" viewBox="0 0 79.994 80.241">
  <g id="Globo" transform="translate(-0.216 0.26)">
    <path id="Subtração_1" data-name="Subtração 1" d="M39.98,80.243a40.3,40.3,0,0,1-4.082-.208,39.828,39.828,0,0,1-3.973-.61c-1.288-.265-2.576-.6-3.831-.992a39.079,39.079,0,0,1-3.673-1.353q-1.8-.765-3.495-1.694t-3.3-2.014c-1.066-.722-2.093-1.5-3.078-2.314s-1.938-1.688-2.839-2.594S9.943,66.6,9.132,65.611s-1.587-2.03-2.3-3.092-1.392-2.18-2-3.31S3.645,56.892,3.143,55.7,2.184,53.261,1.8,52.017s-.722-2.551-.986-3.842A39.606,39.606,0,0,1,.207,44.2a40.631,40.631,0,0,1,0-8.182,40.152,40.152,0,0,1,.606-3.972c.264-1.289.6-2.58.986-3.837a38.456,38.456,0,0,1,1.345-3.681q.76-1.8,1.684-3.5c.616-1.132,1.285-2.241,2-3.307s1.489-2.1,2.3-3.089,1.68-1.946,2.581-2.851S13.57,10,14.552,9.182A38.33,38.33,0,0,1,17.63,6.869c1.057-.713,2.172-1.4,3.3-2.013s2.309-1.189,3.495-1.693S26.858,2.2,28.1,1.81s2.543-.726,3.831-.992A39.894,39.894,0,0,1,51.884,1.824q1.884.592,3.677,1.355t3.5,1.694q1.7.929,3.3,2.013c1.064.721,2.095,1.5,3.081,2.312s1.939,1.686,2.842,2.59,1.771,1.863,2.582,2.849,1.588,2.026,2.3,3.087,1.392,2.177,2,3.3,1.183,2.313,1.685,3.5S77.81,26.961,78.2,28.2s.722,2.546.986,3.835a40.132,40.132,0,0,1,.606,3.971,40.631,40.631,0,0,1,0,8.182c-.135,1.332-.339,2.671-.606,3.979-.264,1.291-.6,2.584-.986,3.842a38.48,38.48,0,0,1-1.34,3.689q-.76,1.8-1.685,3.508c-.616,1.138-1.286,2.243-2,3.31s-1.49,2.1-2.3,3.092-1.68,1.947-2.582,2.853-1.858,1.779-2.842,2.594-2.023,1.6-3.081,2.314-2.174,1.4-3.3,2.014-2.311,1.189-3.5,1.694-2.436.965-3.677,1.353-2.547.726-3.836.992a39.942,39.942,0,0,1-3.975.61,40.453,40.453,0,0,1-4.1.209ZM38.1,20.087c-4.576,0-8.894.082-12.836.243-2.213.091-4.362.208-6.386.35-2.159.151-4.242.334-6.189.543A9.96,9.96,0,0,0,11,21.5a3.568,3.568,0,0,0-1.246.581,2.7,2.7,0,0,0-.821,1.051,5.364,5.364,0,0,0-.412,1.688c-.221,2.264-.366,4.738-.445,7.564C8.018,34.805,8,37.22,8,40.1c0,5.235.04,10.346.526,15.321a5.57,5.57,0,0,0,.429,1.688,2.734,2.734,0,0,0,.819,1.051,3.528,3.528,0,0,0,1.236.581,9.836,9.836,0,0,0,1.679.278c2.066.232,4.3.429,6.645.586,2.134.143,4.441.259,6.857.344,5.163.181,10.317.2,13.744.2,5.213,0,9.715-.071,13.764-.217,2.408-.087,4.72-.2,6.871-.345,2.341-.155,4.578-.346,6.651-.569a9.961,9.961,0,0,0,1.685-.278,3.569,3.569,0,0,0,1.246-.581,2.7,2.7,0,0,0,.821-1.051,5.364,5.364,0,0,0,.412-1.688c.485-4.975.525-10.086.525-15.321,0-2.881-.014-5.3-.081-7.716-.078-2.826-.224-5.3-.445-7.564a5.57,5.57,0,0,0-.429-1.688,2.733,2.733,0,0,0-.819-1.051A3.527,3.527,0,0,0,68.9,21.5a9.837,9.837,0,0,0-1.68-.278c-1.923-.216-3.984-.4-6.125-.555-1.993-.142-4.119-.26-6.319-.349-3.862-.156-8.034-.233-12.753-.233h-2.09C39.325,20.088,38.708,20.087,38.1,20.087Z" transform="translate(0.215 -0.262)" fill="#828c8f"/>
    <path id="Caminho_35" data-name="Caminho 35" d="M4573.347,1457.694a16.218,16.218,0,1,1,4.765,11.474,16.272,16.272,0,0,1-4.765-11.474Z" transform="translate(-4549.402 -1417.854)" fill="#828c8f" fill-rule="evenodd"/>
  </g>
</svg>
