<svg id="GM" xmlns="http://www.w3.org/2000/svg" width="240" height="240" viewBox="0 0 240 240">
  <path id="Caminho_88" data-name="Caminho 88" d="M30.968,0A30.968,30.968,0,0,0,0,30.968V209.032A30.968,30.968,0,0,0,30.968,240H209.032A30.968,30.968,0,0,0,240,209.032V30.968A30.968,30.968,0,0,0,209.032,0Zm0,15.484H209.032a15.484,15.484,0,0,1,15.484,15.484V209.032a15.484,15.484,0,0,1-15.484,15.484H30.968a15.484,15.484,0,0,1-15.484-15.484V30.968A15.484,15.484,0,0,1,30.968,15.484Z" fill="#828c8f"/>
  <path id="Caminho_89" data-name="Caminho 89" d="M59.266,88.9v15.484h85.161V88.9Z" transform="translate(49.121 73.682)" fill="#828c8f"/>
  <path id="Caminho_90" data-name="Caminho 90" d="M59.266,33.866v83.226H76.685V49.35H94.1v67.742h17.419V49.35h11.613a5.806,5.806,0,0,1,5.806,5.806v61.935h17.419V53.221a19.355,19.355,0,0,0-19.355-19.355Z" transform="translate(49.121 28.069)" fill="#828c8f"/>
  <path id="Caminho_91" data-name="Caminho 91" d="M43.7,33.866A19.355,19.355,0,0,0,24.341,53.221V97.737A19.355,19.355,0,0,0,43.7,117.092H59.18v3.871c0,7.483-6.932,13.548-15.484,13.548H34.019V150H43.7c18.172,0,32.9-13,32.9-29.032v-87.1ZM47.567,49.35H59.18v52.258H47.567A5.806,5.806,0,0,1,41.761,95.8V55.157A5.806,5.806,0,0,1,47.567,49.35Z" transform="translate(20.175 28.069)" fill="#828c8f"/>
</svg>
