<svg id="JBT" xmlns="http://www.w3.org/2000/svg" xmlns:xlink="http://www.w3.org/1999/xlink" width="240" height="76.372" viewBox="0 0 240 76.372">
  <defs>
    <clipPath id="clip-path">
      <rect id="Retângulo_143" data-name="Retângulo 143" width="240" height="76.372" fill="#828c8f"/>
    </clipPath>
  </defs>
  <g id="Grupo_395" data-name="Grupo 395" transform="translate(0 0)" clip-path="url(#clip-path)">
    <path id="Caminho_85" data-name="Caminho 85" d="M62.894,37.929l-1.6,5.76a7.62,7.62,0,0,0,2.762-.369,2.783,2.783,0,0,0,1.068-1.747l.364-1.5c.28-.977.207-1.579-.065-1.784a5.9,5.9,0,0,0-2.531-.358m2.141-7.713-1.316,4.771c.422-.009.7-.015.936-.015a3.175,3.175,0,0,0,1.967-.427c.349-.294.612-.729,1.01-2.112a2.314,2.314,0,0,0,.067-1.511,1.032,1.032,0,0,0-.722-.582,10.55,10.55,0,0,0-1.943-.124m-7.386-3.671h8.563a33.02,33.02,0,0,1,6.035.4,4.706,4.706,0,0,1,2.923,1.631q.942,1.227.186,3.955a4.3,4.3,0,0,1-1.623,2.576,10.211,10.211,0,0,1-3.892,1.114q2.861.43,3.648,1.42a3.36,3.36,0,0,1,.217,3.039l-.539,1.945a6.9,6.9,0,0,1-1.638,3.148,5.616,5.616,0,0,1-2.822,1.4,41.222,41.222,0,0,1-6.956.373H51.822Zm-3.612.015H45.686L41.745,40.739c-.22.795-.4,1.316-.5,1.608a1.94,1.94,0,0,1-.826.912c-.282.174-1.126.334-3.345.395-.229.005-.773-.013-1.277-.042l-1.078,3.944,6.222,0a23.053,23.053,0,0,0,4.316-.317,6.164,6.164,0,0,0,2.464-1.071,3.315,3.315,0,0,0,1.245-1.635c.213-.609,5.068-17.977,5.068-17.977m24.044,0-1.026,3.722c.523-.026.823-.024,1.053-.024a16.059,16.059,0,0,1,3.131.3.976.976,0,0,1,.56.838A10.356,10.356,0,0,1,81.458,33L77.444,47.556H85.83l4.152-15.063a5.081,5.081,0,0,1,.471-1.215,1.813,1.813,0,0,1,.878-.726,16.638,16.638,0,0,1,3.2-.3c.23,0,.709,0,1.215.028l1.021-3.726ZM27.276,14c.21-.121.7-.395.7-.395C24.179,10.813,19.6,8.764,15.629,8.819,11.477,8.879,7.837,11.342,5.181,15A29.9,29.9,0,0,0,.521,26.911C-1.42,37.271,1.911,47.5,13.172,47.5c9.812,0,23.742-6.067,25.042-16.061.427-3.269-1.239-7.9-4.285-11.978-.344.737-.346.726-.661,1.459-.259.608-.527,1.327-.527,1.327a13.811,13.811,0,0,1,1.282,6.484c-.467,7.343-10.3,13.253-18.362,13.468C6.1,42.457,2.543,34.93,2.842,28.085,3.256,18.7,7.678,10.972,14.726,9.971c3.6-.511,8.111,1.338,11.869,4.436,0,0,.49-.3.68-.411M229.166,47.553H230.9V39.444c0-3.128,1.883-4.521,3.969-4.521,2.2,0,3.388.927,3.388,3.74v8.891H240V38.139c0-2.865-1.478-4.837-4.9-4.837a4.388,4.388,0,0,0-4.142,2.378H230.9V33.65h-1.736Zm-9.133-12.63c2.578,0,4.548,2.116,4.548,5.679,0,3.591-1.969,5.677-4.548,5.677s-4.546-2.085-4.546-5.677c0-3.563,1.969-5.679,4.546-5.679M213.746,40.6c0,4.751,2.81,7.3,6.287,7.3s6.284-2.55,6.284-7.3-2.806-7.3-6.284-7.3-6.287,2.549-6.287,7.3m-4.695-9.964h1.739V27.914h-1.739Zm0,16.915h1.739V33.65h-1.739ZM198.236,35.1h2.841V45.44a2.2,2.2,0,0,0,2.374,2.464,5.643,5.643,0,0,0,2.289-.582V45.585a3.272,3.272,0,0,1-1.91.694c-.989,0-1.016-.955-1.016-2V35.1h3.012V33.65h-3.012V27.711h-1.736V33.65h-2.841Zm-.163,11.181c-1.188,0-2-.028-2-1.825V37.647c0-1.361,0-4.346-5.157-4.346-3.1,0-4.894,1.478-5.477,4.462l1.971.348c.061-2.231,1.133-3.361,3.449-3.361,2.2,0,3.478.753,3.478,2.55v1.39l-4.26,1.1c-2.406.608-4.983,1.476-4.983,4.431,0,2.55,2.173,3.682,4.432,3.682A5.127,5.127,0,0,0,194.4,45.3h.058c.172,2.431,1.476,2.431,3.618,2.431Zm-11.239-2.085c0-1.564,1.1-2.229,2.491-2.608l5.014-1.389v1.594a4.522,4.522,0,0,1-4.665,4.489c-1.3,0-2.84-.55-2.84-2.085m-9.026,3.36h1.739V39.56c0-2.838,1.216-4.81,3.913-4.81a5.467,5.467,0,0,1,1.158.116V33.359c-.434-.027-.781-.058-1.246-.058a4.179,4.179,0,0,0-3.768,2.289h-.058V33.65h-1.739Zm-9.139-12.63c2.574,0,4.546,2.116,4.546,5.679,0,3.591-1.972,5.677-4.546,5.677s-4.549-2.085-4.549-5.677c0-3.563,1.971-5.679,4.549-5.679M162.382,40.6c0,4.751,2.813,7.3,6.288,7.3s6.284-2.55,6.284-7.3-2.81-7.3-6.284-7.3-6.288,2.549-6.288,7.3m-3.958,0c0,3.5-1.707,5.677-4.2,5.677-3.418,0-4.113-2.954-4.113-5.677,0-2.666.7-5.679,4.144-5.679,2.462,0,4.169,2.174,4.169,5.679m-9.967,14.136H150.2V45.585h.062c.663,1.563,2.172,2.318,4.2,2.318,2.751,0,5.706-1.769,5.706-7.533,0-4.665-2.782-7.07-5.823-7.07a4.377,4.377,0,0,0-4.082,2.436H150.2V33.65h-1.739Zm-8.841-7.185h1.739V39.56c0-2.838,1.215-4.81,3.909-4.81a5.459,5.459,0,0,1,1.158.116V33.359c-.436-.027-.781-.058-1.246-.058a4.179,4.179,0,0,0-3.764,2.289h-.058V33.65h-1.739Zm-8.937-12.63c2.577,0,4.55,2.116,4.55,5.679,0,3.591-1.973,5.677-4.55,5.677s-4.549-2.085-4.549-5.677c0-3.563,1.972-5.679,4.549-5.679M124.394,40.6c0,4.751,2.807,7.3,6.286,7.3s6.286-2.55,6.286-7.3-2.809-7.3-6.286-7.3-6.286,2.549-6.286,7.3m-1.672-8.865c-1.622-3.881-4.113-5.33-8.2-5.33-4.49,0-8.66,3.013-8.66,10.835,0,7.765,3.911,10.835,8.806,10.835,3.824,0,6.606-1.449,8.053-5.157l-1.886-1.013c-.924,2.694-2.545,4.373-5.791,4.373-4.171,0-7.212-2.462-7.212-9.038,0-5.417,2.287-9.038,6.9-9.038,3.707,0,5.154,1.653,6.026,4.518Z" transform="translate(0 3.061)" fill="#828c8f"/>
    <path id="Caminho_86" data-name="Caminho 86" d="M47.145,48.593A20.616,20.616,0,0,1,32.97,53.056c.536.793.558.818.74,1.083.237.348.806,1.087.806,1.087a22.984,22.984,0,0,0,15.591-6.633Zm6.8-23.447c-2.372-6.583-8.658-11.841-19.408-9.731-7.4,1.452-16.511,7.825-19.082,17.321a13.842,13.842,0,0,0,.558,8.844,18.323,18.323,0,0,1-2.472.387,15.151,15.151,0,0,1-2.6.05,17.515,17.515,0,0,1,.17-14.26C17.722,13.9,31.119,10.28,35.489,9.573c7.878-1.277,15.962,1.789,19.212,7.3a24.057,24.057,0,0,1,3.009,8.272Zm-38.1,21.543c-1.343.271-1.728.313-1.728.313a25.679,25.679,0,0,0,13.843,7.7s-.508-.855-.931-1.66-.785-1.548-.785-1.548a19.626,19.626,0,0,1-7.587-5.516s-1.365.42-2.811.713" transform="translate(3.3 3.223)" fill="#828c8f"/>
    <path id="Caminho_87" data-name="Caminho 87" d="M56.924,0a37.544,37.544,0,0,0-29.15,13.874A30.792,30.792,0,0,1,32.14,12.8a23.009,23.009,0,0,1,2.508-.259,34.363,34.363,0,0,1,56.1,14.819l1.082-3.9A37.81,37.81,0,0,0,56.924,0M22.585,22.247a26.207,26.207,0,0,1,6.575-3.1,33.368,33.368,0,0,0-1.879,3.378h0c-.335.718-.349.731-.641,1.41l0,.011c-.005.013-.011.023-.016.038-.261.609-.528,1.327-.528,1.327v.005A34.068,34.068,0,0,0,23.951,37.27c0,.488.016.973.036,1.455a20.237,20.237,0,0,1-4.611,3.512,38.391,38.391,0,0,1,3.209-19.989M56.956,76.372a37.254,37.254,0,0,0,22.257-7.354L80.9,62.943A33.713,33.713,0,0,1,58.131,71.77a34.32,34.32,0,0,1-33.381-27.1,28.494,28.494,0,0,1-4.489,2.639A37.936,37.936,0,0,0,56.956,76.372" transform="translate(6.648 0)" fill="#828c8f"/>
  </g>
</svg>
