<svg xmlns="http://www.w3.org/2000/svg" width="200.014" height="36.476" viewBox="0 0 200.014 36.476">
  <g id="Johnson_Johnson" data-name="Johnson &amp; Johnson" transform="translate(-0.009 0.201)">
    <path id="Caminho_13" data-name="Caminho 13" d="M312.744,301.242V298.6c0-5.4,1.041-6.235,1.376-6.235.582,0,.653.37.653,2.434a12.347,12.347,0,0,1-2.028,6.447m-106.341,0V298.6c0-5.4,1.049-6.235,1.376-6.235.582,0,.653.37.653,2.434a12.347,12.347,0,0,1-2.028,6.447m-8.052,3.589c-1.34,0-2.064-.291-2.064-1.014a.467.467,0,0,1,.512-.5c.467,0,1.155.5,1.561,1.517m106.332,0c-1.341,0-2.064-.291-2.064-1.014a.476.476,0,0,1,.5-.5c.467,0,1.164.5,1.552,1.517m-54.379,0c-.882,0-1.587-.415-1.587-1.058a.476.476,0,0,1,.5-.5c.476,0,1.2.5,1.6,1.517H250.3m106.341,0c-.882,0-1.587-.414-1.587-1.058a.468.468,0,0,1,.512-.5c.467,0,1.191.5,1.587,1.517h-.5m-80.342,5.036c-1.411,0-2.461-.547-2.461-1.34,0-.512.247-.8.97-.8,1.164,0,2.1.8,3.122,2.072a11.894,11.894,0,0,1-1.632.071m12.038,1.685c-1.852-2.249-3.007-4.789-3.007-9.137,0-6.173,3.73-10.433,5.653-10.433l.132.141c0,.22-.5,1.235-1.155,3.051a22.866,22.866,0,0,0-1.34,7.787,54.122,54.122,0,0,0,.882,7.055l-1.164,1.535m-106.341,0c-1.852-2.249-3.007-4.789-3.007-9.137,0-6.173,3.73-10.442,5.653-10.442.115,0,.15,0,.15.141s-.512,1.235-1.164,3.051a22.824,22.824,0,0,0-1.34,7.787,52.517,52.517,0,0,0,.882,7.055l-1.173,1.543m160.508.653c-.282,0-.582-.326-.582-.829a4.269,4.269,0,0,1,.882-1.967,4.71,4.71,0,0,1,.326,1.64c0,.582-.22,1.164-.617,1.164m-106.341,0c-.282,0-.573-.326-.573-.829a4.3,4.3,0,0,1,.882-1.967,4.815,4.815,0,0,1,.326,1.64c0,.582-.22,1.164-.626,1.164m51.151,12.47h0c-.767,0-1.411-.767-1.455-2.1-.071-4.348,2-8.052,4.057-10.7a38.544,38.544,0,0,1,.547,5.291c0,3.466-1.146,7.5-3.131,7.5m-106.341,0h0c-.767,0-1.42-.767-1.446-2.1-.071-4.348,1.993-8.052,4.057-10.7a37.816,37.816,0,0,1,.547,5.291c0,3.466-1.146,7.505-3.131,7.505m4.657-33.936c-2.937,0-9.392,4.674-9.392,11.677,0,4.965,1.817,7.355,4.965,10.442-1.914,3.087-3.448,6.747-3.448,10.018,0,2.346.547,4.127,2.284,4.127,3.625,0,6.341-7.54,6.341-13.123q0-2.5-.212-5a23.7,23.7,0,0,1,3.907-3.528,8.546,8.546,0,0,0-.362,2.311c0,3.051,1.764,5.953,5.115,5.953,3.157,0,5.547-2.575,5.547-6.173a7.672,7.672,0,0,0-.071-1.3,9.4,9.4,0,0,0,3.237-1.12v7.285a1.2,1.2,0,0,0,1.261,1.305c.882,0,1.27-.582,1.887-1.914.512-1.094,1.887-3.589,2.725-5.08.653-1.164,1.014-1.923,1.3-1.923.071,0,.15.176.15.609v6.173c0,1.667.882,2.108,1.623,2.108a2,2,0,0,0,1.667-1.049c1.887-2.646,3.889-5.874,4.674-7.258.15-.247.326-.432.476-.432s.22.079.22.538v6.491c0,1.164.362,1.711,1.27,1.711a1.914,1.914,0,0,0,1.7-1.27c1.2-2.5,2.981-5.8,3.739-7.108.176-.291.362-.538.467-.538s.176.176.176.653v6.173c0,1.667.882,2.108,1.64,2.108,1.005,0,1.667-.723,2.319-1.561a70.7,70.7,0,0,0,3.986-6.173,15.51,15.51,0,0,1,1.085,2.037,5.953,5.953,0,0,0-1.764,3.528,1.993,1.993,0,0,0,1.923,2.143,3.538,3.538,0,0,0,3.193-3.81,7.69,7.69,0,0,0-.582-2.646c1.49-1.446,3.263-2.866,4.568-3.193a6.279,6.279,0,0,0-1.129,3.7c0,3.051,1.764,5.953,5.106,5.953s5.547-2.575,5.547-6.173a7.31,7.31,0,0,0-.106-1.614,8.962,8.962,0,0,0,1.923-1.235,1.975,1.975,0,0,1,1.014-.511c.326,0,.476.256.476.732v7.108c0,1.164.362,1.711,1.261,1.711a1.976,1.976,0,0,0,1.764-1.27c1.2-2.5,2.937-5.838,3.7-7.108.185-.291.326-.512.432-.512s.22.115.22.573v5.662c0,1.6.723,2.646,2.319,2.646s2.5-1.6,3.96-4.066a.883.883,0,0,0,.1-.362.529.529,0,0,0-.573-.512c-.326,0-.512.326-1.6,1.517-.22.229-.432.538-.838.538-.141,0-.256-.176-.256-.4v-6.35c0-1.7-.767-2.39-1.764-2.39a2.452,2.452,0,0,0-2.143,1.34,65.263,65.263,0,0,0-3.193,5.7c-.079.15-.176.37-.256.37s-.106-.106-.106-.37v-4.648c0-1.34-.362-2.39-1.764-2.39s-2.24,1.014-3.334,1.764a10.907,10.907,0,0,1-1.764,1.085c-.714-1.817-2.02-2.752-3.14-2.752h-.053a1.817,1.817,0,0,0-1.923,1.887,2.487,2.487,0,0,0,1.7,2.39,4.46,4.46,0,0,0,1.764.265,2.263,2.263,0,0,0,.573,0,6.958,6.958,0,0,1,0,1.279c0,1.764-1.049,3.528-3.007,3.528s-3.228-1.958-3.228-4.207a6.218,6.218,0,0,1,1.332-4.092c.335-.362.582-.582.582-.882,0-.168-.256-.212-.467-.212a9.376,9.376,0,0,0-3.951,1.155,23.9,23.9,0,0,0-4.357,3.131c-.653-1.455-1.446-2.725-1.852-3.7-.141-.4-.247-.882-.538-.882s-.37.256-.547.758a45.543,45.543,0,0,1-4.9,8.308l-.212.22c-.079,0-.123,0-.123-.256v-6.35c0-1.7-.688-2.39-1.632-2.39a2.408,2.408,0,0,0-2.134,1.341c-1.191,1.826-2.646,4.462-3.334,5.768-.106.22-.22.291-.256.291s-.062-.141-.062-.37v-4.648c0-1.7-.688-2.39-1.632-2.39a2.372,2.372,0,0,0-2.178,1.34c-1.526,2.575-4.057,6.535-4.533,7.188l-.22.221c-.071,0-.115-.071-.115-.256v-6.094c0-1.7-.688-2.39-1.632-2.39-1.3,0-2.028,1.2-2.5,1.958-.653,1.049-1.517,2.469-2.2,3.775a6.348,6.348,0,0,1-1.023,1.667c-.071,0-.071-.326-.071-.944v-4.851a13.555,13.555,0,0,0,3.7-9.066c0-1.958-.882-3.051-2.214-3.051-2.5,0-4.41,3.916-4.41,8.563v3.766a10.071,10.071,0,0,1-3.589,1.349c-.679-2-2.1-3.051-3.245-3.051h-.053a1.817,1.817,0,0,0-1.923,1.887c0,1.923,1.887,2.725,3.528,2.725h.476a6.013,6.013,0,0,1,.071,1.164c0,1.764-1.049,3.528-3.007,3.528s-3.228-1.958-3.228-4.207a6.173,6.173,0,0,1,1.332-4.092,1.9,1.9,0,0,0,.582-.882c0-.168-.256-.212-.476-.212-1.376,0-4.41,1.852-8.043,5.477a78.361,78.361,0,0,1-.688-8.493,31.353,31.353,0,0,1,.758-6.456,7.722,7.722,0,0,0,.115-.97c0-.291-.15-.441-.547-.441m97.892,19.332a9.536,9.536,0,0,1,1.632.176,20.98,20.98,0,0,0,2.39,2.646c-1.923,3.087-3.448,6.747-3.448,10.018,0,2.346.547,4.127,2.284,4.127,3.625,0,6.341-7.54,6.341-13.123,0-1.667-.07-3.334-.22-5a23.9,23.9,0,0,1,3.916-3.528,8.643,8.643,0,0,0-.362,2.311c0,3.043,1.764,5.953,5.115,5.953,3.157,0,5.538-2.575,5.538-6.173a11.694,11.694,0,0,0-.071-1.3,9.25,9.25,0,0,0,3.237-1.12V312.3a1.208,1.208,0,0,0,1.261,1.314c.882,0,1.279-.582,1.9-1.914.5-1.094,1.878-3.6,2.725-5.08.644-1.164,1.005-1.923,1.3-1.923.07,0,.141.176.141.608v6.173c0,1.667.882,2.108,1.632,2.108a2.011,2.011,0,0,0,1.676-1.049c1.878-2.646,3.88-5.874,4.674-7.258.141-.247.326-.432.467-.432s.22.079.22.538v6.491c0,1.164.353,1.711,1.261,1.711a1.922,1.922,0,0,0,1.7-1.27c1.2-2.5,2.981-5.8,3.731-7.108.185-.291.37-.538.485-.538s.176.176.176.653V311.5c0,1.667.882,2.108,1.623,2.108,1.023,0,1.676-.723,2.319-1.561a70.057,70.057,0,0,0,4-6.173,16.758,16.758,0,0,1,1.085,2.037,5.953,5.953,0,0,0-1.764,3.528,1.984,1.984,0,0,0,1.914,2.143c1.667,0,3.184-1.6,3.184-3.81a7.7,7.7,0,0,0-.573-2.646c1.482-1.446,3.263-2.866,4.577-3.193a6.289,6.289,0,0,0-1.12,3.7c0,3.043,1.764,5.953,5.106,5.953s5.538-2.575,5.538-6.173a7.608,7.608,0,0,0-.106-1.623,8.7,8.7,0,0,0,1.923-1.235,1.949,1.949,0,0,1,1.014-.512c.326,0,.476.256.476.732v7.108c0,1.164.362,1.711,1.261,1.711a1.984,1.984,0,0,0,1.764-1.27c1.191-2.5,2.928-5.838,3.7-7.108.185-.291.326-.511.441-.511s.22.115.22.573v5.662c0,1.6.723,2.646,2.319,2.646s2.5-1.6,3.96-4.066a.883.883,0,0,0,.1-.362.538.538,0,0,0-.573-.511c-.326,0-.512.326-1.6,1.517-.22.229-.432.538-.838.538-.15,0-.247-.176-.247-.4v-6.35c0-1.7-.767-2.39-1.764-2.39a2.461,2.461,0,0,0-2.143,1.341,61.877,61.877,0,0,0-3.184,5.7c-.071.15-.176.362-.265.362s-.1-.106-.1-.362v-4.66c0-1.341-.37-2.39-1.764-2.39s-2.249,1.014-3.334,1.764a10.983,10.983,0,0,1-1.764,1.085c-.706-1.817-2.02-2.752-3.131-2.752h-.053a1.817,1.817,0,0,0-1.923,1.887,2.478,2.478,0,0,0,1.693,2.39,4.49,4.49,0,0,0,1.764.265,2.328,2.328,0,0,0,.573,0,7.2,7.2,0,0,1,0,1.279c0,1.764-1.058,3.528-3.016,3.528s-3.219-1.958-3.219-4.207A6.226,6.226,0,0,1,352.6,302.7c.326-.362.582-.582.582-.882,0-.168-.256-.212-.467-.212a9.393,9.393,0,0,0-3.951,1.155,24,24,0,0,0-4.357,3.131c-.653-1.455-1.438-2.725-1.852-3.7-.15-.4-.256-.882-.547-.882s-.362.256-.538.758a45.574,45.574,0,0,1-4.9,8.308l-.22.22c-.071,0-.106,0-.106-.256v-6.35c0-1.7-.688-2.39-1.632-2.39a2.425,2.425,0,0,0-2.143,1.341c-1.2,1.826-2.646,4.462-3.334,5.768-.106.22-.212.291-.247.291s-.079-.141-.079-.362V303.99c0-1.7-.688-2.39-1.632-2.39a2.364,2.364,0,0,0-2.169,1.341c-1.535,2.584-4.066,6.535-4.533,7.188l-.22.22c-.071,0-.115-.071-.115-.256V304c0-1.7-.679-2.39-1.632-2.39-1.3,0-2.028,1.2-2.5,1.958-.653,1.049-1.517,2.469-2.2,3.775A6.482,6.482,0,0,1,312.8,309c-.07,0-.07-.326-.07-.944V303.2a13.555,13.555,0,0,0,3.7-9.066c0-1.958-.882-3.051-2.214-3.051-2.5,0-4.41,3.916-4.41,8.563v3.766a10.133,10.133,0,0,1-3.6,1.349c-.67-2-2.1-3.051-3.245-3.051H302.9a1.817,1.817,0,0,0-1.931,1.887c0,1.923,1.887,2.725,3.528,2.725h.476a6.659,6.659,0,0,1,.062,1.164c0,1.764-1.049,3.528-3.007,3.528s-3.219-1.958-3.219-4.207a6.253,6.253,0,0,1,1.341-4.092,1.878,1.878,0,0,0,.573-.882c0-.168-.247-.212-.467-.212-1.376,0-4.41,1.861-8.052,5.477a78.072,78.072,0,0,1-.688-8.493,31.5,31.5,0,0,1,.758-6.456,7.649,7.649,0,0,0,.106-.97c0-.291-.15-.441-.538-.441-2.946,0-9.392,4.674-9.392,11.677a12.135,12.135,0,0,0,1.7,6.667,5.5,5.5,0,0,0-1.014-.071,13.6,13.6,0,0,0-2.937.432v-.723c0-1.561-.362-3.7-1.023-4.41l-.282-.115a2.478,2.478,0,0,0-1.058.362c-.432.229-.882.441-.882.582a.529.529,0,0,0,.106.326,5.442,5.442,0,0,1,1.191,2.8,5.909,5.909,0,0,0-4.48-1.764c-2.178,0-2.831.97-2.831,1.967,0,1.887,2.5,2.822,5.662,2.822a8.823,8.823,0,0,0,1.879-.256c0,.582.071,1.094.071,1.526,0,.617.106,1.085.511,1.085.617,0,.979-1.235,1.049-3.007a13.907,13.907,0,0,1,3.272-.538" transform="translate(-176.167 -290.742)" fill="#828c8f"/>
    <path id="Caminho_14" data-name="Caminho 14" d="M207.734,292.352c-.326,0-1.376.838-1.376,6.235v2.646a12.347,12.347,0,0,0,2.028-6.447c0-2.064-.071-2.434-.653-2.434m-11.015,10.962a.467.467,0,0,0-.511.5c0,.723.723,1.014,2.064,1.014-.406-1.014-1.094-1.517-1.561-1.517m52.421,0a.476.476,0,0,0-.5.5c0,.644.723,1.058,1.587,1.058h.512c-.4-1.014-1.129-1.517-1.6-1.517m-64.574-11.385c-1.923,0-5.653,4.277-5.653,10.442,0,4.348,1.155,6.888,3.007,9.137l1.164-1.561a52.516,52.516,0,0,1-.882-7.055,22.823,22.823,0,0,1,1.341-7.787c.653-1.817,1.164-2.831,1.164-3.051s0-.141-.15-.141m51.856,17.4a4.3,4.3,0,0,0-.882,1.967c0,.5.291.829.573.829s.626-.582.626-1.164a4.814,4.814,0,0,0-.326-1.64m-52.915,2.469c-2.064,2.646-4.127,6.341-4.057,10.7,0,1.341.679,2.1,1.446,2.1h0c1.984,0,3.131-4.039,3.131-7.505a37.816,37.816,0,0,0-.547-5.291m-3.528,15.116c-1.764,0-2.284-1.764-2.284-4.127,0-3.272,1.535-6.932,3.448-10.018-3.157-3.078-4.965-5.477-4.965-10.442,0-7,6.456-11.677,9.392-11.677.4,0,.547.15.547.441a7.731,7.731,0,0,1-.115.97,31.351,31.351,0,0,0-.758,6.456,78.367,78.367,0,0,0,.688,8.493c3.625-3.625,6.667-5.477,8.043-5.477.22,0,.476,0,.476.212a1.9,1.9,0,0,1-.582.882,6.173,6.173,0,0,0-1.332,4.092c0,2.249,1.2,4.207,3.228,4.207s3.007-1.764,3.007-3.528a6.019,6.019,0,0,0-.071-1.164h-.476c-1.667,0-3.528-.794-3.528-2.725a1.817,1.817,0,0,1,1.923-1.887h.053c1.146,0,2.566,1.058,3.245,3.051a10.072,10.072,0,0,0,3.589-1.349v-3.766c0-4.639,1.914-8.563,4.41-8.563,1.341,0,2.214,1.085,2.214,3.051a13.555,13.555,0,0,1-3.7,9.066v4.851c0,.617,0,.944.071.944a6.35,6.35,0,0,0,1.023-1.667c.688-1.3,1.552-2.725,2.2-3.775.476-.758,1.2-1.958,2.5-1.958.944,0,1.632.688,1.632,2.39v6.094c0,.176,0,.256.115.256l.22-.22c.476-.653,3.007-4.6,4.533-7.188a2.372,2.372,0,0,1,2.178-1.341c.944,0,1.632.688,1.632,2.39v4.648c0,.22,0,.37.062.37s.15-.071.256-.291c.688-1.3,2.143-3.951,3.334-5.768a2.408,2.408,0,0,1,2.134-1.341c.944,0,1.632.688,1.632,2.39v6.35c0,.22,0,.256.123.256l.212-.22a45.54,45.54,0,0,0,4.9-8.308c.176-.5.291-.758.547-.758s.4.459.538.882c.4.988,1.2,2.258,1.852,3.7a23.888,23.888,0,0,1,4.357-3.131,9.374,9.374,0,0,1,3.951-1.155c.22,0,.467,0,.467.212,0,.335-.256.556-.582.882a6.218,6.218,0,0,0-1.332,4.092c0,2.249,1.191,4.207,3.228,4.207s3.007-1.764,3.007-3.528a6.966,6.966,0,0,0,0-1.279,2.268,2.268,0,0,1-.573,0,4.464,4.464,0,0,1-1.764-.265,2.487,2.487,0,0,1-1.7-2.39,1.817,1.817,0,0,1,1.923-1.887h.053c1.12,0,2.425.935,3.14,2.752A10.906,10.906,0,0,0,254,303.241c1.094-.758,1.843-1.764,3.334-1.764s1.764,1.049,1.764,2.39v4.648c0,.256,0,.37.106.37s.176-.212.256-.37a65.275,65.275,0,0,1,3.193-5.7,2.452,2.452,0,0,1,2.143-1.341c.979,0,1.764.688,1.764,2.39v6.35c0,.22.115.4.256.4.4,0,.617-.317.838-.538,1.085-1.191,1.27-1.517,1.6-1.517a.529.529,0,0,1,.573.511.882.882,0,0,1-.1.362c-1.455,2.461-2.293,4.066-3.96,4.066s-2.319-1.049-2.319-2.646V305.29c0-.459-.071-.573-.22-.573s-.247.22-.432.512c-.758,1.27-2.5,4.6-3.7,7.108a1.975,1.975,0,0,1-1.764,1.27c-.882,0-1.261-.538-1.261-1.711v-7.108c0-.467-.15-.732-.476-.732a1.975,1.975,0,0,0-1.014.512,8.961,8.961,0,0,1-1.923,1.235,7.3,7.3,0,0,1,.106,1.614c0,3.6-2.284,6.173-5.547,6.173s-5.106-2.9-5.106-5.953a6.279,6.279,0,0,1,1.129-3.7c-1.314.326-3.087,1.764-4.568,3.193a7.689,7.689,0,0,1,.582,2.646,3.537,3.537,0,0,1-3.193,3.81,1.993,1.993,0,0,1-1.923-2.143,6.051,6.051,0,0,1,1.764-3.528,15.518,15.518,0,0,0-1.085-2.037c-1.058,1.764-2.8,4.568-3.986,6.173-.653.829-1.314,1.561-2.319,1.561-.767,0-1.64-.441-1.64-2.108v-6.173c0-.476,0-.653-.176-.653s-.291.256-.467.538c-.767,1.3-2.54,4.6-3.739,7.108a1.914,1.914,0,0,1-1.7,1.27c-.882,0-1.27-.538-1.27-1.711V305.4c0-.467-.071-.538-.22-.538s-.326.185-.476.432c-.794,1.385-2.787,4.577-4.674,7.258A2,2,0,0,1,212.5,313.6c-.758,0-1.623-.441-1.623-2.108v-6.173c0-.432-.079-.609-.15-.609-.291,0-.653.758-1.3,1.923-.838,1.49-2.214,3.986-2.725,5.08-.609,1.332-1.049,1.914-1.887,1.914a1.2,1.2,0,0,1-1.261-1.3v-7.285a9.4,9.4,0,0,1-3.237,1.12c0,.432.071.838.071,1.3,0,3.6-2.39,6.173-5.547,6.173-3.369,0-5.115-2.9-5.115-5.953a8.548,8.548,0,0,1,.362-2.311,23.7,23.7,0,0,0-3.907,3.528q.212,2.5.212,5c0,5.582-2.716,13.123-6.341,13.123" transform="translate(-176.114 -290.742)" fill="#828c8f"/>
    <path id="Caminho_15" data-name="Caminho 15" d="M351.989,292.3c-.335,0-1.376.838-1.376,6.235v2.646a12.347,12.347,0,0,0,2.028-6.447c0-2.064-.071-2.434-.653-2.434M341,303.265a.476.476,0,0,0-.5.5c0,.723.723,1.014,2.064,1.014-.388-1.014-1.085-1.517-1.552-1.517m52.43,0a.467.467,0,0,0-.512.5c0,.644.723,1.058,1.587,1.058h.5c-.4-1.014-1.12-1.517-1.587-1.517m-80.748,4.41c-.723,0-.97.291-.97.8,0,.785,1.049,1.341,2.461,1.341a11.914,11.914,0,0,0,1.632-.071c-1.014-1.261-1.958-2.073-3.122-2.073m16.174-15.874c-1.923,0-5.653,4.277-5.653,10.433,0,4.357,1.164,6.888,3.007,9.137l1.155-1.561a54.132,54.132,0,0,1-.882-7.055,22.866,22.866,0,0,1,1.34-7.787c.653-1.817,1.155-2.831,1.155-3.051l-.132-.141m51.777,17.427a4.268,4.268,0,0,0-.882,1.967c0,.5.3.829.582.829s.617-.582.617-1.164a4.71,4.71,0,0,0-.326-1.64M327.7,311.7c-2.055,2.646-4.136,6.341-4.057,10.7,0,1.332.688,2.1,1.455,2.1h0c1.984,0,3.131-4.039,3.131-7.505a38.539,38.539,0,0,0-.547-5.291m-3.528,15.116c-1.764,0-2.284-1.764-2.284-4.127,0-3.272,1.526-6.932,3.448-10.019a20.979,20.979,0,0,1-2.39-2.646,9.534,9.534,0,0,0-1.632-.176,13.907,13.907,0,0,0-3.272.538c-.062,1.764-.432,3.007-1.049,3.007-.406,0-.511-.476-.511-1.085,0-.441-.071-.944-.071-1.526a8.813,8.813,0,0,1-1.878.256c-3.157,0-5.662-.944-5.662-2.822,0-.988.653-1.967,2.831-1.967a5.909,5.909,0,0,1,4.48,1.764,5.441,5.441,0,0,0-1.191-2.8.529.529,0,0,1-.106-.326c0-.141.432-.353.882-.582a2.478,2.478,0,0,1,1.058-.362l.282.115c.653.723,1.023,2.866,1.023,4.41v.723a13.61,13.61,0,0,1,2.937-.432,5.5,5.5,0,0,1,1.014.071,12.135,12.135,0,0,1-1.7-6.667c0-7,6.456-11.676,9.392-11.676.388,0,.538.15.538.441a7.633,7.633,0,0,1-.106.97,31.5,31.5,0,0,0-.758,6.456,78.111,78.111,0,0,0,.688,8.493c3.625-3.625,6.676-5.477,8.052-5.477.22,0,.467,0,.467.212a1.878,1.878,0,0,1-.573.882,6.253,6.253,0,0,0-1.34,4.092c0,2.249,1.191,4.207,3.219,4.207s3.007-1.764,3.007-3.528a6.659,6.659,0,0,0-.062-1.164h-.476c-1.667,0-3.528-.794-3.528-2.725a1.817,1.817,0,0,1,1.931-1.887h.053c1.146,0,2.566,1.058,3.245,3.051a10.132,10.132,0,0,0,3.6-1.349V299.4c0-4.639,1.914-8.563,4.41-8.563,1.341,0,2.214,1.085,2.214,3.051a13.555,13.555,0,0,1-3.7,9.066v4.851c0,.617,0,.944.07.944a6.48,6.48,0,0,0,1-1.667c.688-1.3,1.561-2.725,2.2-3.775.476-.758,1.2-1.958,2.5-1.958.952,0,1.632.688,1.632,2.39v6.094c0,.176,0,.256.115.256l.22-.22c.467-.653,3.007-4.6,4.533-7.188a2.364,2.364,0,0,1,2.169-1.341c.944,0,1.632.688,1.632,2.39v4.648c0,.22,0,.362.079.362s.141-.062.247-.291c.688-1.3,2.134-3.951,3.334-5.768a2.425,2.425,0,0,1,2.143-1.34c.944,0,1.632.688,1.632,2.39v6.35c0,.22,0,.256.106.256l.221-.22a45.57,45.57,0,0,0,4.895-8.308c.176-.5.291-.758.538-.758s.4.459.547.882c.406.988,1.2,2.258,1.852,3.7a24,24,0,0,1,4.357-3.131,9.393,9.393,0,0,1,3.951-1.155c.212,0,.467,0,.467.212,0,.335-.256.556-.582.882a6.226,6.226,0,0,0-1.341,4.092c0,2.249,1.191,4.207,3.219,4.207s3.016-1.764,3.016-3.528a7.2,7.2,0,0,0,0-1.279,2.327,2.327,0,0,1-.573,0,4.488,4.488,0,0,1-1.764-.265,2.478,2.478,0,0,1-1.693-2.39A1.817,1.817,0,0,1,393.3,301.4h.053c1.111,0,2.416.935,3.131,2.752a10.983,10.983,0,0,0,1.764-1.085c1.085-.758,1.843-1.764,3.334-1.764s1.764,1.049,1.764,2.39v4.648c0,.256,0,.362.1.362s.185-.212.265-.362a61.9,61.9,0,0,1,3.184-5.7,2.461,2.461,0,0,1,2.143-1.34c.979,0,1.764.688,1.764,2.39v6.35c0,.22.1.4.247.4.4,0,.617-.309.838-.538,1.085-1.191,1.27-1.517,1.6-1.517a.538.538,0,0,1,.573.512.881.881,0,0,1-.1.362c-1.455,2.461-2.293,4.066-3.96,4.066s-2.319-1.049-2.319-2.646v-5.44c0-.459-.071-.573-.22-.573s-.256.22-.441.512c-.758,1.27-2.5,4.6-3.7,7.108a1.984,1.984,0,0,1-1.764,1.27c-.882,0-1.261-.547-1.261-1.711v-7.108c0-.467-.15-.732-.476-.732a1.949,1.949,0,0,0-1.014.512,8.7,8.7,0,0,1-1.923,1.235,7.607,7.607,0,0,1,.106,1.623c0,3.6-2.275,6.173-5.538,6.173s-5.106-2.91-5.106-5.953a6.288,6.288,0,0,1,1.12-3.7c-1.3.326-3.087,1.764-4.577,3.193a7.7,7.7,0,0,1,.573,2.646,3.54,3.54,0,0,1-3.184,3.81,1.984,1.984,0,0,1-1.914-2.143,6.051,6.051,0,0,1,1.764-3.528,16.757,16.757,0,0,0-1.085-2.037c-1.058,1.764-2.8,4.568-4,6.173-.653.829-1.3,1.561-2.319,1.561-.758,0-1.623-.441-1.623-2.108V305.29c0-.476,0-.653-.176-.653s-.3.256-.485.538c-.758,1.3-2.531,4.6-3.73,7.108a1.923,1.923,0,0,1-1.7,1.27c-.882,0-1.261-.547-1.261-1.711v-6.491c0-.467-.079-.538-.22-.538s-.326.185-.467.432c-.794,1.385-2.8,4.577-4.674,7.258a2.011,2.011,0,0,1-1.676,1.049c-.767,0-1.631-.441-1.631-2.108v-6.173c0-.432-.062-.609-.141-.609-.291,0-.653.758-1.3,1.923-.882,1.49-2.222,3.986-2.725,5.08-.617,1.332-1.049,1.914-1.9,1.914a1.208,1.208,0,0,1-1.261-1.314V304.98a9.25,9.25,0,0,1-3.237,1.12,11.7,11.7,0,0,1,.07,1.3c0,3.6-2.39,6.173-5.538,6.173-3.378,0-5.115-2.91-5.115-5.953a8.645,8.645,0,0,1,.362-2.311,23.911,23.911,0,0,0-3.916,3.528c.15,1.667.22,3.334.22,5,0,5.583-2.716,13.123-6.341,13.123" transform="translate(-214.037 -290.692)" fill="#828c8f"/>
  </g>
</svg>
