<svg id="Kimberly-Clark" xmlns="http://www.w3.org/2000/svg" width="240" height="30.079" viewBox="0 0 240 30.079">
  <path id="path67" d="M890.326,39.841h.051a5.309,5.309,0,0,1,4.731-2.074l-.329,4.528c-.38-.025-.759-.025-1.113-.025-3.516,0-3.643,2.024-3.769,4.377l-.329,5.287h-5.49l.734-10.524a28.437,28.437,0,0,0,.076-3.668h5.237Z" transform="translate(-671.93 -28.685)" fill="#828c8f"/>
  <path id="path65" d="M794.046,32.463l1.417-20.339h5.186l-1.417,20.339Z" transform="translate(-603.503 -9.215)" fill="#828c8f"/>
  <path id="path63" d="M724.949,9.91c4.2,0,8.475,1.821,8.3,6.932h-5.768a2.663,2.663,0,0,0-2.732-2.859c-1.948,0-4.25,1.467-4.655,5.667s.127,7.412,3.542,7.412a3.475,3.475,0,0,0,3.592-3.036h5.717c0,2.277-1.872,6.957-9.638,6.957-8.2,0-9.638-5.97-8.981-11.51.582-4.655,3.9-9.563,10.625-9.563Z" transform="translate(-542.805 -7.532)" fill="#828c8f"/>
  <path id="path61" d="M677.646,49.655H684.5l-2.2,4.427h-6.856Z" transform="translate(-513.362 -37.739)" fill="#828c8f"/>
  <path id="path59" d="M618.2,58.764h-4.933l3.188-6.6-5.211-14.42h6.046l2.327,8.8,3.719-8.8h4.984Z" transform="translate(-464.566 -28.685)" fill="#828c8f"/>
  <path id="path57" d="M300.56,36.46v1.923h.051a5.949,5.949,0,0,1,5.085-2.252c1.923,0,3.921,1.063,4.3,2.5a6.11,6.11,0,0,1,5.186-2.58c3.086,0,5.237,1.973,5.034,5.11l-.683,9.487H314.12l.582-8.323c.076-1.341-.025-2.884-1.821-2.884-2.606,0-2.5,2.909-2.53,3.086l-.531,8.121h-5.464l.607-8.323c.025-1.391-.152-2.884-1.872-2.884-2.757,0-2.682,2.909-2.682,3.086l-.557,8.146h-5.616l.987-14.192Z" transform="translate(-223.629 -27.403)" fill="#828c8f"/>
  <path id="path55" d="M269.71,37.742h5.06l-.987,14.192h-5.06Z" transform="translate(-204.239 -28.685)" fill="#828c8f"/>
  <path id="path53" d="M216.9,12.124l-7.109,9.031,6.324,11.308h7.134l-7.109-11.612,7.488-8.728Z" transform="translate(-159.449 -9.215)" fill="#828c8f"/>
  <path id="path51" d="M182.559,12.124H188.5l-1.417,20.339h-5.97Z" transform="translate(-137.655 -9.215)" fill="#828c8f"/>
  <path id="path47" d="M480.745,44.474c-.152,1.948.278,3.542,2.3,3.542a2.209,2.209,0,0,0,2.429-1.923h4.958a4.9,4.9,0,0,1-2.732,3.845,8.192,8.192,0,0,1-4.376.936c-5.768,0-8.019-2.4-7.665-7.766.3-4.478,3.9-7.134,8.171-7.058,5.692.1,7.513,3.44,6.982,8.449H480.745Zm5.135-2.682a3.591,3.591,0,0,0-.506-2.125,1.882,1.882,0,0,0-1.771-.911c-1.872.076-2.353,1.417-2.606,3.01h4.882Z" transform="translate(-361.492 -27.398)" fill="#828c8f"/>
  <path id="path43" d="M405.689,12.124H411l-.557,8.1h.1a5.87,5.87,0,0,1,4.478-2.327c4.351,0,6.021,3.82,5.768,7.26-.228,3.491-2.074,7.488-6.906,7.488a5.077,5.077,0,0,1-3.946-1.948h-.1l-.329,1.72H404.3Zm4.25,13.433c-.076,1.72.354,4.174,2.3,4.174,2.454,0,3.061-2.454,3.162-4.427.076-1.746-.253-4.326-2.353-4.3C410.369,21,410.014,23.685,409.939,25.557Z" transform="translate(-307.28 -9.215)" fill="#828c8f"/>
  <path id="path41" d="M584.043,32.463l1.417-20.339h5.186l-1.417,20.339Z" transform="translate(-443.894 -9.215)" fill="#828c8f"/>
  <path id="path39" d="M546.014,39.841h.051a5.29,5.29,0,0,1,4.705-2.074l-.329,4.528c-.354-.025-.734-.025-1.088-.025-3.516,0-3.643,2.024-3.769,4.377l-.329,5.287h-5.49L540.5,41.41a28.436,28.436,0,0,0,.076-3.668h5.237Z" transform="translate(-410.241 -28.685)" fill="#828c8f"/>
  <path id="path37" d="M953.762,44.041l5.06-6.3h6.071l-5.464,6,5.161,8.2h-6.577Z" transform="translate(-724.893 -28.685)" fill="#828c8f"/>
  <path id="path35" d="M929.2,32.463l1.417-20.339h5.363l-1.417,20.339Z" transform="translate(-706.224 -9.215)" fill="#828c8f"/>
  <path id="path31" d="M829.3,48.746h-.051a5.654,5.654,0,0,1-4.3,1.847c-3.365,0-4.756-1.9-4.756-4.4,0-2.808,2.884-4.629,8.019-4.629h1.695c.076-1.24.506-3.289-1.594-3.289a2,2,0,0,0-1.9,2.125h-4.883a3.912,3.912,0,0,1,2.4-3.719,12.363,12.363,0,0,1,4.933-.835c2.884,0,6.4,1.442,6.173,4.933l-.4,6.805a22.168,22.168,0,0,0,.025,2.909H829.6Zm-2.327-.961c2.5,0,2.656-2.327,2.783-4.225a7.565,7.565,0,0,0-2.96.3,2.465,2.465,0,0,0-1.493,2.049A1.679,1.679,0,0,0,826.971,47.785Z" transform="translate(-623.374 -27.243)" fill="#828c8f"/>
  <path id="path29" d="M274.142,12.124h5.06l-.253,3.668h-5.06Z" transform="translate(-208.165 -9.215)" fill="#828c8f"/>
  <path id="path27" d="M13.1,3.036v8.652a9.39,9.39,0,0,0-3.744-3.9h-6.5c2.1,1.568,5.439,4.022,5.439,6,0,.987-1.189,1.164-1.872,1.164h-4.1v4.705H8.753A4.4,4.4,0,0,0,13.1,16.924v6.3h5.97v-6.3a4.368,4.368,0,0,0,4.351,2.732h6.426V14.951h-4.1c-.683,0-1.872-.2-1.872-1.164,0-1.973,3.339-4.427,5.439-6h-6.5a9.39,9.39,0,0,0-3.744,3.9V3.036ZM16.089,0c8.88,0,16.089,6.2,16.089,13.838s-7.21,13.838-16.089,13.838S0,21.478,0,13.838C0,6.173,7.185-.025,16.089,0Z" transform="translate(0 0)" fill="#828c8f"/>
</svg>
