<svg xmlns="http://www.w3.org/2000/svg" width="240" height="93.632" viewBox="0 0 240 93.632">
  <g id="Lanxess" transform="translate(-28.423 167.835)">
    <g id="g3852" transform="translate(28.423 -167.835)">
      <path id="path3646" d="M10.707-3.1H97.833V-13.293H10.707Z" transform="translate(-10.707 71.615)" fill="#828c8f"/>
      <path id="path3648" d="M96.91-171.494a17.218,17.218,0,0,1,.2,1.864c1.21,5.9,2.824,14.987,3.025,16.55H93.683c.4-1.567,2.017-10.657,3.227-16.55Zm5.244-12.413H92.473l-11.5,50.983h9.076s2.017-11.08,2.42-12.494h9.076c.2,1.414,2.218,12.494,2.218,12.494h9.076l-10.689-50.983" transform="translate(-57.179 184.448)" fill="#828c8f"/>
      <path id="path3650" d="M207.906-152.24v1.6a17.1,17.1,0,0,1-.2-1.862c-2.218-11.191-6.252-31.408-6.252-31.408h-11.5v50.983h8.067v-34.116a17.132,17.132,0,0,1,.2,1.87c2.218,11.486,6.252,32.247,6.252,32.247h11.9v-50.983h-8.471v31.668" transform="translate(-129.251 184.448)" fill="#828c8f"/>
      <path id="path3652" d="M10.707-183.908v50.983H31.278v-7.664h-11.7v-43.319H10.707" transform="translate(-10.707 184.448)" fill="#828c8f"/>
      <path id="path3654" d="M289.915,53.02V51.736h-5.647V48.2h6.454V46.919h-7.866V58.135h8.067V56.866h-6.655V53.02h5.647" transform="translate(-190.689 31.795)" fill="#828c8f"/>
      <path id="path3656" d="M311.441,57.478V64.96h1.21V60.688A1.967,1.967,0,0,1,313.256,59a1.825,1.825,0,0,1,1.412-.573,1.644,1.644,0,0,1,1.613,1.033v5.5h1.412V60.5a3.6,3.6,0,0,0-.2-1.541,2.4,2.4,0,0,0-2.42-1.716,2.9,2.9,0,0,0-2.42,1.335v-1.1h-1.21" transform="translate(-209.593 24.969)" fill="#828c8f"/>
      <path id="path3658" d="M336.674,60.513c.2-1.509,1.008-2.3,2.218-2.3a2.026,2.026,0,0,1,2.017,2.3Zm4.437,1.97a2.088,2.088,0,0,1-2.017,1.747c-1.815,0-2.42-1.555-2.42-2.811h5.647a4.882,4.882,0,0,0-.2-1.527,3.151,3.151,0,0,0-3.227-2.652,3.6,3.6,0,0,0-3.63,3.909c0,2.527,1.412,4.036,3.63,4.036a3.4,3.4,0,0,0,3.429-2.527l-1.21-.173" transform="translate(-225.346 24.969)" fill="#828c8f" fill-rule="evenodd"/>
      <path id="path3660" d="M361.464,57.757V65.24h1.412V61.777c0-.682-.2-1.333.2-1.89A2.028,2.028,0,0,1,364.893,59a3.88,3.88,0,0,1,.4.032V57.663a2.526,2.526,0,0,0-2.42,1.462V57.757h-1.412" transform="translate(-242.675 24.69)" fill="#828c8f"/>
      <path id="path3662" d="M379.387,58.383a2.418,2.418,0,0,1,2.42,2.717,2.878,2.878,0,0,1-.605,2,1.976,1.976,0,0,1-1.815.954,2.266,2.266,0,0,1-1.815-.889,3.839,3.839,0,0,1-.4-1.954C377.169,59.48,377.975,58.4,379.387,58.383Zm2.219-.906v1a2.85,2.85,0,0,0-2.42-1.24c-1.412,0-3.429,1-3.429,4.02,0,2.606,1.613,3.925,3.429,3.925a2.8,2.8,0,0,0,2.42-1.319v.873c0,1.24,0,1.795-.4,2.289a2.213,2.213,0,0,1-1.613.538c-1.613,0-2.017-.9-2.017-1.763H376.16a3.035,3.035,0,0,0,1.008,2.16,4.916,4.916,0,0,0,2.42.635,3.363,3.363,0,0,0,3.025-1.444,5.725,5.725,0,0,0,.4-2.606V57.478h-1.412" transform="translate(-252.127 24.969)" fill="#828c8f" fill-rule="evenodd"/>
      <path id="path3664" d="M404.361,50.653h-1.21v7.482h1.21Zm0-3.733h-1.21v1.464h1.21Z" transform="translate(-270.243 31.795)" fill="#828c8f" fill-rule="evenodd"/>
      <path id="path3666" d="M412.487,57.942v1.1h3.832l-4.235,5.338v1.047h5.849V64.378h-4.437l4.437-5.419V57.942h-5.445" transform="translate(-276.15 24.505)" fill="#828c8f"/>
      <path id="path3668" d="M435.923,50.653h-1.21v7.482h1.21Zm0-3.733h-1.21v1.464h1.21Z" transform="translate(-291.116 31.795)" fill="#828c8f" fill-rule="evenodd"/>
      <path id="path3670" d="M444.836,57.478V64.96h1.21V60.688A1.967,1.967,0,0,1,446.652,59a2.16,2.16,0,0,1,1.412-.573,1.488,1.488,0,0,1,1.613,1.033c.2.254.2.476.2,1.24V64.96h1.21V60.5a3.6,3.6,0,0,0-.2-1.541,2.4,2.4,0,0,0-2.42-1.716,2.9,2.9,0,0,0-2.42,1.335v-1.1h-1.21" transform="translate(-297.811 24.969)" fill="#828c8f"/>
      <path id="path3672" d="M472.287,58.383c.605,0,2.42.175,2.42,2.717a3.977,3.977,0,0,1-.4,2,2.212,2.212,0,0,1-1.815.954,2.635,2.635,0,0,1-2.017-.889,3.839,3.839,0,0,1-.4-1.954C470.069,59.48,470.875,58.4,472.287,58.383Zm2.42-.906v1a3.094,3.094,0,0,0-2.42-1.24c-1.613,0-3.63,1-3.63,4.02a3.634,3.634,0,0,0,3.63,3.925,3.15,3.15,0,0,0,2.42-1.319v.873c0,1.24,0,1.795-.605,2.289a1.681,1.681,0,0,1-1.412.538c-1.613,0-2.218-.9-2.218-1.763H469.06a2.709,2.709,0,0,0,1.21,2.16,3.756,3.756,0,0,0,2.219.635,3.363,3.363,0,0,0,3.025-1.444,5.725,5.725,0,0,0,.4-2.606V57.478h-1.21" transform="translate(-313.565 24.969)" fill="#828c8f" fill-rule="evenodd"/>
      <path id="path3674" d="M417.443-183.908v67.976H444.67V-126.15H429.14v-19.472h14.723v-10.219H429.14v-17.847H444.67v-10.219H417.443" transform="translate(-279.695 184.448)" fill="#828c8f"/>
      <path id="path3676" d="M515.7-168.9c0,9.138,4.84,14.624,11.092,20.842,9.277,9.215,9.277,10.723,9.277,15.733,0,5.151-1.815,6.206-4.639,6.206-1.008,0-4.034,0-4.034-5.756v-6.645H515.7v9.09c0,8.255,5.647,12.988,15.328,12.988,10.891,0,16.134-5.7,16.134-17.425,0-8.3-1.815-11.669-10.891-21.18-8.067-8.418-8.874-10.9-8.874-14.936,0-4.869,1.613-5.845,4.235-5.845,1.815,0,3.63.543,3.63,4.576v6.468h11.092v-7.464c0-4.441-.807-7.3-3.025-9.279a16.835,16.835,0,0,0-11.5-3.975c-10.689,0-16.134,5.429-16.134,16.6" transform="translate(-344.677 185.504)" fill="#828c8f"/>
      <path id="path3678" d="M626.468-168.9c0,9.138,4.84,14.624,11.092,20.842,9.277,9.215,9.277,10.723,9.277,15.733,0,5.151-1.815,6.206-4.639,6.206-1.008,0-4.034,0-4.034-5.756v-6.645h-11.7v9.09c0,8.255,5.647,12.988,15.328,12.988,10.891,0,16.134-5.7,16.134-17.425,0-8.3-1.613-11.669-10.891-21.18-8.067-8.418-8.874-10.9-8.874-14.936,0-4.869,1.613-5.845,4.235-5.845,1.815,0,3.63.543,3.63,4.576v6.468h11.092v-7.464c0-4.441-.807-7.3-3.025-9.279-2.622-2.571-6.857-3.975-11.5-3.975-10.689,0-16.134,5.429-16.134,16.6" transform="translate(-417.93 185.504)" fill="#828c8f"/>
      <path id="path3680" d="M323.394-183.908H311.5l-8.269,19.976-8.471-19.976h-11.9l14.319,33.989-14.319,33.987h11.9l8.471-19.976,8.269,19.976h11.9l-14.319-33.987,14.319-33.989" transform="translate(-190.689 184.448)" fill="#828c8f"/>
      <path id="path3682" d="M547.265,58.1h1.412v-5a1.957,1.957,0,0,1,2.017-1.6,1.335,1.335,0,0,1,1.21.633c.4.462.4,1.033.4,2.021V58.1h1.21V53.751a4.289,4.289,0,0,0-.2-1.716,2.25,2.25,0,0,0-2.42-1.652,2.669,2.669,0,0,0-2.219.986v-4.5h-1.412V58.1" transform="translate(-365.55 31.826)" fill="#828c8f"/>
      <path id="path3684" d="M572.5,60.513c.2-1.509,1.008-2.3,2.218-2.3a2.026,2.026,0,0,1,2.017,2.3Zm4.437,1.97a1.94,1.94,0,0,1-2.017,1.747c-1.815,0-2.42-1.555-2.42-2.811h5.647V59.892a3.5,3.5,0,0,0-3.429-2.652,3.6,3.6,0,0,0-3.63,3.909c0,2.527,1.412,4.036,3.63,4.036a3.4,3.4,0,0,0,3.429-2.527l-1.21-.173" transform="translate(-381.304 24.969)" fill="#828c8f" fill-rule="evenodd"/>
      <path id="path3686" d="M597.288,57.478V64.96h1.21V60.513c0-.668,0-1.081.605-1.527a2,2,0,0,1,1.412-.555,1.455,1.455,0,0,1,1.008.508,1.543,1.543,0,0,1,.4,1.192v4.814h1.21V60.751c0-.906,0-1.256.4-1.684a1.937,1.937,0,0,1,1.412-.635,1.589,1.589,0,0,1,1.412.936v5.578h1.21V60.259a4.255,4.255,0,0,0-.2-1.716,2.46,2.46,0,0,0-2.017-1.3c-1.21,0-1.815.732-2.622,1.382a2.052,2.052,0,0,0-2.017-1.382,3.205,3.205,0,0,0-2.219,1.24v-1h-1.21" transform="translate(-398.632 24.969)" fill="#828c8f" fill-rule="evenodd"/>
      <path id="path3688" d="M635.42,50.653h-1.21v7.482h1.21Zm0-3.733h-1.21v1.464h1.21Z" transform="translate(-423.05 31.795)" fill="#828c8f" fill-rule="evenodd"/>
      <path id="path3690" d="M646.773,61.831c1.008.175,1.613.333,1.613,1.192,0,.809-.6,1.238-1.815,1.238a2.043,2.043,0,0,1-1.412-.43,1.716,1.716,0,0,1-.605-1.46l-1.412.222a2.548,2.548,0,0,0,1.21,2.033,3.855,3.855,0,0,0,2.219.605c2.017,0,3.227-1.144,3.227-2.368,0-1.573-1.613-1.954-2.622-2.16l-.6-.175c-1.008-.238-1.815-.46-1.815-1.176,0-.508.4-1.1,1.412-1.1a2.061,2.061,0,0,1,1.412.446,1.148,1.148,0,0,1,.605,1.206l1.412-.175a2.959,2.959,0,0,0-3.227-2.446c-1.815,0-2.824.857-2.824,2.225,0,1.557,1.412,1.89,2.622,2.176l.605.143" transform="translate(-428.958 24.938)" fill="#828c8f"/>
      <path id="path3692" d="M668.192,50.957h-1.21v2.366h-1.21v1.049h1.21v4.861c0,.986,0,1.7,1.412,1.7a8.776,8.776,0,0,0,1.21-.129V59.758a2.965,2.965,0,0,1-.807.173c-.605,0-.605-.381-.605-1.271v-4.29H669.6V53.323h-1.412V50.957" transform="translate(-443.923 29.124)" fill="#828c8f"/>
      <path id="path3694" d="M682.446,57.757V65.24h1.21V61.777a3.037,3.037,0,0,1,.4-1.89A1.524,1.524,0,0,1,685.673,59c.2,0,.4.018.605.032V57.663a2.779,2.779,0,0,0-2.622,1.462V57.757h-1.21" transform="translate(-454.951 24.69)" fill="#828c8f"/>
      <path id="path3696" d="M700.2,57.942l-2.017,5.942-1.815-5.942h-1.412l2.622,7.533-.4.9c-.2,1.033-.4,1.573-1.412,1.573a2.736,2.736,0,0,1-.807-.127v1.127a3.443,3.443,0,0,0,1.21.175c1.412,0,1.613-.827,2.219-2.335l3.227-8.85H700.2" transform="translate(-463.221 24.505)" fill="#828c8f"/>
      <path id="path3698" d="M520.417,53.328a3.819,3.819,0,0,1-3.832,3.388c-2.622,0-4.034-1.993-4.034-4.828a5.956,5.956,0,0,1,.807-3.275,4.208,4.208,0,0,1,3.227-1.442,3.983,3.983,0,0,1,3.025,1.329,4.406,4.406,0,0,1,.605,1.3l1.412-.3c-.2-.746-1.21-3.433-5.042-3.433s-5.647,2.717-5.647,5.893c0,3.116,1.815,5.9,5.445,5.9a5.34,5.34,0,0,0,5.445-4.352l-1.412-.182" transform="translate(-341.527 32.354)" fill="#828c8f"/>
    </g>
  </g>
</svg>
