<svg xmlns="http://www.w3.org/2000/svg" width="240" height="120.516" viewBox="0 0 240 120.516">
  <g id="LIberty_Seguros" data-name="LIberty Seguros" transform="translate(-588.413 -209.21)">
    <path id="Caminho_8" data-name="Caminho 8" d="M952.685,312.984a3.087,3.087,0,1,0-2.181-.906A3.087,3.087,0,0,0,952.685,312.984Z" transform="translate(-242.436 -65.511)" fill="#828c8f"/>
    <path id="Caminho_9" data-name="Caminho 9" d="M1172.633,341.258c0,4.094,2.683,5.671,6.036,5.671a5.907,5.907,0,0,0,5.662-3.168l-.546-.506a3.336,3.336,0,0,1-2.564,1.447c-2.492,0-3.255-1.707-3.255-4.57V329.888h4.738c2.581,0,3.314.969,4.468,3.327l6.484,13.728c-2.177,5.787-4.021,8.217-7.361,8.217a6.1,6.1,0,0,1-2.364-.434l-1.108,5.352a7.569,7.569,0,0,0,1.44.116c3.672,0,5.691-1.548,7.592-5.918l8.946-20.455c1.443-3.327,2.062-3.963,4.323-4.6v-.793h-7.378v.8c2.249.477,2.752,1.9,1.18,5.671l-2.449,5.714-3.758-7.768c-1.065-2.257-1.065-3.3.95-3.617v-.8h-15.7v-6.844h-.894a33.144,33.144,0,0,1-7.592,7.378v.913h3.153Z" transform="translate(-390.022 -75.427)" fill="#828c8f"/>
    <path id="Caminho_10" data-name="Caminho 10" d="M1117.629,345.292v9.4c0,2.011-.589,2.72-2.88,3.284v.781h11.208v-.81c-2.607-.535-3-1.2-3-3.284v-7.233c1.341-1.9,2.321-2.532,3.919-2.532,1.21,0,2.449.781,3.991,2.3l1.18-5.4a4.181,4.181,0,0,0-3.11-1.447c-2.219,0-4.149,1.823-5.892,5.671h-.076v-5.744h-.835l-7.707.709v.8a3.018,3.018,0,0,1,1.332.209,3.038,3.038,0,0,1,1.868,3.292Z" transform="translate(-353.072 -87.981)" fill="#828c8f"/>
    <path id="Caminho_11" data-name="Caminho 11" d="M1064.108,359.448a9.941,9.941,0,0,0,9.5-6.192h-.792a7.3,7.3,0,0,1-6.326,3.891,5.454,5.454,0,0,1-2.449-.592c-2.288-1.114-4.061-3.935-3.83-8.289h13.4a8.871,8.871,0,0,0-9.291-8.014.684.684,0,0,0-.276,0,9.54,9.54,0,0,0-9.551,9.678,9.3,9.3,0,0,0,9.623,9.519Zm-.089-17.879h.085c2.108,0,3.689,2.372,3.834,5.627h-7.664c.086-3.37,1.555-5.627,3.719-5.627Z" transform="translate(-312.833 -87.949)" fill="#828c8f" fill-rule="evenodd"/>
    <path id="Caminho_12" data-name="Caminho 12" d="M895.559,333.111h-.793c-2.2,4.57-3.789,5.613-7.2,5.613s-4.323-.723-4.323-2.994v-18.56c0-2.416.748-2.98,3.472-3.689v-.78H873.746v.781c2.882.709,3.443,1.447,3.443,3.891v17.605c0,2.98-.288,3.689-3.443,4.5v.781h21.02Z" transform="translate(-191.52 -69.464)" fill="#828c8f"/>
    <path id="Caminho_13" data-name="Caminho 13" d="M980.255,310.72v25.533a43.478,43.478,0,0,0,8.644.723h1.341c7.618-.477,10.544-4.817,10.544-9.967s-3.63-9.2-8.4-9.2a9.782,9.782,0,0,0-2.131.275,10.314,10.314,0,0,0-4.7,2.893v-14.22h-.777l-7.2.521v.825C979.218,308.391,980.255,309.215,980.255,310.72Zm5.3,11.573c1.789-1.635,2.739-2.112,4.153-2.112a2.565,2.565,0,0,1,.546,0c2.883.318,4.711,3.255,4.711,7.32,0,4.833-1.815,7.233-4.711,7.971a10.118,10.118,0,0,1-1.874.188c-2.114,0-2.88-.941-2.88-2.98Z" transform="translate(-261.211 -65.475)" fill="#828c8f" fill-rule="evenodd"/>
    <path id="Caminho_14" data-name="Caminho 14" d="M944.17,345.3v9.447c0,2.271-.547,2.893-2.953,3.414v.781H952.31v-.824c-1.973-.246-2.882-1.244-2.882-3.023V340.539h-.792l-7.693.637v.8c2.594.55,3.228,1.143,3.228,3.327Z" transform="translate(-236.623 -88.15)" fill="#828c8f"/>
    <path id="Caminho_15" data-name="Caminho 15" d="M1194.609,480.185v1.273c3.344,0,4.928,3.168,4.928,7.928s-1.772,7.985-4.928,7.985c-3.1,0-5-3.052-5-7.682s1.279-7.8,4.32-8.2a3.933,3.933,0,0,1,.635,0v-1.3a10.406,10.406,0,0,0-8.644,3.645,10.407,10.407,0,0,1,8.644-3.645c-8.085,0-10.616,5.655-10.616,9.2a8.806,8.806,0,0,0,.875,3.8l.161.347c1.526,2.893,4.708,5.078,9.564,5.078h0c7.075,0,10.547-4.759,10.547-9.259.059-4.166-3.153-9.173-10.488-9.173Zm-4.925,17.475-.49-.217Zm2.091.638-.635-.145Zm-1.1-.274-.546-.174Zm-3.479-1.837-.293-.246Zm1.578,1.054-.417-.232Zm-.835-.493-.362-.246Zm-1.621-1.447.2.23Zm-.49-.578.112.145Zm6.375,3.617.763.1Z" transform="translate(-399.735 -181.867)" fill="#828c8f" fill-rule="evenodd"/>
    <path id="Caminho_16" data-name="Caminho 16" d="M1258.608,483.382c0-1.143,1.2-1.9,2.768-1.9a5.729,5.729,0,0,1,3.268,1.218,5.792,5.792,0,0,1,1.976,2.89h.746v-5.324h-.746a1.707,1.707,0,0,1-1.022.448c-.319,0-1.069-.13-1.891-.26a19.446,19.446,0,0,0-2.65-.261c-3.732,0-5.948,2.546-5.948,5.195,0,6.466,10.084,5.005,10.084,9.5a2.9,2.9,0,0,1-1.026,1.847,2.865,2.865,0,0,1-2,.655c-2.466,0-4.5-1.779-6.2-5.4h-.75v6.669h.75a2.21,2.21,0,0,1,.723-.477,2.178,2.178,0,0,1,.848-.16,9.264,9.264,0,0,1,2.032.319,15.646,15.646,0,0,0,2.795.318,6.124,6.124,0,0,0,4.231-1.721,6.187,6.187,0,0,0,1.877-4.18c-.03-7.031-9.87-5.772-9.87-9.389Z" transform="translate(-447.498 -181.893)" fill="#828c8f"/>
    <path id="Caminho_17" data-name="Caminho 17" d="M1271.348,421.682H1248.31v1.476h23.038Z" transform="translate(-442.934 -142.615)" fill="#828c8f"/>
    <path id="Caminho_18" data-name="Caminho 18" d="M1137.743,485.7v-5.454h-.776l-7.447.709v.767a2.845,2.845,0,0,1,1.286.182,2.9,2.9,0,0,1,1.808,3.174v9c0,1.91-.575,2.6-2.88,3.183v.766H1140.6v-.766c-2.535-.506-2.88-1.128-2.88-3.183V487.1c1.3-1.852,2.262-2.416,3.774-2.416a6.051,6.051,0,0,1,3.8,2.156l1.121-5.136a3.937,3.937,0,0,0-2.953-1.447c-2.19-.014-4.018,1.693-5.721,5.439Z" transform="translate(-363.2 -181.922)" fill="#828c8f"/>
    <path id="Caminho_19" data-name="Caminho 19" d="M978.38,421.682H871v1.476H978.38Z" transform="translate(-189.677 -142.615)" fill="#828c8f"/>
    <path id="Caminho_20" data-name="Caminho 20" d="M940.643,488.143h9.206a8.54,8.54,0,0,0-8.976-7.754h-.246a9.179,9.179,0,0,0-9.147,9.2,8.881,8.881,0,0,0,9.163,9.07,9.765,9.765,0,0,0,9.206-5.83h-.819a7.09,7.09,0,0,1-6.066,3.732,5.114,5.114,0,0,1-2.334-.579c-2.217-1.085-3.932-3.748-3.659-7.913Zm0-6.464c2.032,0,3.53,2.271,3.731,5.382h-7.405c.13-3.255,1.527-5.454,3.6-5.454Z" transform="translate(-230.271 -182.011)" fill="#828c8f" fill-rule="evenodd"/>
    <path id="Caminho_21" data-name="Caminho 21" d="M1076.893,493.84v-13.6h-.779l-7.016.709v.767c1.759.3,2.65,1.128,2.65,2.532v8.506c-1.44,2.329-2.519,3.1-4.222,3.1a2.9,2.9,0,0,1-2.959-1.784,2.932,2.932,0,0,1-.21-1.211V480.242h-.763l-6.944.709v.767c2.015.376,2.637,1.085,2.637,2.98v8.811c0,3.24,2.088,5.208,5.632,5.208,2.722,0,4.869-1.273,6.773-4.195v4.195l7.838-.694v-.766c-2.206-.651-2.637-1.158-2.637-3.414Z" transform="translate(-314.289 -181.922)" fill="#828c8f"/>
    <path id="Caminho_22" data-name="Caminho 22" d="M877.7,459.563a4.354,4.354,0,0,1-1.253-2.792,3.937,3.937,0,0,1,4.235-3.558,7.656,7.656,0,0,1,6.613,5.453h.764v-6.972h-.764a1.934,1.934,0,0,1-1.44.694,9.772,9.772,0,0,1-2.22-.318,11.207,11.207,0,0,0-2.708-.376c-4.8,0-8.212,3.183-8.212,7.74a7.656,7.656,0,0,0,2.346,5.584c2.206,2.213,6.745,4.2,8.774,6.221a4.456,4.456,0,0,1,1.442,3.052c0,2.141-2.018,3.746-4.869,3.746-3.733,0-6.253-2.72-7-6.654h-.777v7.985h.777a1.441,1.441,0,0,1,1.313-.882c1.44,0,3.213,1.085,6.367,1.085s8.428-2,8.428-7.783a8.22,8.22,0,0,0-2.882-6.076c-1.6-1.649-7.664-4.817-8.932-6.148Z" transform="translate(-190.769 -162.759)" fill="#828c8f"/>
    <path id="Caminho_23" data-name="Caminho 23" d="M998.806,480.238h-.319c-5.129,0-8.644,3.11-8.644,7.045,0,2.893,1.757,4.759,5.692,6.017-3.978.882-5.5,1.851-5.5,3.819s.748,3.544,5.935,4.05v.132c-5,.434-7.2,2.893-7.2,5.005,0,3.183,3.961,5.338,9.784,5.338h.316c7.2-.132,10.906-3.877,10.906-7.74a5.7,5.7,0,0,0-1.572-3.748c-2.2-2.156-6.25-2.532-9.351-2.893-2.65-.261-4.751-.521-4.751-1.779s1.739-1.649,4.711-1.649h.746c5.014,0,8.085-2.893,8.085-6.206a5.326,5.326,0,0,0-2.265-4.34l.118-.13,4.32.318v-3.123h-8.874Zm0,21.7c2.966.2,8.068,1.071,8.068,4.08,0,1.578-1.831,2.778-4.323,2.778a21.518,21.518,0,0,1-3.715-.362c-2.969-.506-6.01-1.707-6.01-3.935,0-1.591,1.9-2.6,4.741-2.6a10.71,10.71,0,0,1,1.24.087Zm3.774-15.014c0,3.993-1.7,5.584-3.771,5.584-2.334,0-3.863-2.1-3.863-5.439,0-3.689,1.325-5.468,3.863-5.584h.171c1.959.029,3.6,1.736,3.6,5.468Z" transform="translate(-268.721 -181.919)" fill="#828c8f" fill-rule="evenodd"/>
    <path id="Exclusão_2" data-name="Exclusão 2" d="M-3460.328,4827.152h0a5.852,5.852,0,0,1-2.969-1.346,51.816,51.816,0,0,1,12.333-14.929,60.185,60.185,0,0,1,14.092-9.027,42.142,42.142,0,0,0-14.769,6.553c-1.392.987-2.759,2.128-4.207,3.337l-.03.025q-.428.357-.862.717a27.845,27.845,0,0,0-3.054,3.372,80.247,80.247,0,0,0-5.894,8.52,7.441,7.441,0,0,1-1.628-1.317,38.608,38.608,0,0,1-8.463-14.718,61.1,61.1,0,0,1-2.877-19.146,62.82,62.82,0,0,1,3.358-20.918c-.125-2.488-.217-4.871-.217-5.165a7.985,7.985,0,0,1-1.355.116c-.232,0-.464-.01-.69-.03a4.209,4.209,0,0,1-2.349-.794,5.334,5.334,0,0,1-1.238-1.231,5.253,5.253,0,0,1-.69-1.445,2.264,2.264,0,0,1-1.184-.808,2.277,2.277,0,0,1-.46-1.363,3.608,3.608,0,0,1,.562-2.068,16.868,16.868,0,0,1-.46-3.212c-.9,0-1.886-1.251-2.249-2.155a1.935,1.935,0,0,1,.36-2.127,1.445,1.445,0,0,1-.18.011,1.437,1.437,0,0,1-1.261-.749,1.971,1.971,0,0,1,.2-1.953,7.489,7.489,0,0,1-3.212-3.186,7.5,7.5,0,0,1-.806-4.453,23.634,23.634,0,0,1,1.972-6.032,2.886,2.886,0,0,0-.087-1.794,1.554,1.554,0,0,1,.982-.351,1.556,1.556,0,0,1,1.15.509,15.214,15.214,0,0,1,2-1.94,8.422,8.422,0,0,1-1.44-5.526c.408-3.655,3.826-6.307,8.126-6.307a47.936,47.936,0,0,1,5.186.565,4.466,4.466,0,0,0,.5.028,4.391,4.391,0,0,0,3.4-1.607,3.346,3.346,0,0,1,1.7,3.53,4.353,4.353,0,0,0,.817.078,4.329,4.329,0,0,0,2.065-.526,6.043,6.043,0,0,0,2.433-2.547,4.788,4.788,0,0,1,2.709,4.629,5.948,5.948,0,0,1-1.1,3.564,5.943,5.943,0,0,1-2.993,2.223c-.364.139-.745.275-1.114.406l-.016.006c-1.788.636-3.476,1.236-3.713,2.306-.145.618-.033.76.076.9a.628.628,0,0,1,.112.188,5.712,5.712,0,0,1,1.257-.14c.112,0,.222,0,.327.009a1.446,1.446,0,0,1,1.34,1.243,2.207,2.207,0,0,0-.634,1.315,14.9,14.9,0,0,0,1.139,3.226,7.91,7.91,0,0,1,.173,5.048,12.3,12.3,0,0,1-2.607,4.73c.179.722,1,2.989,2.505,6.93l.209-.148.019-.014.009-.006c.149-.105.3-.215.453-.311a24.772,24.772,0,0,1,4.439-2.545,30.254,30.254,0,0,1,12.256-2.576h.306a33.868,33.868,0,0,1,4.251.3l1.268-6.812c0-.007.109-.723.634-.723s.659.772.66.78l1.961,7.523a31.436,31.436,0,0,1,3.9,1.447,27.311,27.311,0,0,1,8.645,6.321l6.325-5.222a1.4,1.4,0,0,1,.8-.448.458.458,0,0,1,.224.057c.44.243,0,1.164,0,1.173l-3.488,9.562a35.6,35.6,0,0,1,2.882,5.786l10.82-3.949a1.372,1.372,0,0,1,.558-.16.405.405,0,0,1,.351.16c.268.413-.355.992-.361,1l-9.035,10.127a68.972,68.972,0,0,1,1.716,15.551,73.271,73.271,0,0,1-.645,9.8,50.752,50.752,0,0,0-18.533,3.8,50.766,50.766,0,0,0-15.873,10.294,68.594,68.594,0,0,0-9.821,12.546l-.005.008c-.483.756-.832,1.3-1.008,1.507Zm5.944-42.923a8.616,8.616,0,0,0-5.714,2.165,13.739,13.739,0,0,0-4.552,8.68,41.279,41.279,0,0,0-.006,9.441c.078,1.031.146,1.921.164,2.609a30.651,30.651,0,0,1-1.816,11.154c.247-.33.613-.8,1.037-1.345a61.027,61.027,0,0,0,3.7-5.079,26.677,26.677,0,0,0,3.041-10.5,19.527,19.527,0,0,1,1.248-5.6,9.128,9.128,0,0,1,3.074-3.924,7.143,7.143,0,0,1,4.09-1.28,7.189,7.189,0,0,1,1.472.153l-3.242-6.106A8.613,8.613,0,0,0-3454.384,4784.229Zm4.782,8.336a5.358,5.358,0,0,0-3.195,1.064c-2.376,1.933-2.869,4.808-3.229,6.907l-.009.05q-.047.269-.091.521a51.441,51.441,0,0,1-2.116,8.577c3.378-3.261,12.041-7.408,15.443-8.489a2.139,2.139,0,0,1-.24.013,2.169,2.169,0,0,1-1.865-1.069l-3.7-7.479A5.332,5.332,0,0,0-3449.6,4792.565Zm10.771-.748,0,0-3.01,4.236,1.282,4.5a74.868,74.868,0,0,1,14.407-3.993,13.353,13.353,0,0,1-.924-1.8l-.007-.016c-.185-.415-.4-.886-.725-1.552l-3.358-7.58.449-1.1a3.186,3.186,0,0,0,.362.02,3.234,3.234,0,0,0,2.232-.888,8.948,8.948,0,0,0,1.9-2.3,1.088,1.088,0,0,0-.627-.2,1.085,1.085,0,0,0-.627.2c-.088.065-.173.142-.255.216a1.149,1.149,0,0,1-.714.395.664.664,0,0,1-.27-.06c-.44-.191-.362-.686-.278-1.209l0-.012c.017-.1.034-.21.046-.312a.418.418,0,0,0-.085-.339.45.45,0,0,0-.347-.129,1.321,1.321,0,0,0-.792.325,1.918,1.918,0,0,1-.905.228,1.91,1.91,0,0,1-1.473-.691,46.293,46.293,0,0,0-5.432-4.341,9.4,9.4,0,0,0-4.306-1.05,9.407,9.407,0,0,0-1.7.156,8.274,8.274,0,0,0-1.118.3,3.009,3.009,0,0,1-.824.2.5.5,0,0,1-.234-.05l-1.3-2.025.159-.159c.083.038.169.082.252.125l.016.008a1.859,1.859,0,0,0,.834.28.892.892,0,0,0,.339-.067,20.181,20.181,0,0,1,4.322-.665,20.906,20.906,0,0,1,7.2,1.534c0,.766.709,1.723,1.945,2.625a7.821,7.821,0,0,0,3.112,1.454,3.971,3.971,0,0,0,.634.051,3.922,3.922,0,0,0,2.246-.7l-3.327-2.893,1.758-2.257s.024.021.061.056c.858.812,2.886,2.745,3.181,3.183a2.317,2.317,0,0,0-.1-1.186c-.155-.926-2.458-3.551-5.907-6.177-2.77-2.1-6.968-4.339-10.446-4.339-.171-.011-.346-.016-.519-.016a8.335,8.335,0,0,0-5.058,1.7,8.333,8.333,0,0,0-3.024,4.424,7.044,7.044,0,0,0,0,3.372,3.759,3.759,0,0,0-1.442,2.328,2.5,2.5,0,0,0,.606,2.157,4.217,4.217,0,0,1,1.009-2.518,6.775,6.775,0,0,1,2.16-1.448l.145,1.579a4.33,4.33,0,0,0-1.742,1.853l.087,2.618,1.972-1.2.373.81-.691,4.571,1.136-.188,2.018.838-1.972,1.677v.652a1.159,1.159,0,0,1,.871-.4c.035,0,.072,0,.109.005a11.08,11.08,0,0,1,2.491.824v.419h-3.518c-.143.455.28.786.533.983a5.687,5.687,0,0,1,1.182-.39,3.792,3.792,0,0,1,.6.092c.259.051.552.109.842.138l-.62.825a1.128,1.128,0,0,1-.606.176,1.129,1.129,0,0,1-.315-.045.3.3,0,0,0-.066-.007c-.308,0-.582.441-.582.789a10.119,10.119,0,0,0,.23,1.447,1.6,1.6,0,0,0,.764,1.021,1.6,1.6,0,0,0,.79.209,1.576,1.576,0,0,0,.478-.073,30.353,30.353,0,0,0,4.1-1.215Zm14.8-8.779a11.584,11.584,0,0,0-2.954,2.72,2.334,2.334,0,0,0,0,2.459c.376.651,2.3,4.192,2.32,4.225a25.175,25.175,0,0,0,1.671,3.529h3.4c-1.233-2.723-3.927-7.834-4.23-8.408l-.005-.01-.2-4.514Zm-47.955-7.955c.1.2,1.484,4.339,2.8,8.362.8,2.45,2.677,8.206,2.747,8.752a18.664,18.664,0,0,1,3.831-7.551,8.354,8.354,0,0,1,5.62-2.561,38.083,38.083,0,0,1-1.944-4.426c-.012-.263-.644-4.95-.823-5.28-.188-.348-10.737-27.875-10.82-28.108-.013-.037-.028-.084-.046-.138-.1-.3-.26-.81-.517-.932-.1-.048-.261-.129-.431-.214l-.079-.04-.06-.03c-.313-.157-.669-.334-.87-.427a3.4,3.4,0,0,1-.543-.379,1.941,1.941,0,0,0-.753-.459h-.093a7.693,7.693,0,0,1-3.6-.9,1.845,1.845,0,0,0,.288,2.487,5.035,5.035,0,0,0,2.766.9l.288,6.51a2.862,2.862,0,0,0,2.032.839h.072v.217l-1.123.825c0,.387.267,5.989.551,11.407.213,4.064.588,10.917.7,11.146Zm15.074-3.14h0v.3c.017.2.046.465.076.745V4773c.075.69.168,1.55.168,2.142l3.546,2.445a4.444,4.444,0,0,1,0-1.793,4.124,4.124,0,0,1,.647-1.737l-4.437-2.112Zm46.623-6.9-13.645,6.1a10.973,10.973,0,0,1,2.161,4.816l11.483-10.921Zm-9.64-11.892h0l-11.687,11.587a26.993,26.993,0,0,1,4.685,3.312l7-14.9Zm-39.286.07h0l8.283,14.248a8.416,8.416,0,0,1,3.242-3.718Zm18.172,8.562a13.686,13.686,0,0,1,4.188.655l-3.327-18.922-2.435,18.357A13.829,13.829,0,0,1-3441.048,4761.786Zm-36.225-4.8h0a6.9,6.9,0,0,1,3.125.983,1.709,1.709,0,0,0,.217-1.129,1.636,1.636,0,0,0-.734-1.027,14.6,14.6,0,0,0,.128-3.183,4.562,4.562,0,0,0-.864-2.5,11.353,11.353,0,0,0-2.348-2.374.87.87,0,0,1-.148.567.857.857,0,0,1-.471.344,14.161,14.161,0,0,0-2.061,1.288l.331,5.787a1.193,1.193,0,0,0-.619.679,1.125,1.125,0,0,0,.272,1.447A6.217,6.217,0,0,1-3477.273,4756.988Zm-4.312-10.315h.079a4.447,4.447,0,0,0-1.988,1.708,4.341,4.341,0,0,0,1.282,2.112,3.949,3.949,0,0,1,1.066-1.765,8.528,8.528,0,0,1,1.21-.68.724.724,0,0,0,.475-.752,2.361,2.361,0,0,0-.2-.983h.065c.393,0,.939-.031,1.145-.3a2.018,2.018,0,0,0,.317-1.1c0-.394-.178-.479-.577-.521-.352-.02-.71-.029-1.066-.029s-.714.01-1.066.029l1.167-.565a.814.814,0,0,0,.267-.265.837.837,0,0,0,.124-.357,4.193,4.193,0,0,0-.087-1.314,9.725,9.725,0,0,0-4.323,1.765l.476,1.186h-.865a3.39,3.39,0,0,0,.214,2.038A13.033,13.033,0,0,1-3481.585,4746.673Zm4.612-7.618a6.743,6.743,0,0,1,4.725,1.918,2.778,2.778,0,0,0-.993-2.618,6.648,6.648,0,0,0-3.848-1.217c-.16,0-.32.005-.474.017l-.178,0a5.929,5.929,0,0,0-3.509,1.16,2.5,2.5,0,0,0-.779,2.589c.333-.884,2.189-1.837,4.606-1.837h.106C-3477.2,4739.059-3477.088,4739.056-3476.973,4739.056Zm-9.667-7.249a.32.32,0,0,0-.073.007,3.119,3.119,0,0,1,.173,2.315,10,10,0,0,0-1.11,3.053,4.358,4.358,0,0,0,.532,2.241,4.413,4.413,0,0,1,1.255-3.4c1.607-1.709,4.653-2.689,8.356-2.689l.359,0a14.047,14.047,0,0,1,7.644,2.064,5.019,5.019,0,0,1,2.444,3.94,5,5,0,0,0,.317-2.43,6.493,6.493,0,0,0-.572-1.744,6.348,6.348,0,0,1-.537-1.6,5.22,5.22,0,0,1,.232-1.736c-.079.017-.195.051-.341.1a5.715,5.715,0,0,1-1.533.3,1.176,1.176,0,0,1-.75-.211,1.7,1.7,0,0,1-.44-1.078c-.089-.518-.18-1.051-.7-1.252a1.158,1.158,0,0,0-.422-.073,4.277,4.277,0,0,0-1.389.358l-.035.013a4.094,4.094,0,0,1-1.311.347,1.214,1.214,0,0,1-.141-.008,2.841,2.841,0,0,1-1.271-.714,2.532,2.532,0,0,0-1.425-.732,2.012,2.012,0,0,0-1.258.648,3.136,3.136,0,0,1-1.366.8,1.983,1.983,0,0,1-.426.043,4.854,4.854,0,0,1-1.133-.177l-.112-.028a3.751,3.751,0,0,0-.81-.148.8.8,0,0,0-.083,0,1.686,1.686,0,0,0-1.239,1.071,1.457,1.457,0,0,1-.435.665,1.434,1.434,0,0,1-.72.333.927.927,0,0,1-.232.027,2.96,2.96,0,0,1-.8-.155l-.106-.031-.011,0A2.262,2.262,0,0,0-3486.64,4731.807Zm9.484-5.717a2.479,2.479,0,0,1,1.548.9,2.393,2.393,0,0,0,1.333.833,1.7,1.7,0,0,0,.941-.371,1.935,1.935,0,0,1,.961-.395c.064,0,.115,0,.159,0a1.047,1.047,0,0,1,.956.473l.006.006c.041.046.084.1.131.147a4.337,4.337,0,0,1,1.644-1.736,11.308,11.308,0,0,1,2.585-1.148,14.327,14.327,0,0,0,4.331-2.122,3.317,3.317,0,0,0,.735-3.123,6.2,6.2,0,0,1-4.208,1.953,11.125,11.125,0,0,1-3.745-.752,2.169,2.169,0,0,0,.365-1.017,2.192,2.192,0,0,0-.177-1.066,11.128,11.128,0,0,1-3.873.694h-.119a15,15,0,0,1-1.571-.143h-.007a20.565,20.565,0,0,0-2.387-.2c-.122,0-.242,0-.358.008h-.026a4.753,4.753,0,0,0-3.209,1.244,4.757,4.757,0,0,0-1.534,3.083,4.845,4.845,0,0,0,.792,3.021c.289.4.97,1.159,1.485,1.159l.041,0a1.707,1.707,0,0,0,.919-.494A3.508,3.508,0,0,1-3477.156,4726.09Zm34,54.215h0a4.094,4.094,0,0,0-1.857-1.446h-.016V4777.6a12.257,12.257,0,0,1,2.883-1.144,3.929,3.929,0,0,1,.8-.081,6.307,6.307,0,0,1,2.622.656,11.9,11.9,0,0,1,2.337,1.463l-.3.479-2.248.535a3.484,3.484,0,0,0-1.878-.549c-.1,0-.207,0-.311.014a4.813,4.813,0,0,0-1.44.361l.446.708-1.037.261Zm11.979-7.018h0a36.472,36.472,0,0,0-5.143-2.56l1.24-3.255a46.782,46.782,0,0,1,5.531,3.53l-1.626,2.284Zm-17.246-.852-.005-.015c-.58-2.045,1.223-4.094,1.789-4.673l1.094,2.59a17.138,17.138,0,0,0-2.881,2.081s0,.01,0,.016Zm10.4-2.228h0a7.005,7.005,0,0,0-3.153-.538,14.769,14.769,0,0,0-2.826.249l-1.065-3.037a6.991,6.991,0,0,1,3.578-.985h.1a9.388,9.388,0,0,1,3.96.869l-.59,3.441Z" transform="translate(4079 -4506)" fill="#828c8f"/>
  </g>
</svg>
