<svg xmlns="http://www.w3.org/2000/svg" width="240" height="115.857" viewBox="0 0 240 115.857">
  <path id="Mapfre" d="M133.792,49.123V59.607h-3.355V49.123c-1.6,0-3.7-.007-4.489-.037l-11.133.029a5.061,5.061,0,0,1-5.312-5.263,4.293,4.293,0,0,1,.066-.688,19.977,19.977,0,0,1,6.8-11.757,5.765,5.765,0,0,1,4.293-1.029,5.476,5.476,0,0,1,2.711-3.291,4.123,4.123,0,0,1,.666-.306,23.828,23.828,0,0,1,16.181.015,6.2,6.2,0,0,1,3.306,3.539,4.913,4.913,0,0,1,4.08.877A21.661,21.661,0,0,1,152.3,36.7a19.919,19.919,0,0,1,2.363,6.46,3.831,3.831,0,0,1,.061.688,5.058,5.058,0,0,1-5.309,5.263l-11.131-.029c-.793.032-2.882.039-4.489.039ZM145.7,33.974h0a.523.523,0,0,1-.054-.044,1.709,1.709,0,0,0-2.589.659l-5.64,9.825a.849.849,0,0,0,.779,1.313l11.326.032a1.711,1.711,0,0,0,1.842-1.844.484.484,0,0,0-.01-.164,16.652,16.652,0,0,0-5.655-9.776Zm-27.117-.042h0a.409.409,0,0,0-.051.044,16.618,16.618,0,0,0-5.655,9.776.491.491,0,0,0-.012.164,1.711,1.711,0,0,0,1.844,1.844l11.324-.032a.845.845,0,0,0,.776-1.313l-5.637-9.825a1.692,1.692,0,0,0-.7-.776,1.712,1.712,0,0,0-1.886.118Zm20.574-3.953h0l-.081-.032a20.463,20.463,0,0,0-13.891-.01.779.779,0,0,0-.181.091,2.1,2.1,0,0,0-.83,3.093l6.995,12.041a1.042,1.042,0,0,0,1.878.022l7-12.044a2.107,2.107,0,0,0-.889-3.162Zm-7.043-21.7A34.214,34.214,0,1,1,97.9,42.494,34.216,34.216,0,0,1,132.115,8.28Zm0,3.26a30.956,30.956,0,1,0,30.955,30.955,30.955,30.955,0,0,0-30.955-30.955Zm61.513,82.318h-2.735v10.236h2.735a5.611,5.611,0,0,0,5.615-5.613C199.243,95.38,196.4,93.857,193.628,93.857ZM211.659,115.3v.282C211.659,115.486,211.664,115.393,211.659,115.3Zm0,.284v8.552H199.233v-8.277c.005-.091.01-.181.01-.274a5.615,5.615,0,0,0-5.615-5.613h-2.735v14.165H178.045v-34.2h25.063a8.549,8.549,0,1,1,0,17.1,8.554,8.554,0,0,1,8.552,8.27c.005.1,0,.189,0,.284ZM250,109.851H229.037v8.669H250v5.615H216.4V89.919H250v5.615H229.037v8.7H250Zm-97.33-5.615h20.948v5.615H152.67v14.285H140.036V89.919h33.583v5.615H152.67ZM117.622,93.851h-2.74V104.09h2.74a5.568,5.568,0,0,0,5.615-5.613c0-3.1-2.767-4.626-5.615-4.626Zm8.059-3.918a9.972,9.972,0,1,1,0,19.945H114.669V124.13H102.037v-34.2Zm-48.66,5.112L71.891,112.9H82.152ZM56.034,124.135l9.825-34.217H88.183l9.828,34.217H85.377l-1.611-5.615H70.282l-1.614,5.615Zm-46.034,0V89.92H22.634l8.353,17.106L39.34,89.92l12.634,0v34.214H39.34V107.026l-8.353,17.111-8.353-17.111v17.111Z" transform="translate(-10 -8.28)" fill="#828c8f"/>
</svg>
