<svg xmlns="http://www.w3.org/2000/svg" width="240" height="90.41" viewBox="0 0 240 90.41">
  <g id="metso" transform="translate(-3262.834 4808.861)">
    <path id="Caminho_46" data-name="Caminho 46" d="M75.724,99.454a23.966,23.966,0,0,0-.679-5.674A17.621,17.621,0,0,1,82.492,108c0,11.535-10.9,23.529-26.69,28.7a49.166,49.166,0,0,1-8.619,2C61.094,129.441,75.724,115.967,75.724,99.454Zm-43.662,15.6a65.191,65.191,0,0,0-2.5-19.24c-9.35,5.968-15.472,14.529-15.472,22.91,0,7.839,4.526,14.942,14.545,18.456A85.4,85.4,0,0,0,32.062,115.057Zm9.268,24.085a37.423,37.423,0,0,1-12.692-1.959,122.135,122.135,0,0,1-5.2,14.366A144.575,144.575,0,0,0,47.181,138.7a45.394,45.394,0,0,1-5.851.444ZM29.564,95.817a49.3,49.3,0,0,1,25.717-7.729c7.684,0,14.792,1.931,19.763,5.692C67.3,67.013,28.47,61.139,2.834,61.139,14.683,68.824,24.9,79.773,29.564,95.817Z" transform="translate(3260 -4870)" fill="#828c8f" fill-rule="evenodd"/>
    <path id="Caminho_47" data-name="Caminho 47" d="M75.044,101.372c0-3.364-.105-6.206-.221-8.627h7.1l.357,3.657h.176A9.356,9.356,0,0,1,90.6,92.138,7.626,7.626,0,0,1,98,96.769h.11a11.268,11.268,0,0,1,3.508-3.293,9.624,9.624,0,0,1,5.124-1.337c5.158,0,9.1,3.65,9.1,11.722v15.9h-8.17v-14.67c0-3.911-1.26-6.183-3.974-6.183a4.1,4.1,0,0,0-3.864,2.929,7.292,7.292,0,0,0-.3,2.129v15.794h-8.17V104.615c0-3.4-1.214-5.712-3.891-5.712a4.3,4.3,0,0,0-3.937,3.013,6.244,6.244,0,0,0-.313,2.127v15.712h-8.17V101.372Zm53.156,7.58c.25,3.483,3.693,5.139,7.612,5.139a22.469,22.469,0,0,0,7.431-1.146l1.133,5.683a26.165,26.165,0,0,1-9.784,1.709c-9.15,0-14.4-5.329-14.4-13.748,0-6.863,4.279-14.451,13.615-14.451,8.754,0,12.059,6.8,12.059,13.489a16.184,16.184,0,0,1-.3,3.325Zm9.856-5.753c.015-2.022-.886-5.475-4.708-5.475-3.548,0-4.986,3.24-5.219,5.475Zm21.9-17.768v7.316H166v6.193h-6.046v9.787c0,3.257.809,4.758,3.315,4.758a8.722,8.722,0,0,0,2.5-.25l.068,6.379a17.656,17.656,0,0,1-5.442.724,8.774,8.774,0,0,1-6.329-2.345c-1.559-1.6-2.321-4.169-2.321-8V98.938H148.15V92.745h3.591V87.69l8.214-2.26ZM172.1,112.438a16.347,16.347,0,0,0,7.2,2.009c2.534,0,3.618-.854,3.618-2.232,0-1.4-.859-2.077-3.964-3.125-5.615-1.845-7.729-4.9-7.7-8.073,0-5.071,4.282-8.881,10.983-8.881a17.873,17.873,0,0,1,7.607,1.575l-1.464,5.783a13.757,13.757,0,0,0-5.851-1.524c-2.05,0-3.222.817-3.222,2.176,0,1.293,1.07,1.977,4.38,3.12,5.126,1.738,7.274,4.374,7.306,8.313,0,5.041-3.933,8.757-11.674,8.757a19.278,19.278,0,0,1-8.744-1.9l1.524-6Zm36.142,7.923c-7.86,0-13.948-5.194-13.948-13.916s5.75-14.307,14.432-14.307c8.259,0,13.751,5.687,13.751,13.842,0,9.871-6.993,14.382-14.179,14.382Zm.178-6c3.275,0,5.347-3.278,5.347-8.151,0-3.982-1.536-8.075-5.339-8.075-4.006,0-5.534,4.117-5.534,8.122,0,4.608,1.95,8.1,5.473,8.1h.054Z" transform="translate(3280.36 -4863.13)" fill="#828c8f" fill-rule="evenodd"/>
  </g>
</svg>
