<svg id="Microsoft" xmlns="http://www.w3.org/2000/svg" width="200.004" height="42.698" viewBox="0 0 200.004 42.698">
  <path id="Caminho_25" data-name="Caminho 25" d="M222.2,21.986V18.469h-4.368V13l-.147.045-4.1,1.255-.081.025v4.143h-6.475V16.161a3.666,3.666,0,0,1,.714-2.446,2.518,2.518,0,0,1,2-.817,4.662,4.662,0,0,1,1.9.432l.161.072V9.7l-.076-.028a7.4,7.4,0,0,0-2.426-.324,7.111,7.111,0,0,0-3.441.827,5.882,5.882,0,0,0-2.361,2.334,6.958,6.958,0,0,0-.836,3.425v2.538h-3.041v3.517h3.041V36.8h4.366V21.986h6.47V31.4c0,3.878,1.829,5.843,5.437,5.843a8.919,8.919,0,0,0,1.854-.205,5.121,5.121,0,0,0,1.35-.428l.057-.034v-3.55l-.178.117a3.058,3.058,0,0,1-.878.383,3.336,3.336,0,0,1-.862.147A2.339,2.339,0,0,1,218.419,33a3.646,3.646,0,0,1-.591-2.356V21.986Zm-32.331,11.69a4.632,4.632,0,0,1-3.715-1.561,6.627,6.627,0,0,1-1.335-4.408,6.889,6.889,0,0,1,1.335-4.525,4.558,4.558,0,0,1,3.679-1.585,4.489,4.489,0,0,1,3.582,1.516,6.754,6.754,0,0,1,1.308,4.488,7.2,7.2,0,0,1-1.23,4.543,4.379,4.379,0,0,1-3.624,1.531m.194-15.649a9.576,9.576,0,0,0-7.137,2.633,9.874,9.874,0,0,0-2.579,7.188,9.35,9.35,0,0,0,2.517,6.862,9.132,9.132,0,0,0,6.756,2.535,9.314,9.314,0,0,0,7-2.67,9.847,9.847,0,0,0,2.578-7.117,9.606,9.606,0,0,0-2.419-6.913,8.909,8.909,0,0,0-6.713-2.519m-16.755,0a7.893,7.893,0,0,0-5.057,1.563,4.988,4.988,0,0,0-1.971,4.068,5.692,5.692,0,0,0,.425,2.274,4.567,4.567,0,0,0,1.3,1.7,11.355,11.355,0,0,0,2.654,1.485,19.778,19.778,0,0,1,2.207,1.028,3.069,3.069,0,0,1,.972.8,1.792,1.792,0,0,1,.27,1.039c0,1.232-.922,1.831-2.821,1.831a7.754,7.754,0,0,1-2.387-.437,8.967,8.967,0,0,1-2.444-1.239l-.181-.13v4.2l.067.031a10.815,10.815,0,0,0,2.315.715,12.415,12.415,0,0,0,2.472.286,8.381,8.381,0,0,0,5.34-1.572,5.085,5.085,0,0,0,1.989-4.164,4.789,4.789,0,0,0-1.07-3.15,9.169,9.169,0,0,0-3.634-2.314,9.37,9.37,0,0,1-2.589-1.346,1.884,1.884,0,0,1-.522-1.412,1.573,1.573,0,0,1,.663-1.306,2.978,2.978,0,0,1,1.858-.524,7.606,7.606,0,0,1,2.212.34,7.108,7.108,0,0,1,1.932.9l.178.122V18.826l-.068-.029a9.526,9.526,0,0,0-1.961-.547,11.974,11.974,0,0,0-2.151-.223M154.9,33.676a4.631,4.631,0,0,1-3.714-1.561,6.626,6.626,0,0,1-1.334-4.408,6.887,6.887,0,0,1,1.335-4.525,4.556,4.556,0,0,1,3.678-1.585,4.489,4.489,0,0,1,3.582,1.516,6.753,6.753,0,0,1,1.308,4.488,7.2,7.2,0,0,1-1.231,4.543,4.378,4.378,0,0,1-3.624,1.531m.2-15.649a9.574,9.574,0,0,0-7.137,2.633,9.874,9.874,0,0,0-2.579,7.188,9.349,9.349,0,0,0,2.518,6.862,9.131,9.131,0,0,0,6.756,2.535,9.315,9.315,0,0,0,7-2.67,9.848,9.848,0,0,0,2.578-7.117,9.6,9.6,0,0,0-2.419-6.913,8.909,8.909,0,0,0-6.712-2.519m-16.344,3.617V18.469h-4.313V36.8h4.313V27.424a6.537,6.537,0,0,1,1.075-3.895,3.3,3.3,0,0,1,2.789-1.473,5.064,5.064,0,0,1,1.3.191,3.28,3.28,0,0,1,1.006.407l.181.131V18.437l-.07-.03a4.465,4.465,0,0,0-1.689-.257,4.419,4.419,0,0,0-2.884,1.034,5.842,5.842,0,0,0-1.659,2.459Zm-12.036-3.617a10.646,10.646,0,0,0-5.245,1.261A8.495,8.495,0,0,0,118,22.844a11.328,11.328,0,0,0-1.188,5.269,9.72,9.72,0,0,0,1.155,4.723A8.114,8.114,0,0,0,121.2,36.1a9.607,9.607,0,0,0,4.715,1.146,10.323,10.323,0,0,0,5.2-1.218l.057-.033V32.044l-.181.132a8.108,8.108,0,0,1-2.11,1.1,6.376,6.376,0,0,1-2.067.4,5.311,5.311,0,0,1-4.037-1.574,6.121,6.121,0,0,1-1.489-4.36,6.349,6.349,0,0,1,1.552-4.475,5.282,5.282,0,0,1,4.045-1.669,6.927,6.927,0,0,1,4.106,1.428l.181.131V18.993l-.058-.033a7.117,7.117,0,0,0-2-.675,11.919,11.919,0,0,0-2.411-.259m-12.862.442h-4.313V36.8h4.313V18.469Zm-2.112-7.811a2.6,2.6,0,0,0-1.838.72,2.377,2.377,0,0,0-.77,1.8,2.31,2.31,0,0,0,.762,1.763,2.627,2.627,0,0,0,1.846.7,2.66,2.66,0,0,0,1.854-.7,2.3,2.3,0,0,0,.772-1.764,2.423,2.423,0,0,0-.75-1.779,2.573,2.573,0,0,0-1.875-.74m-10.761,6.458V36.8h4.4V11.219H99.282l-7.743,19-7.514-19h-6.34V36.8h4.136V17.114h.142L89.9,36.8h3.12l7.811-19.687h.142Z" transform="translate(-22.196 -2.67)" fill="#828c8f"/>
  <path id="Caminho_26" data-name="Caminho 26" d="M20.289,20.289H0V0H20.289Z" fill="#828c8f"/>
  <path id="Caminho_27" data-name="Caminho 27" d="M51.651,20.289H31.362V0H51.651Z" transform="translate(-8.961)" fill="#828c8f"/>
  <path id="Caminho_28" data-name="Caminho 28" d="M20.288,51.662H0V31.373H20.288Z" transform="translate(0 -8.964)" fill="#828c8f"/>
  <path id="Caminho_29" data-name="Caminho 29" d="M51.651,51.662H31.362V31.373H51.651Z" transform="translate(-8.961 -8.964)" fill="#828c8f"/>
</svg>
