<svg xmlns="http://www.w3.org/2000/svg" width="240" height="64.355" viewBox="0 0 240 64.355">
  <g id="Nextel" transform="translate(-125.175 -392.536)">
    <g id="g3032" transform="translate(125.175 392.536)">
      <g id="Camada_x0020_1" transform="translate(0 0)">
        <path id="path2993" d="M126.8,464.71l1.381,4.3c9.724-9.492,28.187-4.685,28.691,10.28,0,0,.307,26.85.307,28.077s-1.688,1.688-1.688,1.688l-9.359-.153c-1.227,0-1.381-1.534-1.381-1.534V483.428c.83-12.635-15.843-11.1-16.877,0v24.395c-.321.872-1.688,1.074-1.688,1.074h-7.978c-3.222,0-2.455-1.227-2.455-1.227V464.71H126.8Z" transform="translate(-115.671 -445.492)" fill="none" fill-rule="evenodd"/>
        <path id="path2995" d="M237.9,495.812l11.66.153c-1.535,18.374-33.806,18.834-39.124.307q-.578-2.383-.893-4.628c-2.2-15.6,4.946-25.98,19-27.284,15.861-.618,23.737,10.02,22.554,26.543l-29-.153c.195,10.522,12.98,10.522,15.8,5.063Z" transform="translate(-163.256 -445.603)" fill="none" fill-rule="evenodd"/>
        <path id="path2997" d="M251.633,493.224c-.185-10.64-15.936-10.027-15.5,0Z" transform="translate(-176.989 -456.363)" fill="none" fill-rule="evenodd"/>
        <path id="polygon2999" d="M297.7,474.074l-.307-8.437h9.359l15.5,20.712v2.916L306.909,509.67l-9.205-.153v-8.133l10.279-13.348Z" transform="translate(-208.177 -446.266)" fill="none" fill-rule="evenodd"/>
        <path id="polygon3001" d="M375.849,473.762l.306-8.437H366.8l-15.649,20.712.153,2.916,15.342,20.406,9.206-.155v-8.131L365.57,487.725Z" transform="translate(-235.538 -446.107)" fill="none" fill-rule="evenodd"/>
        <path id="path3003" d="M427.64,487.938q-2.677.364-2.455-3.069V464.157h9.973v-9.973H425.031V443.138H412.451v11.047h-5.677V464.31h5.677l.153,22.86c1.054,6.869,5.4,10.756,10.279,11.2l11.967.153V487.938Z" transform="translate(-263.854 -434.813)" fill="none" fill-rule="evenodd"/>
        <path id="path3005" d="M497.121,495.656l11.66.153c-1.535,18.374-33.806,18.834-39.124.307q-.578-2.383-.893-4.628c-2.2-15.6,4.946-25.98,19-27.284,15.861-.618,23.737,10.02,22.553,26.543l-29-.153C481.512,501.116,494.3,501.116,497.121,495.656Z" transform="translate(-295.21 -445.524)" fill="none" fill-rule="evenodd"/>
        <path id="path3007" d="M510.864,492.994c-.185-10.64-15.936-10.027-15.5,0Z" transform="translate(-308.948 -456.246)" fill="none" fill-rule="evenodd"/>
        <path id="path3009" d="M583.194,479.5h-5.37a3.216,3.216,0,0,1-2.762-2.915l.077-50.4-12.5.077.23,50.63c.018,7.32,4.211,11.616,9.743,12.888h10.586Z" transform="translate(-343.194 -426.183)" fill="none" fill-rule="evenodd"/>
        <path id="path3013" d="M127.872,483.425c1.034-11.1,17.706-12.635,16.877,0V507.36s.153,1.534,1.381,1.534l9.359.153s1.688-.461,1.688-1.688-.307-28.077-.307-28.077c-.5-14.964-18.966-19.771-28.691-10.28l-1.381-4.3H115.751v42.959s-.767,1.227,2.455,1.227h7.978s1.367-.2,1.688-1.074Z" transform="translate(-115.671 -445.491)" fill="#828c8f" fill-rule="evenodd"/>
        <path id="path3015" d="M228.542,464.36c-14.051,1.3-21.2,11.682-19,27.284q.317,2.244.893,4.628c5.318,18.527,37.589,18.067,39.124-.307l-11.66-.153c-2.823,5.459-15.608,5.459-15.8-5.063l29,.153c1.183-16.523-6.692-27.16-22.554-26.543Zm-6.137,18.1c-.44-10.027,15.311-10.64,15.5,0Z" transform="translate(-163.256 -445.603)" fill="#828c8f" fill-rule="evenodd"/>
        <path id="polygon3017" d="M322.252,486.349l-15.5-20.712H297.4l.307,8.437,10.279,13.962L297.7,501.384v8.133l9.205.153,15.343-20.406Z" transform="translate(-208.177 -446.266)" fill="#828c8f" fill-rule="evenodd"/>
        <path id="polygon3019" d="M365.57,487.725l10.279-13.962.306-8.437H366.8l-15.649,20.712.153,2.916,15.342,20.406,9.206-.155v-8.131Z" transform="translate(-235.538 -446.107)" fill="#828c8f" fill-rule="evenodd"/>
        <path id="path3021" d="M406.772,454.184V464.31h5.677l.153,22.86c1.054,6.869,5.4,10.756,10.279,11.2l11.967.153V487.937h-7.211q-2.677.364-2.455-3.068V464.156h9.973v-9.973H425.03V443.137H412.449v11.047Z" transform="translate(-263.853 -434.813)" fill="#828c8f" fill-rule="evenodd"/>
        <path id="path3023" d="M487.761,464.2c-14.051,1.3-21.2,11.682-19,27.284q.317,2.244.893,4.628c5.318,18.527,37.589,18.067,39.124-.307l-11.66-.153c-2.823,5.459-15.608,5.459-15.8-5.063l29,.153c1.183-16.523-6.692-27.16-22.553-26.543Zm-6.132,18.068c-.44-10.027,15.311-10.64,15.5,0Z" transform="translate(-295.209 -445.524)" fill="#828c8f" fill-rule="evenodd"/>
        <path id="path3025" d="M562.632,426.259l.23,50.63c.018,7.32,4.211,11.616,9.743,12.888h10.586V479.5h-5.37a3.216,3.216,0,0,1-2.762-2.915l.077-50.4-12.5.077Z" transform="translate(-343.192 -426.182)" fill="#828c8f" fill-rule="evenodd"/>
      </g>
    </g>
  </g>
</svg>
