<svg xmlns="http://www.w3.org/2000/svg" width="240" height="240" viewBox="0 0 240 240">
  <path id="Nivea" d="M120,240a120.887,120.887,0,0,1-24.184-2.438,119.342,119.342,0,0,1-42.909-18.056,120.351,120.351,0,0,1-43.476-52.8,119.4,119.4,0,0,1-6.992-22.525,121.17,121.17,0,0,1,0-48.368A119.342,119.342,0,0,1,20.494,52.907,120.35,120.35,0,0,1,73.29,9.43,119.4,119.4,0,0,1,95.815,2.438a121.17,121.17,0,0,1,48.368,0,119.343,119.343,0,0,1,42.909,18.056,120.35,120.35,0,0,1,43.477,52.8,119.394,119.394,0,0,1,6.992,22.525,121.169,121.169,0,0,1,0,48.368,119.344,119.344,0,0,1-18.056,42.909,120.351,120.351,0,0,1-52.8,43.477,119.4,119.4,0,0,1-22.525,6.992A120.888,120.888,0,0,1,120,240ZM92.875,99.031c2.245,4.57,4.528,9.3,6.736,13.884l0,.006c4.961,10.289,10.092,20.928,15.134,30.417l.015.015c5.043-9.8,10.169-20.756,15.127-31.355l0-.008c2-4.27,4.063-8.686,6.092-12.96H124.644l-9.9,22.7-10.286-22.7ZM38.043,119.123l0,0c2.937,2.607,5.886,5.267,9.008,8.083,5.907,5.328,12.015,10.837,18.232,16.146L65.28,99.047H54.994v21.83l-1.937-1.737c-8.225-7.377-16.73-15-25.3-22.494v44.307H38.043v-21.83Zm148.26,16.81H203.06l2.15,5.02h11.133l-1.905-3.969-.009-.019C207.876,123.315,201.1,109.2,194.65,96.646c-7.241,14.291-14.484,29.74-21.233,44.307h10.746l2.14-5.02ZM77.8,99.047v41.892H88.09V99.047Zm63.007-.03v41.878h27.723v-9.139H151.107V124.57h17.427V115.43H151.107V108.2h17.407l.02-9.184ZM199.8,128.072H189.316l5.334-12.186L199.8,128.07Z" fill="#828c8f"/>
</svg>
