<svg xmlns="http://www.w3.org/2000/svg" width="240" height="40.452" viewBox="0 0 240 40.452">
  <path id="NOKIA" d="M11.556,39.954H0V.654H19.986l22.929,29.34V.654H54.471v39.3H34.89L11.556,10.113V39.954m98.2-12.153c0,5.463-.966,7.347-2.565,9.153-2.451,2.688-6.018,3.5-12.891,3.5H74.574c-6.873,0-10.446-.81-12.894-3.5-1.6-1.806-2.565-3.69-2.565-9.153V12.651c0-5.46.966-7.341,2.565-9.15C64.131.81,67.7,0,74.574,0H94.305c6.873,0,10.44.81,12.891,3.5,1.6,1.809,2.565,3.69,2.565,9.15V27.8M93.819,30.495c2.64,0,3.57-.156,4.2-.732.591-.537.852-1.23.852-3.54V14.229c0-2.31-.261-3-.852-3.537-.633-.579-1.563-.732-4.2-.732H75.057c-2.64,0-3.57.153-4.2.732-.594.54-.855,1.227-.855,3.537V26.223c0,2.31.261,3,.855,3.54.63.576,1.56.732,4.2.732H93.819M126.555.654v39.3H114.48V.654h12.075m20.4,0H162.9L141.381,19.035l24.267,20.919H148.59l-22.035-20.5,20.4-18.8m20.919,0h12.078v39.3H167.874m58.119,0-3.573-6.846H199.053l-3.531,6.843H182.181l21.4-39.3H218.6l21.4,39.3H225.993M203.25,24.573h15.015l-7.509-14.229L203.25,24.573" fill="#828c8f"/>
</svg>
