<svg xmlns="http://www.w3.org/2000/svg" width="240" height="39.299" viewBox="0 0 240 39.299">
  <g id="NOVARTIS" transform="translate(-0.01 0.06)">
    <path id="_Path_" data-name="&lt;Path&gt;" d="M80.73,56.919l-.1.252c1.625.715,5.273,3.55,5.273,9.262,0,5.378-4.534,10.8-11.659,10.8-8.864,0-11.919-5.183-11.919-9.944,0-6.1,4.265-10.164,4.265-15.721a8.685,8.685,0,0,0-6.841-8.385l-.146.252a7.2,7.2,0,0,1,2.186,5.208c0,6-5.062,10.269-5.062,17.159,0,6.345,4.436,12.812,17.281,12.812,11.448,0,17.484-5.606,17.484-11.569C91.487,61.923,87.823,57.593,80.73,56.919Z" transform="translate(-56.72 -39.373)" fill="#828c8f"/>
    <path id="_Compound_Path_" data-name="&lt;Compound Path&gt;" d="M134.239,76.695,119.022,57.074V74.761l3.1.739v.812h-7.076V75.5l2.535-.739V55.49a5.411,5.411,0,0,0-2.169-1.235c-.309-.065-.723-.138-.723-.138V53.3h6l13,16.9V54.872l-3.1-.747v-.812h7.077v.812l-2.535.747V72.413c0,1.625.114,3.989.138,4.29Zm31.816-12.5c0,8.125-5.687,12.837-11.9,12.837a11.867,11.867,0,0,1-11.927-12.2A11.883,11.883,0,0,1,154.1,52.581a11.578,11.578,0,0,1,11.959,11.626ZM162.1,65.418c0-5.972-3.575-11.764-8.433-11.764-5.167,0-7.5,5-7.5,10.343s2.949,11.976,8.5,11.976C159.88,75.972,162.1,70.691,162.1,65.418Zm8.872-10.562-2.437-.747V53.3h9.335v.812l-2.925.747,6.443,17.565h0l6.443-17.565-2.925-.747V53.3h6.906v.812l-2.437.747-8.068,21.9h-2.064Zm55.166,9.709h-1.479V54.507c4.875,0,7.775,1.121,7.775,5.1C232.409,62.566,229.874,64.565,226.136,64.565ZM267.9,75.5l3.25-.739v-19.9l-3.25-.747V53.3h10.131v.812l-3.25.747v19.9l3.25.739v.812H267.9Zm16.339-5.508h.642l2.153,4.956a9.644,9.644,0,0,0,4.119,1.024c2.795,0,5.346-1.625,5.346-4.534,0-2.21-1.43-3.526-3.745-4.737l-2.291-1.186c-2.738-1.422-5.476-3.437-5.476-6.678,0-3.526,2.437-6.248,7.653-6.248a17.988,17.988,0,0,1,5.395.886l.544,5.33h-.691L295.9,54.531a6.914,6.914,0,0,0-3.372-.877c-2.64,0-4.436,1.625-4.436,3.875,0,2.039,1.357,3.323,3.68,4.525l2.714,1.414c3.7,1.917,5.46,3.7,5.46,6.987,0,4.062-3.81,6.589-8.547,6.589a20.393,20.393,0,0,1-6.573-.983ZM190.323,75.5l2.608-.739,8.051-21.473,2.689-.691,8.311,22.156,2.608.747v.812h-9.863V75.5l3.339-.747-2.356-6.37h-8.856l-2.34,6.37,3.339.739V76.3h-7.531Zm7.15-8.815h7.661l-3.8-10.269h0Zm33.311-1.625c.812-.2,5.37-1.365,5.37-5.687,0-3.469-2.657-6.158-9.205-6.158-4.062,0-8.125.089-8.636.106v.812l2.673.747V74.753l-2.673.747v.812h9.457V75.5l-3.1-.747V65.767h2.673l6.833,10.562h6.053v-.812l-3.063-.812ZM250.754,54.5V74.761l-3.25.739v.812h10.131V75.5l-3.25-.739V54.507h5.468l1.8,3.884h.7l-.52-5.062H243.3l-.52,5.062h.7l1.787-3.843ZM77.384,69.123l3.25-30.7H73.89l3.25,30.7Z" transform="translate(-59.938 -38.48)" fill="#828c8f"/>
  </g>
</svg>
