<svg xmlns="http://www.w3.org/2000/svg" width="240" height="111.077" viewBox="0 0 240 111.077">
  <g id="Sadia" transform="translate(-5271.172 5565.667)">
    <path id="Caminho_118" data-name="Caminho 118" d="M64.447,153.263a24.94,24.94,0,0,0,2.768-16.736,22.355,22.355,0,0,0-2.94-7.637c0-2.806-.182-6.734,1.546-10.242a8.314,8.314,0,0,1,4.173-4.035,19.767,19.767,0,0,1,8.369-1.571h13v-8.667H66.984V89.747H89.738a35.073,35.073,0,0,1,5.9.464,12.993,12.993,0,0,1,7.151,3.319,14.894,14.894,0,0,1,4.284,10.845v59.052H76.736A19.8,19.8,0,0,1,72.573,163c-3.217-.482-5.943-3.311-7.092-6.124A14.441,14.441,0,0,1,64.447,153.263Zm13.914-26.677v23.838h13V126.586Zm63.932-61.218h16.252v98.6H130.911a26.728,26.728,0,0,1-5.965-.639,12.97,12.97,0,0,1-4.343-1.8,13.948,13.948,0,0,1-5.944-11.642v-46.05c.06-2.994.464-6.058,2.429-8.77a15.107,15.107,0,0,1,11.652-5.857h13.551V65.368h0Zm-11.923,38.466v46.05h11.923v-46.05H130.369Zm51.471-14.627v74.22H165.586V89.207Zm31.963.54a35.068,35.068,0,0,1,5.9.464,12.975,12.975,0,0,1,7.15,3.319,14.878,14.878,0,0,1,4.286,10.845v59.052H200.8a19.4,19.4,0,0,1-4.528-.514,8.619,8.619,0,0,1-5.648-4.045,14.525,14.525,0,0,1-2.286-7.9V126.586a23.86,23.86,0,0,1,.416-4.535,10.528,10.528,0,0,1,2.826-5.749,9.189,9.189,0,0,1,2.477-1.687,19.741,19.741,0,0,1,8.364-1.571h13v-8.668H191.049V89.747Zm-11.379,36.838v23.838h13V126.586Z" transform="translate(5280.033 -5620.766)" fill="#828c8f" fill-rule="evenodd"/>
    <path id="Caminho_119" data-name="Caminho 119" d="M196.616,68.2a8.677,8.677,0,0,1,6.235,2.54c3,3.442,4.041,7.646,0,12.515-3.436,3-7.618,4.044-12.474,0-2.991-3.439-4.041-7.643.006-12.515A8.776,8.776,0,0,1,196.616,68.2Zm-125.8-9.829a164.028,164.028,0,0,1,17.034.479V75.1c-5.426-.455-10.89-.445-14.434-.508s-5.188-.007-6.692.02-2.868.029-4.982.131a71.839,71.839,0,0,0-8.129.816,65.275,65.275,0,0,0-9.294,2.214,25.96,25.96,0,0,0-6.274,2.895c-8.68,6.078-10.218,13.02-6.022,19.7a14.714,14.714,0,0,0,7.22,6.24c2.968,1.292,5.5,2.229,8.134,3.379q2.373.983,4.791,1.854c4.07,1.525,11,3.649,17.234,6.473a59.642,59.642,0,0,1,8.613,4.852c11.1,7.687,12.329,13.957,12.65,21.277a23.911,23.911,0,0,1-6.524,16.574,25.734,25.734,0,0,1-4.689,3.957,24.541,24.541,0,0,1-5.638,2.749,31.2,31.2,0,0,1-7.291,1.486A85.547,85.547,0,0,1,44.341,167.7a65.538,65.538,0,0,1-10.585-3.347,67.576,67.576,0,0,1-8.741-4.048,22.068,22.068,0,0,1-5.432-4.479l7.585-14.084a58.378,58.378,0,0,0,8.392,5.038,65.122,65.122,0,0,0,9.2,3.695,82.23,82.23,0,0,0,10.018,2.56,37.928,37.928,0,0,0,7.576.664,18.949,18.949,0,0,0,5.033-.7,13,13,0,0,0,3.565-1.631c4.588-3.47,4.131-7.024,2.2-11.236a10.864,10.864,0,0,0-2.36-2.956c-3.2-3.051-9.995-4.867-15.3-7.1-1.7-.724-3.378-1.546-5.876-2.617s-5.82-2.393-8.029-3.273-3.3-1.323-5.381-2.28a81.322,81.322,0,0,1-7.678-3.988,38.251,38.251,0,0,1-6.331-4.791c-8.3-7.849-8.326-13.815-7.874-21.327a32.893,32.893,0,0,1,8.11-18.368,40.113,40.113,0,0,1,11.824-8.938c4.773-2.537,10.757-3.792,16.97-4.566,3.292-.413,6.492-.664,8.789-.858s3.69-.33,5.226-.439q2.782-.207,5.572-.255Z" transform="translate(5257 -5624)" fill="#828c8f" fill-rule="evenodd"/>
  </g>
</svg>
