<svg xmlns="http://www.w3.org/2000/svg" width="240" height="28" viewBox="0 0 240 28">
  <path id="SANDOZ" d="M16.716,49.233a24.978,24.978,0,0,1-10.641-2.85l3.277-7.435c2.01,1.45,3.979,2.861,6.591,2.861.705,0,2.108-.146,2.108-1.242,0-1.122-1.048-1.361-2.431-1.786-3.1-.914-8.028-1.8-8.028-8.351,0-6.664,5.114-9.154,11.057-9.154a16.259,16.259,0,0,1,8.844,2.712l-2.929,6.7A8.663,8.663,0,0,0,19.6,28.559c-1.486,0-2.4.427-2.4,1.348,0,.944,1.478,1.3,2.362,1.579,3.092.944,8.166,1.982,8.166,8.521,0,6.69-4.964,9.226-11.021,9.226m29.052-.774L45,45.11H37.853L36.9,48.458H26.957l9.238-26.452H46.97l8.8,26.452ZM41.4,30.573l-2.295,8.283h4.584ZM73.69,48.458,65.742,35.581V48.458H56.583V22.006h9.159L73.69,34.979V22.006h9.094V48.458ZM96.1,48.385l-3.036.073H85.779V22.006h6.94l3.022.042c8.6,0,15.183,3.1,15.183,13.27,0,9.622-6.2,13.067-14.825,13.067m.28-18.452H95.286V40.566H96.38c3.275,0,5-1.649,5-5.135,0-3.242-1.652-5.5-5-5.5m29.9,19.3c-8.137,0-14.325-5.554-14.325-13.974,0-8.243,6.01-14.025,14.286-14.025S140.9,26.868,140.9,35.258s-5.391,13.974-14.618,13.974m.1-19.192c-2.991,0-4.824,2.149-4.824,5.183,0,3.132,1.866,5.217,4.824,5.217,2.986,0,4.9-2.085,4.9-5.217,0-3.109-1.95-5.183-4.9-5.183m28.8,10.5h9.833v7.917h-25.36l11.347-18.525h-8.919V22.006h24.232Zm23.891-10.35h-4.409l-1.143,3.267h-1.578l4.091-11.2h1.715l4.122,11.2h-1.684Zm-3.986-1.2h3.58l-1.068-3.13c-.376-1.082-.677-2.376-.677-2.376h-.045s-.332,1.338-.691,2.376Zm12.832-6.726h1.608l4.591,7.012c.541.828,1.249,2.227,1.249,2.227h.045s-.107-1.46-.107-2.392V22.262h1.445v11.2h-1.594l-4.574-7.012c-.541-.843-1.278-2.212-1.278-2.212h-.032s.091,1.459.091,2.361v6.863h-1.445Zm10.817,7.163a3.953,3.953,0,1,1,7.885,0c0,2.362-1.49,4.259-3.927,4.259a3.955,3.955,0,0,1-3.957-4.259m6.454,0c0-1.745-.858-3.13-2.511-3.13s-2.514,1.385-2.514,3.13.858,3.114,2.514,3.114,2.511-1.368,2.511-3.114m2.182-4.048h1.489l1.413,4.363c.347,1.084.737,2.574.737,2.574h.032s.345-1.49.706-2.574l1.444-4.363h1.445l-2.9,8.081h-1.55Zm8.049,5.943c0-1.881,1.383-2.288,3.475-2.544,1.189-.134,1.955-.33,1.955-1.158,0-.873-.616-1.414-1.729-1.414-1.28,0-1.9.6-1.942,1.565h-1.353c.06-1.369,1.1-2.589,3.28-2.589a3.861,3.861,0,0,1,1.955.439,2.354,2.354,0,0,1,1.084,2.195v3.776c0,.648.151.994.857.844h.061v.978a2.38,2.38,0,0,1-.752.12,1.3,1.3,0,0,1-1.43-1.264h-.015a3.167,3.167,0,0,1-2.709,1.354c-1.535,0-2.738-.751-2.738-2.3m5.446-.844V29.154a5.576,5.576,0,0,1-1.775.572c-1.325.226-2.2.466-2.2,1.579,0,1.039.8,1.295,1.608,1.295a2.207,2.207,0,0,0,2.363-2.123m3.64,2.981v-8.08H225.9v1.459h.045a2.7,2.7,0,0,1,2.393-1.565,1.228,1.228,0,0,1,.511.091v1.323H228.8a1.708,1.708,0,0,0-.574-.076,2.307,2.307,0,0,0-2.316,2.453v4.394h-1.4Zm8.606.058c-1.084-.014-1.834-.45-1.834-1.639V26.461h-1.265V25.378h1.265V22.835h1.382v2.542h1.67v1.083h-1.67v5.1c0,.587.317.753.829.753a3.015,3.015,0,0,0,.708-.1h.044v1.173a4.888,4.888,0,0,1-1.128.134m4.528-10.41a.857.857,0,1,1-.857-.858.83.83,0,0,1,.857.858M236.1,25.378h1.4v8.081h-1.4ZM239.214,31h1.415c.165,1.175,1.068,1.566,2.227,1.566,1.279,0,1.82-.557,1.82-1.28,0-.889-.677-1.112-2.107-1.4-1.58-.33-3.008-.661-3.008-2.437,0-1.384,1.083-2.256,2.964-2.256,2.032,0,3.039.948,3.22,2.347h-1.4c-.121-.828-.693-1.295-1.853-1.295-1.1,0-1.563.511-1.563,1.129,0,.842.781,1.008,2.15,1.278,1.61.316,2.995.677,2.995,2.558,0,1.64-1.355,2.483-3.25,2.483-2.228,0-3.491-1.053-3.611-2.694m-66.394,6.3h4.139c3.34,0,4.994,2.288,4.994,5.642s-1.745,5.552-5.1,5.552H172.82V37.309Zm3.973,9.855c2.527,0,3.565-1.641,3.565-4.213s-.932-4.3-3.475-4.3h-2.514v8.516Zm8.7-9.013a.857.857,0,1,1-.856-.857.83.83,0,0,1,.856.857m-1.55,2.272h1.4V48.5h-1.4Zm2.739,0h1.488l1.415,4.363c.346,1.084.738,2.574.738,2.574h.03s.345-1.49.706-2.574l1.446-4.363h1.444l-2.9,8.081H189.49Zm10.155-2.272a.858.858,0,1,1-.858-.857.831.831,0,0,1,.858.857m-1.55,2.272h1.4V48.5h-1.4ZM198.4,46.05h1.414c.166,1.174,1.069,1.565,2.227,1.565,1.28,0,1.822-.556,1.822-1.279,0-.888-.678-1.114-2.107-1.4-1.58-.332-3.01-.663-3.01-2.438,0-1.384,1.084-2.257,2.965-2.257,2.03,0,3.04.948,3.219,2.349h-1.4c-.12-.829-.69-1.3-1.85-1.3-1.1,0-1.565.512-1.565,1.127,0,.844.783,1.009,2.152,1.28,1.608.315,2.994.677,2.994,2.558,0,1.639-1.354,2.482-3.25,2.482-2.227,0-3.492-1.053-3.612-2.693m10.215-7.9a.857.857,0,1,1-.857-.857.83.83,0,0,1,.857.857m-1.549,2.272h1.4V48.5h-1.4Zm3.19,4.049a3.953,3.953,0,1,1,7.885,0c0,2.362-1.49,4.258-3.927,4.258a3.955,3.955,0,0,1-3.957-4.258m6.455,0c0-1.746-.859-3.129-2.513-3.129s-2.513,1.383-2.513,3.129.858,3.114,2.513,3.114,2.513-1.368,2.513-3.114m4.618,4.032h-1.4V40.422h1.385v1.144h.045a2.982,2.982,0,0,1,2.558-1.339,2.454,2.454,0,0,1,2.724,2.632V48.5h-1.385V43.026a1.562,1.562,0,0,0-1.775-1.625,2.079,2.079,0,0,0-2.152,2.181V48.5Z" transform="translate(-6.075 -21.233)" fill="#828c8f"/>
</svg>
