<svg xmlns="http://www.w3.org/2000/svg" width="240" height="38.788" viewBox="0 0 240 38.788">
  <path id="SCANIA" d="M273.005,113.867l10.351-.09-5.492-12.059ZM256.272,91.909v27.356l11.069-27.356h21.147l14.938,36.806H289.566l-2.611-5.581H269.23l-2.253,5.581H242.052V91.909Zm-90.89,21.958h10.531l-5.581-12.51-4.949,12.51Zm-5.218-21.958h20.878l11.248,27.356V91.909h18.087l15.027,19.8v-19.8h13.68v36.806H222.436l-16.827-21.866v21.777H182.124l-2.432-5.671H161.6l-2.428,5.761h-13.77l1.437-3.779c-4.68,3.418-8.457,4.5-15.747,4.5-11.427,0-17.278-2.88-21.777-10.531-2.25,7.287-9.179,10.347-23.218,10.347-14.667,0-22.678-4.317-22.678-12.326v-.359H79.533c0,3.329,2.609,5.039,7.648,5.039,2.97,0,5.759-1.89,5.759-3.869,0-2.342-1.979-3.423-6.478-3.512l-6.03-.179c-10.17-.269-15.478-4.048-15.478-11.069,0-8.28,7.2-12.239,22.046-12.239,13.319,0,20.7,4.138,20.7,11.7v.542H92.041c0-3.871-1.621-5.49-5.94-5.49-3.69,0-5.759,1.349-5.759,3.6,0,2.161,2.071,3.329,5.579,3.418l8.1.184,5.49.448a14.21,14.21,0,0,1,8.19,4.228c1.17-13.046,8.009-18.717,22.678-18.717,13.678,0,22.676,5.848,22.676,14.667v.542H138.205c-.807-4.232-3.418-6.3-8.007-6.3-5.669,0-8.549,3.779-8.549,11.25,0,5.761,3.421,9.625,8.639,9.625,4.5,0,7.02-2.069,8.1-6.655h12.958l8.816-21.868Z" transform="translate(-63.425 -90.649)" fill="#828c8f" fill-rule="evenodd"/>
</svg>
