<svg id="TOSHIBA" xmlns="http://www.w3.org/2000/svg" width="240" height="36.567" viewBox="0 0 240 36.567">
  <g id="g5">
    <path id="path7" d="M705.355,37.417H715.72l-10.7-35.3h-14.73l-10.7,35.3h10.368l1.89-6.534h11.6l1.9,6.534M694.1,23.033l3.528-12.2h.06l3.528,12.2H694.1Z" transform="translate(-475.72 -1.483)" fill="#828c8f"/>
    <path id="path9" d="M133.455,36.567c10.644,0,15.789-1.875,16.518-11.479.174-2.285.207-4.632.207-6.807s-.033-4.516-.207-6.8C149.244,1.872,144.1,0,133.455,0s-15.786,1.872-16.512,11.479c-.177,2.285-.213,4.634-.213,6.8s.036,4.521.213,6.807c.726,9.6,5.868,11.479,16.512,11.479m-6.693-18.286c0-1.938.048-3.084.09-3.934.27-5.448,2.421-6.083,6.6-6.083s6.336.635,6.6,6.083c.042.85.093,2,.093,3.934s-.051,3.092-.093,3.941c-.267,5.449-2.418,6.086-6.6,6.086s-6.333-.636-6.6-6.086c-.042-.848-.09-2-.09-3.941Z" transform="translate(-81.711)" fill="#828c8f"/>
    <path id="polyline11" d="M0,2.172v8.8H10.552v26.5H21.107v-26.5H31.659v-8.8H0" transform="translate(0 -1.52)" fill="#828c8f"/>
    <path id="polyline13" d="M516.477,37.417V2.118H506.46v35.3h10.017" transform="translate(-354.522 -1.483)" fill="#828c8f"/>
    <path id="polyline15" d="M382.26,15.006V2.118H372.3v35.3h9.96V23.8h11.574V37.417h9.957V2.118h-9.957V15.006H382.26" transform="translate(-260.61 -1.483)" fill="#828c8f"/>
    <g id="g17" transform="translate(74.274 0.002)">
      <path id="path19" d="M593.516,18.967c4.437-1.134,5.739-3.785,5.739-7.616,0-7.758-4.881-9.234-11.82-9.234H569.45v35.3h18.876c8.691,0,11.613-3.744,11.613-9.5,0-4.015-.918-7.557-6.423-8.947m-14.109,3.951h6.906c2.79,0,3.372,1.222,3.372,3.21s-1.092,3.215-3.372,3.215h-6.906Zm0-12.727h6.906a2.587,2.587,0,0,1,2.919,2.912,2.666,2.666,0,0,1-2.919,2.849h-6.906Z" transform="translate(-472.889 -1.484)" fill="#828c8f"/>
      <path id="path21" d="M247.58,24.355h9.495c.009,1.712.228,2.857,1.059,3.489.945.712,1.791.947,4.6.947,2.7,0,5.658,0,5.658-3.325,0-2.623-1.653-3.221-4.7-3.384-7.566-.4-10.3-.615-13.119-2.708-1.92-1.427-2.916-4.205-2.916-7.963,0-6.389,2.229-8.63,5.445-10.194,3.318-1.614,16.341-1.614,19.845,0,4.407,2.03,4.536,6.426,4.536,10.5H268c-.018-2.079-.486-2.666-.867-3.052-.984-.872-2.385-1.057-4.407-1.057-2.448,0-5.28.11-5.28,3.083,0,2.268.981,3.216,3.555,3.383,3.537.226,10.506.449,12.99,1.915,3.483,2.06,4.386,4.848,4.386,9.4,0,6.572-2.352,8.5-5.625,9.947C268.979,37,256.364,37,252.263,35.207c-4.59-2-4.683-5.989-4.683-10.852" transform="translate(-247.58 -0.007)" fill="#828c8f"/>
    </g>
  </g>
</svg>
