<svg xmlns="http://www.w3.org/2000/svg" width="240" height="106.249" viewBox="0 0 240 106.249">
  <g id="Tribunal_Superior_Eleitoral" data-name="Tribunal Superior Eleitoral" transform="translate(-5556.094 3698.761)">
    <path id="XMLID_143_" d="M124.886,207.522V188.773h-6.6v-3.7h17.957v3.7h-6.6v18.749h-4.753m15.844,0h-4.225V191.15h3.961v2.377a7.853,7.853,0,0,1,1.849-2.113,3.809,3.809,0,0,1,1.848-.528,6.019,6.019,0,0,1,2.9.793l-1.32,3.7a3.517,3.517,0,0,0-2.113-.793,3.766,3.766,0,0,0-1.584.528c-.528.265-.793,1.057-1.057,1.849a25.922,25.922,0,0,0-.265,5.545Zm7.658-18.485v-3.961h4.225v3.961Zm0,18.485V191.15h4.225v16.372Zm7.922,0V185.076h4.225v8.186a6,6,0,0,1,4.753-2.377A6.766,6.766,0,0,1,170.306,193c1.32,1.32,1.848,3.433,1.848,6.074,0,2.9-.793,5.017-2.113,6.337a6,6,0,0,1-4.753,2.377,4.46,4.46,0,0,1-2.641-.793,8.55,8.55,0,0,1-2.377-2.113v2.377Zm4.225-8.45a6.994,6.994,0,0,0,.793,3.7,4,4,0,0,0,2.9,1.849,2.772,2.772,0,0,0,2.377-1.32c.793-.793,1.057-2.113,1.057-3.961s-.264-3.169-1.057-3.961a3.3,3.3,0,0,0-5.282,0,11.064,11.064,0,0,0-.793,3.7Zm25.351,8.45v-2.377a6.226,6.226,0,0,1-2.377,2.113,7.036,7.036,0,0,1-3.169.793,5.322,5.322,0,0,1-2.9-.793,3.662,3.662,0,0,1-1.849-2.113,12.217,12.217,0,0,1-.528-3.7v-10.3h4.225v7.394c0,2.377,0,3.7.265,4.225s.528.793.793,1.32a3.742,3.742,0,0,0,1.584.528,3.827,3.827,0,0,0,1.848-.528c.528-.528,1.057-.793,1.32-1.585a17.621,17.621,0,0,0,.265-4.489v-6.866h4.225v16.372Zm22.71,0h-4.225v-8.45a10.057,10.057,0,0,0-.264-3.433c-.264-.528-.528-.793-.793-1.32a2.826,2.826,0,0,0-1.584-.528,6.216,6.216,0,0,0-2.113.528,6.993,6.993,0,0,0-1.32,1.584,12.951,12.951,0,0,0-.265,3.7v7.394h-4.225V190.621h3.961V193a6.164,6.164,0,0,1,5.281-2.641,7.835,7.835,0,0,1,2.641.528,4.752,4.752,0,0,1,1.848,1.32,2.4,2.4,0,0,1,.793,1.849,9.041,9.041,0,0,1,.264,2.9Zm7.13-11.091-3.961-.793a6.7,6.7,0,0,1,2.377-3.433c1.057-.793,2.641-1.057,4.753-1.057a8.537,8.537,0,0,1,4.225.793,4.892,4.892,0,0,1,2.113,1.848,12.874,12.874,0,0,1,.528,3.961v5.017a10.84,10.84,0,0,0,.265,3.169c.264.793.528,1.32.793,2.112h-4.225a4.45,4.45,0,0,0-.528-1.32c0-.265,0-.528-.264-.528a6.228,6.228,0,0,1-2.377,1.585,9.351,9.351,0,0,1-2.641.528,6.486,6.486,0,0,1-3.961-1.32,4.054,4.054,0,0,1-1.32-3.433,6.3,6.3,0,0,1,.528-2.376,3.547,3.547,0,0,1,1.848-1.584,18.043,18.043,0,0,1,3.433-1.057,18.857,18.857,0,0,0,4.225-1.057v-.528a3.824,3.824,0,0,0-.528-1.848,4.456,4.456,0,0,0-2.377-.528,3.826,3.826,0,0,0-1.848.528c-.528,0-.793.528-1.057,1.32Zm5.809,3.433a5.681,5.681,0,0,1-2.641.528,7.962,7.962,0,0,0-2.377.793,1.884,1.884,0,0,0-.793,1.584,2.283,2.283,0,0,0,.793,1.585,1.941,1.941,0,0,0,1.584.528,2.993,2.993,0,0,0,2.113-.793,2.642,2.642,0,0,0,1.057-1.32,14.207,14.207,0,0,0,.265-2.113Zm7.658,7.658V185.076h4.225v22.446ZM118.813,236.833l4.489-.528a4.522,4.522,0,0,0,1.584,3.169,4.207,4.207,0,0,0,3.169,1.056,4.482,4.482,0,0,0,3.433-1.056,2.4,2.4,0,0,0,1.057-2.113,2.021,2.021,0,0,0-.528-1.32,4.074,4.074,0,0,0-1.584-1.057c-.528-.265-1.848-.528-3.7-1.057a11.282,11.282,0,0,1-5.017-2.112,6.046,6.046,0,0,1-2.113-4.489,5.068,5.068,0,0,1,1.057-3.169,5.307,5.307,0,0,1,2.9-2.376,11.38,11.38,0,0,1,4.489-.793c2.9,0,5.017.528,6.338,1.848a8.175,8.175,0,0,1,2.377,5.017l-4.489.265c-.265-1.057-.528-2.112-1.32-2.377a4.249,4.249,0,0,0-2.9-.793,5.631,5.631,0,0,0-3.169.793,1.5,1.5,0,0,0,0,2.641c.528.528,1.848,1.057,4.225,1.585a28.508,28.508,0,0,1,5.017,1.585,5.176,5.176,0,0,1,2.377,2.376,7.67,7.67,0,0,1,.793,3.7,6.6,6.6,0,0,1-1.057,3.7,10.571,10.571,0,0,1-3.169,2.641,13.314,13.314,0,0,1-5.017.793c-2.9,0-5.017-.528-6.6-1.849a10.552,10.552,0,0,1-2.641-6.074Zm32.217,7.13v-2.377a6.226,6.226,0,0,1-2.377,2.113,7.039,7.039,0,0,1-3.169.793,5.313,5.313,0,0,1-2.9-.793,3.663,3.663,0,0,1-1.848-2.113,12.252,12.252,0,0,1-.528-3.7v-10.3h4.225v7.394c0,2.377,0,3.7.264,4.225s.528.793.793,1.32a3.757,3.757,0,0,0,1.584.528,6.24,6.24,0,0,0,2.113-.528c.528-.528,1.057-.793,1.32-1.584.265-.528.265-2.113.265-4.489v-6.866h4.225v16.372Zm7.658-16.108h3.961v2.376a8.018,8.018,0,0,1,2.113-2.112,5.327,5.327,0,0,1,2.9-.793,6.617,6.617,0,0,1,4.753,2.112,9.148,9.148,0,0,1,2.113,6.338,9.641,9.641,0,0,1-2.113,6.338,6,6,0,0,1-4.753,2.376,6.3,6.3,0,0,1-2.377-.528,7.283,7.283,0,0,1-2.377-1.848V250.3h-4.225Zm4.225,7.658c0,1.848.265,3.169,1.057,3.961a3.665,3.665,0,0,0,2.641,1.32,2.772,2.772,0,0,0,2.377-1.32c.793-.793,1.057-2.113,1.057-3.961a5.164,5.164,0,0,0-1.057-3.7,3.3,3.3,0,0,0-5.281,0,12.89,12.89,0,0,0-.793,3.7Zm24.03,3.433,4.225.793a6.426,6.426,0,0,1-2.641,3.7,7.548,7.548,0,0,1-4.489,1.32c-2.9,0-5.017-.793-6.338-2.9a9.757,9.757,0,0,1-1.585-5.546,9.64,9.64,0,0,1,2.113-6.338,6.648,6.648,0,0,1,5.281-2.377,7.768,7.768,0,0,1,5.81,2.377c1.32,1.585,2.113,3.961,2.113,7.394H180.6c0,1.32.264,2.376,1.056,2.9a3.225,3.225,0,0,0,2.377,1.057,2.232,2.232,0,0,0,1.584-.528,3.05,3.05,0,0,0,1.32-1.849Zm.265-4.489a3.607,3.607,0,0,0-1.057-2.9,3.261,3.261,0,0,0-2.113-1.057,2.574,2.574,0,0,0-2.377,1.057,4.745,4.745,0,0,0-.793,2.9Zm11.355,9.507h-4.225V227.591H198.3v2.377a7.86,7.86,0,0,1,1.848-2.113,3.819,3.819,0,0,1,1.848-.528,6.018,6.018,0,0,1,2.9.793l-1.32,3.7a3.516,3.516,0,0,0-2.113-.793,3.768,3.768,0,0,0-1.585.528c-.528.265-.793,1.057-1.057,1.848a26.031,26.031,0,0,0-.264,5.546Zm7.394-18.485v-3.961h4.225v3.961Zm0,18.485V227.591h4.225v16.372Zm7.13-8.45a8.8,8.8,0,0,1,3.962-7.394,7.739,7.739,0,0,1,4.225-1.057,8.453,8.453,0,1,1,0,16.9,7.752,7.752,0,0,1-4.225-1.057,8.4,8.4,0,0,1-3.169-2.9,13.618,13.618,0,0,1-.793-4.489Zm4.489.265a5.158,5.158,0,0,0,1.057,3.7,3.782,3.782,0,0,0,2.9,1.32,4.238,4.238,0,0,0,2.9-1.32,6.993,6.993,0,0,0,0-7.394,3.781,3.781,0,0,0-2.9-1.32,4.238,4.238,0,0,0-2.9,1.32A7.638,7.638,0,0,0,217.576,235.778Zm19.277,8.186h-4.225V227.592h3.961v2.377a7.856,7.856,0,0,1,1.848-2.112,3.808,3.808,0,0,1,1.848-.528,6.02,6.02,0,0,1,2.9.793l-1.321,3.7a3.517,3.517,0,0,0-2.113-.793,3.764,3.764,0,0,0-1.584.528c-.528.265-.793,1.057-1.057,1.849a26.027,26.027,0,0,0-.264,5.545ZM119.87,280.406V257.96h16.636v3.7H124.359v5.017h11.355v3.7H124.359v6.074h12.675v3.7Zm20.333,0V257.96h4.225v22.446Zm17.693-5.281,4.225.793a6.428,6.428,0,0,1-2.641,3.7,8.175,8.175,0,0,1-4.489,1.32c-2.9,0-5.017-.793-6.338-2.9a9.755,9.755,0,0,1-1.584-5.545,9.641,9.641,0,0,1,2.113-6.338,6.649,6.649,0,0,1,5.281-2.377,7.769,7.769,0,0,1,5.81,2.377c1.32,1.585,2.113,3.961,2.113,7.394H151.558c0,1.32.265,2.377,1.057,2.9a3.225,3.225,0,0,0,2.377,1.057,2.237,2.237,0,0,0,1.585-.528c.793-.265,1.057-1.057,1.32-1.849Zm.265-4.225a3.608,3.608,0,0,0-1.057-2.9,3.262,3.262,0,0,0-2.113-1.057,2.572,2.572,0,0,0-2.377,1.057,4.747,4.747,0,0,0-.793,2.9Zm7.13-8.979V257.96h4.225v3.961Zm0,18.485V264.034h4.225v16.372Zm15.58-16.372v3.433h-2.9v8.978l.264.528a.968.968,0,0,0,.793.265,6.756,6.756,0,0,0,1.849-.528l.265,3.433a7.25,7.25,0,0,1-3.433.528,5.146,5.146,0,0,1-2.113-.264,2.634,2.634,0,0,1-1.32-1.057,3.741,3.741,0,0,1-.528-1.584c0-.528-.264-1.585-.264-3.169v-7.13h-1.848v-3.433h1.848v-3.169l4.225-2.641v5.809Zm1.585,7.922a8.8,8.8,0,0,1,3.962-7.394,7.741,7.741,0,0,1,4.225-1.057,8.452,8.452,0,1,1,0,16.9,7.743,7.743,0,0,1-4.225-1.057,8.4,8.4,0,0,1-3.169-2.9,10.525,10.525,0,0,1-.793-4.489Zm4.225.264a5.164,5.164,0,0,0,1.057,3.7,3.856,3.856,0,0,0,5.809,0,6.993,6.993,0,0,0,0-7.394,3.781,3.781,0,0,0-2.9-1.32,4.238,4.238,0,0,0-2.9,1.32A6.838,6.838,0,0,0,186.68,272.22Zm19.541,8.186H202V264.034h3.961v2.377a7.856,7.856,0,0,1,1.848-2.113,3.808,3.808,0,0,1,1.848-.528,6.017,6.017,0,0,1,2.9.793l-1.32,3.7a3.517,3.517,0,0,0-2.113-.793,3.751,3.751,0,0,0-1.584.528c-.528.265-.793,1.057-1.057,1.848a25.926,25.926,0,0,0-.265,5.546Zm10.563-11.355-3.961-.793a6.7,6.7,0,0,1,2.377-3.433c1.057-.793,2.641-1.057,4.753-1.057a8.538,8.538,0,0,1,4.225.793,4.889,4.889,0,0,1,2.112,1.849,12.838,12.838,0,0,1,.528,3.961v5.017a10.842,10.842,0,0,0,.265,3.169c.265.793.528,1.32.793,2.112h-4.225a4.474,4.474,0,0,0-.528-1.32c0-.264,0-.528-.265-.528a6.23,6.23,0,0,1-2.377,1.584,9.351,9.351,0,0,1-2.641.528,6.485,6.485,0,0,1-3.961-1.32,4.056,4.056,0,0,1-1.32-3.433,6.321,6.321,0,0,1,.528-2.376,3.549,3.549,0,0,1,1.848-1.585,18.04,18.04,0,0,1,3.433-1.057,18.9,18.9,0,0,0,4.225-1.057v-.528a3.825,3.825,0,0,0-.528-1.849,4.456,4.456,0,0,0-2.377-.528,3.827,3.827,0,0,0-1.848.528c-.265,0-.793.528-1.057,1.32Zm5.81,3.433a10.749,10.749,0,0,1-2.641.793,7.974,7.974,0,0,0-2.377.793,1.884,1.884,0,0,0-.793,1.584,2.284,2.284,0,0,0,.793,1.585,2.229,2.229,0,0,0,1.848.528,2.993,2.993,0,0,0,2.113-.793,2.646,2.646,0,0,0,1.057-1.32,14.2,14.2,0,0,0,.265-2.113Zm7.922,7.922V257.96h4.225v22.446Z" transform="translate(5552.903 -3874.713)" fill="#828c8f"/>
    <path id="Exclusão_4" data-name="Exclusão 4" d="M-400.28,889.547a41.5,41.5,0,0,1-16.592-3.431,42.44,42.44,0,0,1-13.549-9.355,43.58,43.58,0,0,1-9.135-13.876,44.286,44.286,0,0,1-3.35-16.992,44.287,44.287,0,0,1,3.35-16.992,43.582,43.582,0,0,1,9.135-13.876,42.442,42.442,0,0,1,13.549-9.356,41.5,41.5,0,0,1,16.592-3.431,41.5,41.5,0,0,1,16.592,3.431,42.441,42.441,0,0,1,13.549,9.356,43.582,43.582,0,0,1,9.135,13.876,44.287,44.287,0,0,1,3.35,16.992,44.286,44.286,0,0,1-3.35,16.992,43.58,43.58,0,0,1-9.135,13.876,42.441,42.441,0,0,1-13.549,9.355A41.5,41.5,0,0,1-400.28,889.547Zm7.588-9.792h0l.591.295v.591l.3-.3h.592l-.3-.3.3-.592-.592.3-.3-.592v.592Zm-18.057-7.7h0v1.776l-1.776.592,1.776.592-.3,1.776,1.184-1.48,1.776.591-1.184-1.48,1.184-1.184-1.776.3-.888-1.48Zm36.7-.592v.888l-1.184.3,1.184.3-.3,1.184.888-.887.888.3-.592-.887.592-.592-.888.3Zm-7.991-.591h0v1.479l-1.184.3,1.184.3v1.184l.591-.888,1.184.592-.592-1.184.592-.888-1.184.3Zm-35.519-.593h0v1.481l-1.183.3,1.183.3v1.184l.592-.888,1.184.592-.591-1.184.591-.888-.887.3Zm-13.319-1.183-.3,1.183-1.184.3,1.184.3v1.184l.888-.888.887.592-.591-1.184.887-.887-1.184.3-.592-.887Zm55.941-2.368h0v1.48l-1.48.592,1.481.592v1.776l.887-1.48,1.48.592-.888-1.48,1.184-1.184-1.777.3Zm-10.952.3-.3,1.184-.887.3.887.3v1.48l.888-1.184.888.592-.592-1.184.888-.888-1.184.3-.592-.888Zm5.032-1.184h0v1.184l-1.184.3,1.184.592V869.1l.592-.887,1.184.3-.591-.887.591-1.184-.887.3Zm-15.391-1.777h0v1.777l-1.777.3,1.48.592V868.8l1.184-1.48,1.48.592-.888-1.48,1.184-1.48-1.776.592-.887-1.481Zm-21.9,1.481v1.183l-1.184.3,1.184.3v1.183l.592-.887,1.184.592-.592-1.184.592-.888-1.184.3Zm-9.472-2.368-.3,1.776-1.48.3,1.48.592v2.072l1.184-1.48,1.48.592-.888-1.48,1.184-1.481-1.776.592-.888-1.48Zm51.5,0-.3,1.184-.887.3.887.592v1.184l.888-.887.888.3-.592-.888.887-.888-1.183.3Zm3.849-.3h0v1.479l-1.184.3,1.184.3v1.184l.591-.888,1.184.3-.592-.888.592-.887-1.184.3Zm2.071-3.552h0v1.48l-1.48.592,1.48.592v1.48l.888-1.183,1.48.591-.887-1.48,1.184-1.183-1.776.3Zm-52.981,2.96h0l.592.295-.3-.591.3-.592-.592.3-.3-.592v.592l-.592.3h.592l-.3.591.592-.295Zm24.27-.888-.3.592.592-.3h0l.592.3-.3-.592.3-.592-.592.3-.3-.592v.592l-.592.3Zm-3.848-3.256v1.184l-1.184.3,1.184.3v1.184l.592-.887.887.3-.591-.887.591-.888-.887.3-.592-.888Zm35.222-2.368h0v1.48l-1.48.592,1.48.592-.3,1.48,1.184-1.184,1.48.591-.888-1.48,1.184-1.184-1.777.3Zm-26.935.3v1.184l-1.184.3,1.184.3v1.184l.592-.887,1.184.591-.592-1.183.592-.888-1.184.3-.592-.887Zm23.975-3.848h0V854.3l-1.776.3,1.776.592-.3,1.776,1.184-1.183,1.776.591-1.184-1.48,1.184-1.48-1.776.592Zm-28.415.3v1.183l-1.184.3,1.184.592v1.184l.592-.887,1.184.3-.591-.887.591-1.184-1.184.3Zm-16.279-1.48v1.184l-1.184.3,1.184.3-.3,1.48.888-1.183,1.184.592-.887-1.184.887-.887-1.184.3-.592-.887Zm50.022.3-.3,1.184-.888.3.888.3V854.3l.592-.888,1.184.3-.592-.887.592-.888-1.184.3-.3-.888Zm-69.853-3.255h0v1.776l-1.776.592,1.776.592v1.776l.887-1.48,1.777.592-.888-1.48.888-1.48-1.48.591-1.183-1.48Zm42.918-5.623h0v.887l-.888.3.592.3v.887l.592-.591.887.3-.591-.887.591-.592-.887.3Zm.3-14.208-.3,1.776-1.776.591,1.776.592v1.776l1.184-1.48,1.48.888-.887-1.777,1.183-1.183-1.776.3-.888-1.48Z" transform="translate(5999 -4501)" fill="#828c8f"/>
    <path id="path178-0-3" d="M116.849,284.05h-6.216V266a43.31,43.31,0,0,0,24.567.3c24.271-6.512,38.775-32.263,32.263-57.126a45.853,45.853,0,0,0-15.687-24.271h34.631v58.9l-69.558,40.255" transform="translate(5474.961 -3876.563)" fill="#828c8f"/>
    <path id="polyline180-6-5" d="M121.527,177.375H57.89l63.637-36.406v36.406" transform="translate(5539.833 -3769.908)" fill="#828c8f"/>
  </g>
</svg>
