<svg xmlns="http://www.w3.org/2000/svg" width="240" height="58.4" viewBox="0 0 240 58.4">
  <g id="Ultragaz" transform="translate(-22 -248)">
    <path id="Caminho_48" data-name="Caminho 48" d="M154.92,282.88a3.126,3.126,0,0,1-1.16.24c-1.12,0-1.72-.92-1.72-2.72V260.08h-6.6l-.84,3.88h-.48c-1.92-2.32-4.6-4.52-9.92-4.52-9.8,0-15.76,7.52-15.76,16.56,0,8.48,5.92,15.72,15.68,15.72a12.216,12.216,0,0,0,10.2-4.88h.44c.6,2.92,2.92,4.72,6.36,4.72a11.27,11.27,0,0,0,4.52-.92v-7.68l-.72-.08Zm-19.72.76a7.775,7.775,0,0,1-7.84-8.04c0-4.88,3.44-8.2,7.8-8.2a8.122,8.122,0,0,1,.04,16.24Zm111.88-.32,14.64-17.92v-5.32H235.48v7.68h14.04l-14.76,17.92V291H262v-7.68Zm-17.8-.24c-1.12,0-1.72-.92-1.72-2.72V260.04h-6.6l-.84,3.88h-.48c-1.92-2.32-4.6-4.52-9.92-4.52-9.8,0-15.76,7.52-15.76,16.56,0,8.48,5.92,15.72,15.68,15.72a12.216,12.216,0,0,0,10.2-4.88h.44c.6,3.08,2.92,4.88,6.36,4.88a11.269,11.269,0,0,0,4.52-.92v-7.84h-.72A4.25,4.25,0,0,1,229.28,283.08Zm-18.52.56a7.775,7.775,0,0,1-7.84-8.04c0-4.88,3.44-8.2,7.8-8.2a8.122,8.122,0,0,1,.04,16.24ZM184.4,285.6a11.694,11.694,0,0,0,5.36-10.28,10.683,10.683,0,0,0-4.88-8.68v-.48h4.76V259.8H174.48c-9.68,0-17.12,5.96-17.12,14.92,0,9.2,6.88,15,16.72,15,4,0,6.52,1.76,6.52,4.72,0,2.44-2.28,4.08-5.36,4.08v7.88c9.24,0,14.72-4.08,14.72-11.52A10.05,10.05,0,0,0,184.4,285.6Zm-10.88-3.44a7.44,7.44,0,1,1,7.36-7.52A7.25,7.25,0,0,1,173.52,282.16ZM97.96,291h8.96V276.24c0-6.16,4.08-8.12,8.32-8.12h1.12v-8.68h-1.04a10.61,10.61,0,0,0-8.8,4.2h-.44l-.92-3.56H98.04L97.96,291Zm-10.44.68A16.917,16.917,0,0,0,94,290.52V282.6h-.6a9.53,9.53,0,0,1-4.16,1c-3.48,0-5.44-1.76-5.44-6.08v-9.96H93v-7.48H83.76V253.2H77l-1.4,6.88H70.36v7.48h4.48v9.84C74.84,287.68,79.84,291.68,87.52,291.68ZM57.52,248h8.96v43H57.52V248ZM37,291.68c8.92,0,15.16-5.2,15.16-14.68V260.08H43.2v16.76c0,4.28-2.2,6.8-6.16,6.8s-6.08-2.6-6.08-6.96v-16.6H22V277C22,286.36,27.92,291.68,37,291.68Z" fill="#828c8f"/>
    <path id="Caminho_49" data-name="Caminho 49" d="M303.1,373.18c11.12,0,12.6-5.96,20.4-5.96s9.28,5.96,20.4,5.96v-7.92c-9.04,0-9.64-5.96-20.4-5.96-10.8,0-11.4,5.96-20.4,5.96v7.92Z" transform="translate(-168.66 -66.78)" fill="#828c8f"/>
  </g>
</svg>
