<svg xmlns="http://www.w3.org/2000/svg" width="240" height="86.238" viewBox="0 0 240 86.238">
  <path id="White_Martins" data-name="White Martins" d="M124.225,86.438l2.906,39.542h8.712l6.031-22.563.894,22.563h8.474l13.634-39.537-9.182,0-6.9,23.9-.7-23.9H140.05l-6.219,23.68-.446-23.68h-9.16Zm36.863,39.542h9.606l2.458-15.639h4.021l-1.787,15.639h9.606l5.379-39.542h-8.91l-2.5,14.3h-4.469l2.054-14.3h-9.165Zm28.371,0h9.16l5.438-39.542h-9.145Zm-11.893,46.468h9.158l5.45-39.542h-9.143l-5.465,39.542Zm30.271-86.01h18.993l-1.405,9.829h-4.914l-4.246,29.713h-9.828l5.1-29.721H206.4ZM160.2,132.906h19l-1.4,9.828h-4.914l-4.248,29.713H158.8l5.1-29.721H158.8Zm70.648-46.469H248.5L247.1,96.043H238.83l-.223,4.914h6.7l-1.119,10.054h-6.925l-.671,6.033h7.15l-.487,8.935h-17.47l5.056-39.542ZM61.077,172.448h9.366l5.029-22.115.446,22.115h7.15l7.15-21.892-1.579,21.892h9.843l1.349-39.542H88.964l-6.347,19.211-.233-19.211H70.379l-9.3,39.542Zm66.505,0-2.338-39.542H114.752l-14.371,39.542h9.454l1.381-4.691h6.256l.015,4.691h10.1Zm-13.908-13.4,4.018-13.851v13.851Zm42.891-15.862c.668-8.044-8.293-10.277-8.293-10.277H134.94L129.5,172.448h8.925l2.72-14.968,2.946,14.968h10.086l-4.319-16.085S155.224,155.022,156.566,143.183Zm-9.606,2.456a7.387,7.387,0,0,1-4.917,5.585l.894-9.829s4.917-.223,4.023,4.243Zm45.083,26.809h7.583L202.363,151l4.552,21.447H216.6l5.448-39.542h-8.026l-3.394,23.457-5.367-23.457h-7.818Zm30.036-12.064-1.339,9.831A17.13,17.13,0,0,0,229,172.448c9.158,0,12.51-5.585,12.51-12.735,0-8.489-7.6-11.391-7.6-16.53,0-2.236,1.114-2.458,2.679-2.458s4.917,2.458,4.917,2.458l2.233-8.714s-4.324-2.01-7.676-2.01c-7.375,0-11.315,6.927-11.315,11.393,0,7.818,7.6,12.064,7.6,15.862s-1.565,3.575-4.246,3.575-6.031-2.9-6.031-2.9ZM103.951,125.957H81.106l4.2-2.649h5.757l8.225-4.66-2.194-.732-6.17,3.658-7.037.044L78.5,124.909l-6.214-.091L70.5,125.96H60.82l3.2-1.824,5.3-.049,6.077-3.974,5.619.047,6.807-3.976h5.3l7.95-4.525-2.194-.73-6.17,3.656-6.988.047L80.1,117.875l-6.214-.091-6.031,3.834-7.995-.642.091-.639,5.666-3.242,5.3-.047,6.17-3.93,5.712.047,6.807-3.974,4.934-.047,8.134-4.706-2.194-.732-6.17,3.656-6.988.047L81.7,110.651l-6.212-.088L69.456,114.4l-8-.642.093-.642,5.664-3.242,5.3-.047,6.168-3.93,5.712.047,6.807-3.976H96.87L105,97.309l-2.194-.732-6.165,3.658-6.991.047-5.619,3.244-6.214-.091-6.031,3.839-8-.642.091-.642,5.666-3.242,5.3-.047,6.17-3.93,5.71.044,6.807-3.974,4.616.047,7.4-4.158-1.829-.639-6.168,3.656-6.991.047L84.945,97.04l-6.214-.093L72.7,100.784l-8-.639.093-.639,5.666-3.244,5.3-.047,6.17-3.93,5.712.047,6.807-3.974h6.031l2.329-1.966,17.728.047-6.121,39.52h-8.729l1.736-1.462-1.006-.548-2.466,2.01Zm-65.337-3.47,4.89-3.017,4.936.686-3.976,3.2-5.85-.869Zm1.234-7.221,4.89-3.012,4.934.683-3.976,3.2-5.847-.869Zm2.057-7.355,4.89-3.014,4.934.686-3.976,3.2-5.847-.869Zm1.506-7.172L48.3,97.726l4.936.686-3.976,3.2-5.847-.869ZM28.7,125.135l4.388-2.7,4.388.595-3.563,2.877Zm1.6-6.988,4.388-2.7,4.388.595-3.565,2.877Zm1.325-7.218,4.385-2.7,4.388.595L36.831,111.7Zm1.827-6.947,4.385-2.7,4.388.595-3.563,2.88ZM34.868,96.9l4.385-2.7,4.388.593-3.565,2.88ZM19.562,122.3l2.968-1.783,2.924.411-2.422,1.917Zm1.506-7.128,2.97-1.783,2.924.411-2.422,1.92Zm1.692-7.355,2.97-1.783,2.924.411-2.422,1.917-3.472-.546Zm1.234-7.174,2.968-1.783,2.926.411-2.422,1.917ZM8.5,126.006l2.6-1.555,2.605.365-2.147,1.69Zm1.827-7.5,2.6-1.555,2.6.365-2.147,1.689Zm1.783-7.583,2.6-1.552,2.605.365-2.147,1.69Zm1.418-7.081,2.6-1.552,2.605.365-2.147,1.692Zm1.827-7.084,2.6-1.552,2.6.365-2.147,1.69Zm1.783-7.355,2.6-1.552,2.605.365L20.2,89.91Zm9.229,3.746,2.968-1.783,2.926.411L29.841,93.7l-3.472-.548Zm10.144-3.332,4.385-2.7,4.388.595L41.721,90.6ZM45.6,93.384l4.887-3.017,4.934.686-3.974,3.2L45.6,93.384Zm11.1-3.43,6.031-3.744,6.121.867-4.934,3.93Zm-8.543,35.458,6.031-3.744,6.124.867L56.16,125.96l-3.837.049-4.16-.6Zm1.281-6.809,6.031-3.746,6.121.869-4.934,3.927Zm1.917-7.218,6.031-3.746,6.121.869-4.934,3.927Zm1.552-7.309,6.033-3.746,6.121.867-4.934,3.93Zm1.92-7.084,6.031-3.746,6.121.867-4.934,3.93Zm53.778-5.664,4.478-2.468L113,90l-3.291,1.783Zm-7.125,28.327,4.476-2.468-.093,1.141-3.288,1.785-1.095-.458Zm1.961-7.355,4.478-2.468-.091,1.141-3.291,1.783-1.1-.455Zm1.966-7.358,4.478-2.468-.091,1.141L106.51,105.4l-1.1-.455Zm1.964-7.355,4.478-2.468-.091,1.141-3.291,1.783-1.1-.455ZM66.486,92.562l5.664-3.244,5.3-.047,4.936-3.014h9.961l-.091.595L86.637,90.1l-6.214-.091-6.031,3.837-8-.639.091-.642Z" transform="translate(-8.504 -86.21)" fill="#828c8f" fill-rule="evenodd"/>
</svg>
